<?xml version="1.0" encoding="UTF-8"?>
<svg id="head" xmlns="http://www.w3.org/2000/svg" width="111.5" height="120.8" version="1.1" viewBox="0 0 111.5 120.8">
  <!-- Generator: Adobe Illustrator 29.4.0, SVG Export Plug-In . SVG Version: 2.1.0 Build 152)  -->
  <g>
    <path d="M46.1489,54.7045c12.1546,17.4635,2.0033,41.0124,2.0033,41.0124,6.1368,1.0295,36.5672.4453,36.5672.4453.5534-4.1572-1.059-16.8612-5.2778-19.7062-5.7472-3.8758-23.7969-5.2799-14.4969-19.1386" style="fill: #ede3b7;"/>
    <path d="M45.1775,55.2723c7.4354,10.8299,6.9331,24.9343,3.0347,36.9908-.245.7577-.5051,1.5108-.7876,2.2554-.0715.1883-.4711,1.1601-.2437.6305-.2534.5903-.1232,1.5231.6723,1.6526,4.9716.8095,10.1988.6057,15.2165.6381,5.9237.0383,11.8481-.0077,17.7712-.0906,1.2929-.0181,2.5858-.0373,3.8786-.062.664-.0127,1.049-.5097,1.125-1.125.4363-3.5307-.1755-7.3487-.9217-10.7942-.7228-3.3371-1.8247-7.654-4.7582-9.7735-4.6251-3.3417-11.3556-3.3427-15.2978-7.7873-2.7055-3.0502-.8914-6.9859,1.0495-9.922.8008-1.2114-1.1469-2.3396-1.9428-1.1356-1.9372,2.9306-3.6523,6.6825-2.2519,10.1923,1.1237,2.8164,3.82,4.5879,6.4458,5.8565,2.7938,1.3498,5.7773,2.23,8.6016,3.5024,1.1392.5132,2.2657,1.0602,3.0515,2.0645,1.1452,1.4638,1.7865,3.3394,2.3015,5.0999,1.1606,3.967,1.9847,8.5528,1.4726,12.6971l1.125-1.125c-9.7931.1873-19.6078.3149-29.3996.0284-2.2343-.0654-4.8674-.1077-6.8685-.4335l.6723,1.6526c1.2911-3.0074,2.1754-6.2185,2.8535-9.4126,1.4225-6.7,1.7922-13.7098.3706-20.4428-.9277-4.394-2.6845-8.5886-5.2275-12.2926-.8145-1.1863-2.7652-.0623-1.9428,1.1356h0Z" style="fill: #352d0a;"/>
  </g>
  <g>
    <path d="M78.5329,68.4454c3.3385,2.1997,7.7246-.6877,6.9238-4.6047-2.6674-13.0476-11.4663-28.6631-18.1041-35.7093-9.2346-9.8028-16.9483,2.4102-27.071,9.5778-1.3916.9853-2.7222,2.0947-4.0136,3.2639-4.1883,3.7918-13.6386,11.9759-9.1294,14.7802,10.2572,6.379,28.715.1,42.792,7.5835,3.2995,1.7541,6.202,3.5269,8.6024,5.1085Z" style="fill: #c4313c;"/>
    <path d="M77.9651,69.4168c2.1688,1.3269,4.8939,1.164,6.8284-.5243,2.1093-1.8408,2.015-4.3085,1.4268-6.8106-1.457-6.1973-3.9184-12.1753-6.7997-17.8382-2.6386-5.186-5.6946-10.2244-9.3797-14.7389-3.1181-3.82-7.1611-7.2387-12.4015-5.7912-5.1998,1.4363-9.3097,5.9179-13.2746,9.3212-2.5307,2.1723-5.3013,4.0284-7.8266,6.2009-1.8255,1.5705-3.6113,3.2061-5.3375,4.8851-1.7116,1.6648-3.3882,3.4142-4.7399,5.3907-.9801,1.4332-1.9838,3.3014-1.526,5.0958.5152,2.0198,2.8927,2.905,4.6324,3.5772,2.4369.9416,5.0441,1.3685,7.6322,1.6342,6.7753.6957,13.6178.1974,20.3852,1.0422,3.5399.4419,7.1023,1.2515,10.3561,2.7439,3.4942,1.6026,6.8152,3.7058,10.0242,5.812,1.2141.7968,2.3426-1.1506,1.1356-1.9428-5.0425-3.3096-10.295-6.5228-16.2165-7.9391-5.4108-1.2942-11.0108-1.4296-16.5462-1.5449-5.0872-.106-10.4099-.0367-15.2942-1.6603-1.1162-.371-3.8253-1.0801-3.9683-2.5256-.1474-1.4908,1.305-3.2112,2.1615-4.2749,2.8522-3.542,6.4412-6.7616,9.978-9.6098,2.2798-1.836,4.6646-3.5066,6.8877-5.4201,2.0252-1.7432,3.9984-3.5546,6.1063-5.1992,3.5094-2.7381,7.8024-5.1622,12.0152-2.396,1.9039,1.2502,3.4145,3.1435,4.8092,4.9205,1.5922,2.0286,3.0384,4.1754,4.3987,6.3649,3.4705,5.5864,6.4242,11.5473,8.6164,17.7513.5263,1.4896,1.0083,2.9952,1.4312,4.5175.3784,1.3619.963,2.9146.9476,4.3379-.0299,2.7658-3.1456,4.0123-5.3267,2.6778-1.2385-.7577-2.3702,1.1875-1.1356,1.9428Z" style="fill: #8e0929;"/>
  </g>
  <path d="M38.5494,41.6936c-.6598,1.0196-.9939,2.3128-.9075,3.525.0436.6107.1484,1.2188.3793,1.7875.3172.7812.7126,1.5502,1.533,1.8964,1.5934.6724,2.9474-.7739,3.3447-2.1912.2514-.8968.2303-1.9246-.0538-2.8109-.3711-1.1577-1.1466-2.1873-2.2435-2.7449-.6987-.3552-1.6588-.2066-2.0523.5381-.3613.6839-.2087,1.6726.5381,2.0523.1184.0602.2337.1251.344.1993.1139.0766.2183.2172-.0969-.082.0455.0432.0971.0811.1433.1237.0917.0845.1731.1772.2572.2688.17.1852-.2223-.3192-.0846-.1104.0335.0508.069.0997.1014.1513.0642.102.1225.2077.1749.3163.0558.1157.0974.3227-.0549-.1392.0186.0565.0426.1114.0617.1677.0759.2237.127.4537.1598.6874l-.0536-.3988c.0399.3205.041.6413-.0006.9617l.0536-.3988c-.0208.142-.0481.2825-.0868.4207-.0187.0667-.0404.1323-.0632.1977-.1055.3034.1643-.3227.0543-.1259-.0609.1091-.1419.22-.1952.3315.1577-.1965.185-.2364.0821-.1197-.0371.039-.0763.0757-.1175.1103.2027-.1475.2389-.1821.1086-.1038.2462-.0907.2951-.1179.1467-.0816l.3988-.0536c-.0489.0072-.098.0078-.1471.0016l.3988.0536c-.1542-.0363-.1028-.0092.1544.0812.2036.1724.2501.2063.1394.1016-.073-.0847-.0642-.0717.0264.0389.0858.1145.0975.125.035.0315-.0396-.0808-.0903-.1571-.1312-.2376-.0621-.1219-.1187-.3907.0025.0326-.1038-.3625-.2288-.6968-.2823-1.0746l.0536.3988c-.0493-.398-.0501-.794-.0027-1.1922l-.0536.3988c.0432-.3162.1134-.6268.2193-.9282.042-.1194.1782-.3123-.0346.0624.0389-.0684.0661-.1455.1016-.2159.072-.1424.1531-.2792.2397-.4131.4271-.6601.1559-1.6856-.5381-2.0523-.7462-.3943-1.5965-.1663-2.0523.5381h0Z" style="fill: #ede3b7;"/>
  <path d="M71.9415,50.1627c-1.0502.253-2.04.8338-2.796,1.6028-.7363.749-1.3523,1.7551-1.5572,2.7955-.0892.453-.1257.8954.0248,1.3411.1693.5012.5145.945.994,1.1829.6499.3224,1.4136.3475,2.1026.1293,1.0933-.3462,2.0013-1.1326,2.5996-2.1005.7064-1.1428.9326-2.6259.4773-3.9034-.1328-.3726-.3393-.6916-.6893-.8964-.3215-.1882-.7954-.2679-1.1558-.1512-.7268.2352-1.3297,1.0538-1.0477,1.8452.0761.2136.1299.4304.1609.6551l-.0536-.3988c.0296.2565.0282.5105-.0033.7668l.0536-.3988c-.0416.2894-.1193.5669-.2307.8372l.1512-.3583c-.1217.2809-.2746.5419-.4586.7865l.2345-.3036c-.1919.2468-.4092.4678-.6555.6606l.3036-.2345c-.2026.1531-.4174.2826-.6511.3826l.3583-.1512c-.1746.0705-.3521.1212-.5387.148l.3988-.0536c-.1321.0147-.2599.0166-.392,0l.3988.0536c-.0718-.0128-.1389-.0304-.2072-.056l.3583.1512c-.0487-.0224-.0906-.0458-.135-.0758l.3036.2345c-.0421-.0343-.0753-.0673-.1099-.1091l.2345.3036c-.0237-.0316-.0436-.0655-.0597-.1016l.1512.3583c-.0239-.0628-.0383-.1179-.0489-.1842l.0536.3988c-.0066-.0887-.0033-.173.007-.2613l-.0536.3988c.0461-.2851.1376-.5615.2476-.8279l-.1512.3583c.1525-.3547.3473-.6851.5814-.992l-.2345.3036c.2385-.3042.5096-.5763.8128-.816l-.3036.2345c.306-.2354.6355-.4317.9895-.5859l-.3583.1512c.2247-.0941.4544-.1698.6913-.2269.7633-.1839,1.2915-1.0916,1.0477-1.8452-.2569-.7939-1.0273-1.2447-1.8452-1.0477h0Z" style="fill: #ede3b7;"/>
  <path d="M62.6493,44.0621c.1289-.7809.1582-1.5747-.0984-2.3372-.2263-.6725-.5741-1.243-1.0451-1.7717-.336-.3772-.747-.6916-1.1594-.9793-.4095-.2856-.8518-.5462-1.3428-.6615-.81-.1903-1.7657-.1295-2.4739.3477-.6781.4568-1.2222,1.1789-1.1709,2.034.0784,1.3067,1.1389,2.2653,2.1145,3.0008,1.0688.8059,2.3795,1.4036,3.7297,1.4684.7849.0377,1.5351-.7169,1.5-1.5-.0378-.8449-.6591-1.4596-1.5-1.5-.0934-.0045-.1861-.013-.2789-.025l.3988.0536c-.3908-.0565-.7666-.1754-1.1305-.3267l.3583.1512c-.5735-.2444-1.1109-.5657-1.6057-.9444l.3036.2345c-.3555-.2763-.6913-.5816-.9684-.938l.2345.3036c-.1128-.1489-.2139-.3049-.2879-.4769l.1512.3583c-.0337-.0839-.0597-.1688-.0729-.2583l.0536.3988c-.0058-.0524-.0068-.1034-.0016-.156l-.0536.3988c.006-.0409.0155-.0793.0296-.1182l-.1512.3583c.0341-.0802.083-.1521.1353-.2214l-.2345.3036c.0557-.067.1152-.1265.1819-.1824l-.3036.2345c.0973-.0747.1987-.1338.3108-.1834l-.3583.1512c.133-.0532.268-.0883.4096-.1094l-.3988.0536c.1643-.0193.3265-.0186.4908.0006l-.3988-.0536c.1648.024.3226.0656.4774.127l-.3583-.1512c.3378.1461.6561.3776.9463.6015l-.3036-.2345c.2916.2285.5582.4843.7852.7777l-.2345-.3036c.1584.2105.292.4347.3978.6761l-.1512-.3583c.104.2491.1734.5055.2101.7729l-.0536-.3988c.0335.2848.0283.5674-.0082.8517l.0536-.3988c-.0061.0443-.013.0884-.0207.1324-.0676.4096-.0661.7846.1512,1.1558.1821.3112.5389.6079.8964.6893.384.0875.815.0685,1.1558-.1512.3085-.1989.627-.5186.6893-.8964h0Z" style="fill: #ede3b7;"/>
</svg>