<?xml version="1.0" encoding="UTF-8"?>
<svg id="head" xmlns="http://www.w3.org/2000/svg" width="111.5" height="120.8" version="1.1" viewBox="0 0 111.5 120.8">
  <!-- Generator: Adobe Illustrator 29.4.0, SVG Export Plug-In . SVG Version: 2.1.0 Build 152)  -->
  <g>
    <path d="M48.3111,54.4838c12.1546,17.4635-11.0644,41.6228-11.0644,41.6228,6.1368,1.0295,40.8333.4184,40.8333.4184.5534-4.1572-4.5329-5.0039-9-8.3357-5.5566-4.1444-11.2731-17.2338-1.9731-31.0926" style="fill: #ede3b7;"/>
    <path d="M47.3397,55.0516c8.2547,12.0557-.2793,27.3924-8.2432,37.2062-.8472,1.044-1.7141,2.0823-2.6453,3.0533-.5337.5565-.3777,1.7379.4964,1.8803,2.1463.3496,4.3487.3955,6.5175.4668,3.3665.1107,6.7356.1449,10.1036.1622,6.7145.0344,13.4295-.0177,20.1434-.1056,1.456-.0191,2.912-.0392,4.3679-.0648.654-.0115,1.0625-.5093,1.125-1.125.2901-2.8582-1.7479-4.632-4.0066-5.9608-2.4828-1.4607-5.1618-2.6598-7.1245-4.8323-3.7379-4.1375-5.1613-10.1322-4.6779-15.5825.4001-4.5117,2.205-8.7356,4.6824-12.485.8005-1.2116-1.1472-2.3398-1.9428-1.1356-4.0406,6.1153-6.0574,13.4292-4.5748,20.7061,1.0735,5.2687,3.8815,10.0726,8.4736,12.9632,1.5857.9981,3.2935,1.7937,4.8605,2.8208,1.3318.873,2.2293,1.8394,2.0601,3.506l1.125-1.125c-11.0202.1935-22.0604.3366-33.0797.0529-2.396-.0617-5.3888-.0946-7.4546-.4311l.4964,1.8803c2.8084-2.9281,5.2712-6.2752,7.4618-9.679,3.9561-6.147,7.2593-13.2661,7.4452-20.6933.1126-4.4971-1.1211-8.896-3.6667-12.6138-.8131-1.1875-2.7638-.0634-1.9428,1.1356h0Z" style="fill: #352d0a;"/>
  </g>
  <g>
    <path d="M23.7467,54.4838c3.2995,1.7541,54.1081,13.2985,56.9485,13.7409,4.8849.7608,7.7246-.6877,6.9238-4.6047-2.6674-13.0476-11.4663-28.6631-18.1041-35.7093-9.2346-9.8028-28.2225-.6382-45.7682,26.5731" style="fill: #c4313c;"/>
    <path d="M23.1789,55.4552c2.2939,1.1867,5.1419,1.6422,7.6159,2.2857,4.9051,1.2759,9.8326,2.4663,14.7621,3.6432,10.07,2.4043,20.1577,4.7444,30.2699,6.965,3.0778.6759,6.6797,1.823,9.776.8506,1.2704-.399,2.3492-1.1888,2.8925-2.4277.6703-1.5284.2898-3.1717-.0703-4.7275-.9773-4.223-2.4521-8.3163-4.1582-12.2955-3.2023-7.469-7.2899-14.8135-12.545-21.0451-3.1054-3.6824-6.9685-5.9496-11.9089-5.7165-5.6819.268-11.0044,3.1807-15.4768,6.4988-6.708,4.9766-12.2863,11.3483-17.1951,18.0644-1.5187,2.0779-2.9674,4.2049-4.3657,6.3654-.7891,1.2192,1.1579,2.3483,1.9428,1.1356,4.74-7.3239,10.1213-14.3382,16.6141-20.2036,4.3559-3.935,9.4585-7.652,15.2386-9.1079,3.9861-1.0041,8.2976-.5942,11.4379,2.2665,2.2562,2.0554,4.0871,4.6761,5.7888,7.1894,2.2351,3.3009,4.2328,6.7647,6.0257,10.3242,1.9353,3.8423,3.6305,7.81,4.9664,11.9014.6193,1.8969,1.162,3.8207,1.5902,5.7701.2687,1.223.5563,2.7094-.6583,3.5135-2.2985,1.5216-6.3291.124-8.8563-.4291-9.3659-2.0497-18.7078-4.2154-28.037-6.4258-4.9204-1.1658-9.8375-2.3473-14.7396-3.588-3.0516-.7723-6.1576-1.4851-9.1385-2.5073-.1689-.0579-.3373-.117-.504-.1809-.1945-.0745.1818.1004-.1315-.0617-1.2842-.6644-2.4235,1.2765-1.1356,1.9428h0Z" style="fill: #8e0929;"/>
  </g>
  <path d="M37.7117,44.0349c-.6598,1.0196-.9939,2.3128-.9075,3.525.0436.6107.1484,1.2188.3793,1.7875.3172.7812.7126,1.5502,1.533,1.8964,1.5934.6724,2.9474-.7739,3.3447-2.1912.2514-.8968.2303-1.9246-.0538-2.8109-.3711-1.1577-1.1466-2.1873-2.2435-2.7449-.6987-.3552-1.6588-.2066-2.0523.5381-.3613.6839-.2087,1.6726.5381,2.0523.1184.0602.2337.1251.344.1993.1139.0766.2183.2172-.0969-.082.0455.0432.0971.0811.1433.1237.0917.0845.1731.1772.2572.2688.17.1852-.2223-.3192-.0846-.1104.0335.0508.069.0997.1014.1513.0642.102.1225.2077.1749.3163.0558.1157.0974.3227-.0549-.1392.0186.0565.0426.1114.0617.1677.0759.2237.127.4537.1598.6874l-.0536-.3988c.0399.3205.041.6413-.0006.9617l.0536-.3988c-.0208.142-.0481.2825-.0868.4207-.0187.0667-.0404.1323-.0632.1977-.1055.3034.1643-.3227.0543-.1259-.0609.1091-.1419.22-.1952.3315.1577-.1965.185-.2364.0821-.1197-.0371.039-.0763.0757-.1175.1103.2027-.1475.2389-.1821.1086-.1038.2462-.0907.2951-.1179.1467-.0816l.3988-.0536c-.0489.0072-.098.0078-.1471.0016l.3988.0536c-.1542-.0363-.1028-.0092.1544.0812.2036.1724.2501.2063.1394.1016-.073-.0847-.0642-.0717.0264.0389.0858.1145.0975.125.035.0315-.0396-.0808-.0903-.1571-.1312-.2376-.0621-.1219-.1187-.3907.0025.0326-.1038-.3625-.2288-.6968-.2823-1.0746l.0536.3988c-.0493-.398-.0501-.794-.0027-1.1922l-.0536.3988c.0432-.3162.1134-.6268.2193-.9282.042-.1194.1782-.3123-.0346.0624.0389-.0684.0661-.1455.1016-.2159.072-.1424.1531-.2792.2397-.4131.4271-.6601.1559-1.6856-.5381-2.0523-.7462-.3943-1.5965-.1663-2.0523.5381h0Z" style="fill: #ede3b7;"/>
  <path d="M74.1038,49.942c-1.0502.253-2.04.8338-2.796,1.6028-.7363.749-1.3523,1.7551-1.5572,2.7955-.0892.453-.1257.8954.0248,1.3411.1693.5012.5145.945.994,1.1829.6499.3224,1.4136.3475,2.1026.1293,1.0933-.3462,2.0013-1.1326,2.5996-2.1005.7064-1.1428.9326-2.6259.4773-3.9034-.1328-.3726-.3393-.6916-.6893-.8964-.3215-.1882-.7954-.2679-1.1558-.1512-.7268.2352-1.3297,1.0538-1.0477,1.8452.0761.2136.1299.4304.1609.6551l-.0536-.3988c.0296.2565.0282.5105-.0033.7668l.0536-.3988c-.0416.2894-.1193.5669-.2307.8372l.1512-.3583c-.1217.2809-.2746.5419-.4586.7865l.2345-.3036c-.1919.2468-.4092.4678-.6555.6606l.3036-.2345c-.2026.1531-.4174.2826-.6511.3826l.3583-.1512c-.1746.0705-.3521.1212-.5387.148l.3988-.0536c-.1321.0147-.2599.0166-.392,0l.3988.0536c-.0718-.0128-.1389-.0304-.2072-.056l.3583.1512c-.0487-.0224-.0906-.0458-.135-.0758l.3036.2345c-.0421-.0343-.0753-.0673-.1099-.1091l.2345.3036c-.0237-.0316-.0436-.0655-.0597-.1016l.1512.3583c-.0239-.0628-.0383-.1179-.0489-.1842l.0536.3988c-.0066-.0887-.0033-.173.007-.2613l-.0536.3988c.0461-.2851.1376-.5615.2476-.8279l-.1512.3583c.1525-.3547.3473-.6851.5814-.992l-.2345.3036c.2385-.3042.5096-.5763.8128-.816l-.3036.2345c.306-.2354.6355-.4317.9895-.5859l-.3583.1512c.2247-.0941.4544-.1698.6913-.2269.7633-.1839,1.2915-1.0916,1.0477-1.8452-.2569-.7939-1.0273-1.2447-1.8452-1.0477h0Z" style="fill: #ede3b7;"/>
  <path d="M62.6101,48.0618c.1289-.7809.1582-1.5747-.0984-2.3372-.2263-.6725-.5741-1.243-1.0451-1.7717-.336-.3772-.747-.6916-1.1594-.9793-.4095-.2856-.8518-.5462-1.3428-.6615-.81-.1903-1.7657-.1295-2.4739.3477-.6781.4568-1.2222,1.1789-1.1709,2.034.0784,1.3067,1.1389,2.2653,2.1145,3.0008,1.0688.8059,2.3795,1.4036,3.7297,1.4684.7849.0377,1.5351-.7169,1.5-1.5-.0378-.8449-.6591-1.4596-1.5-1.5-.0934-.0045-.1861-.013-.2789-.025l.3988.0536c-.3908-.0565-.7666-.1754-1.1305-.3267l.3583.1512c-.5735-.2444-1.1109-.5657-1.6057-.9444l.3036.2345c-.3555-.2763-.6913-.5816-.9684-.938l.2345.3036c-.1128-.1489-.2139-.3049-.2879-.4769l.1512.3583c-.0337-.0839-.0597-.1688-.0729-.2583l.0536.3988c-.0058-.0524-.0068-.1034-.0016-.156l-.0536.3988c.006-.0409.0155-.0793.0296-.1182l-.1512.3583c.0341-.0802.083-.1521.1353-.2214l-.2345.3036c.0557-.067.1152-.1265.1819-.1824l-.3036.2345c.0973-.0747.1987-.1338.3108-.1834l-.3583.1512c.133-.0532.268-.0883.4096-.1094l-.3988.0536c.1643-.0193.3265-.0186.4908.0006l-.3988-.0536c.1648.024.3226.0656.4774.127l-.3583-.1512c.3378.1461.6561.3776.9463.6015l-.3036-.2345c.2916.2285.5582.4843.7852.7777l-.2345-.3036c.1584.2105.292.4347.3978.6761l-.1512-.3583c.104.2491.1734.5055.2101.7729l-.0536-.3988c.0335.2848.0283.5674-.0082.8517l.0536-.3988c-.0061.0443-.013.0884-.0207.1324-.0676.4096-.0661.7846.1512,1.1558.1821.3112.5389.6079.8964.6893.384.0875.815.0685,1.1558-.1512.3085-.1989.627-.5186.6893-.8964h0Z" style="fill: #ede3b7;"/>
  <path d="M48.9449,32.1428c-.6598,1.0196-.9939,2.3128-.9075,3.525.0436.6107.1484,1.2188.3793,1.7875.3172.7812.7126,1.5502,1.533,1.8964,1.5934.6724,2.9474-.7739,3.3447-2.1912.2514-.8968.2303-1.9246-.0538-2.8109-.3711-1.1577-1.1466-2.1873-2.2435-2.7449-.6987-.3552-1.6588-.2066-2.0523.5381-.3613.6839-.2087,1.6726.5381,2.0523.1184.0602.2337.1251.344.1993.1139.0766.2183.2172-.0969-.082.0455.0432.0971.0811.1433.1237.0917.0845.1731.1772.2572.2688.17.1852-.2223-.3192-.0846-.1104.0335.0508.069.0997.1014.1513.0642.102.1225.2077.1749.3163.0558.1157.0974.3227-.0549-.1392.0186.0565.0426.1114.0617.1677.0759.2237.127.4537.1598.6874l-.0536-.3988c.0399.3205.041.6413-.0006.9617l.0536-.3988c-.0208.142-.0481.2825-.0868.4207-.0187.0667-.0404.1323-.0632.1977-.1055.3034.1643-.3227.0543-.1259-.0609.1091-.1419.22-.1952.3315.1577-.1965.185-.2364.0821-.1197-.0371.039-.0763.0757-.1175.1103.2027-.1475.2389-.1821.1086-.1038.2462-.0907.2951-.1179.1467-.0816l.3988-.0536c-.0489.0072-.098.0078-.1471.0016l.3988.0536c-.1542-.0363-.1028-.0092.1544.0812.2036.1724.2501.2063.1394.1016-.073-.0847-.0642-.0717.0264.0389.0858.1145.0975.125.035.0315-.0396-.0808-.0903-.1571-.1312-.2376-.0621-.1219-.1187-.3907.0025.0326-.1038-.3625-.2288-.6968-.2823-1.0746l.0536.3988c-.0493-.398-.0501-.794-.0027-1.1922l-.0536.3988c.0432-.3162.1134-.6268.2193-.9282.042-.1194.1782-.3123-.0346.0624.0389-.0684.0661-.1455.1016-.2159.072-.1424.1531-.2792.2397-.4131.4271-.6601.1559-1.6856-.5381-2.0523-.7462-.3943-1.5965-.1663-2.0523.5381h0Z" style="fill: #ede3b7;"/>
</svg>