<?xml version="1.0" encoding="UTF-8"?>
<svg id="head" xmlns="http://www.w3.org/2000/svg" width="111.5" height="120.8" version="1.1" viewBox="0 0 111.5 120.8">
  <!-- Generator: Adobe Illustrator 29.4.0, SVG Export Plug-In . SVG Version: 2.1.0 Build 152)  -->
  <g>
    <path d="M63.1889,54.4838c11.0644,1.9261,11.0644,41.6228,11.0644,41.6228-6.1368,1.0295-40.8333.4184-40.8333.4184-.5534-4.1572,4.5329-5.0039,9-8.3357,5.5566-4.1444,11.2731-17.2338,1.9731-31.0926" style="fill: #ede3b7;"/>
    <path d="M62.8898,55.5686c2.3674.4464,3.8289,2.7252,4.8462,4.7895,1.5183,3.0811,2.3547,6.51,3.0329,9.8603,1.4105,6.9671,1.9845,14.1103,2.2514,21.2052.0587,1.5598.1074,3.1218.108,4.6829l.8259-1.0848c-.5317.0866-1.6145.176-2.433.2279-1.3034.0827-2.6089.1321-3.9143.1721-3.314.1017-6.6301.1343-9.9454.1499-6.6246.0313-13.2497-.0202-19.8737-.1069-1.456-.0191-2.912-.0392-4.3679-.0648l1.125,1.125c-.3142-3.0953,3.5523-4.3552,5.7383-5.6171,2.3391-1.3503,4.3277-2.8882,5.9317-5.0688,3.533-4.8029,4.7836-11.1142,3.9933-16.9605-.6019-4.4523-2.3774-8.6169-4.8438-12.3498-.7948-1.2029-2.7441-.0772-1.9428,1.1356,3.9805,6.0243,5.9382,13.287,4.0119,20.3923-.6727,2.4814-1.7789,4.8955-3.3725,6.9253-1.7394,2.2157-4.117,3.5484-6.5457,4.8957-2.6195,1.4531-5.5686,3.2164-5.2204,6.6472.0623.6138.4652,1.1134,1.125,1.125,11.1691.1962,22.361.3495,33.5288.0409,2.5264-.0698,5.103-.0922,7.6036-.4995.4797-.0781.8261-.6299.8259-1.0848-.0018-4.6851-.2788-9.3861-.7038-14.0497-.6851-7.5166-1.5746-15.5824-4.8285-22.487-1.2558-2.6648-3.255-5.5858-6.3581-6.1709-1.4152-.2669-2.0216,1.9012-.5981,2.1696h0Z" style="fill: #352d0a;"/>
  </g>
  <g>
    <path d="M87.7533,54.4838c-3.2995,1.7541-54.1081,13.2985-56.9485,13.7409-4.8849.7608-7.7246-.6877-6.9238-4.6047,2.6674-13.0476,11.4663-28.6631,18.1041-35.7093,9.2346-9.8028,28.2225-.6382,45.7682,26.5731" style="fill: #c4313c;"/>
    <path d="M87.1855,53.5124c-.3022.1563.0253.0008-.1036.0508-.1884.0731-.3791.1398-.5704.2049-.5006.1703-1.0079.3216-1.5151.4706-1.5315.4501-3.0751.8592-4.6195,1.2623-4.5773,1.1949-9.1755,2.3103-13.7757,3.413-9.8153,2.3527-19.6501,4.6294-29.5033,6.8185-2.3206.5156-4.6807,1.1928-7.0472,1.4689-1.35.1575-3.1948.3051-4.3655-.5585-1.1197-.8259-.8241-2.275-.5649-3.4513.8966-4.07,2.2593-8.0383,3.8733-11.8767,3.0341-7.216,6.9303-14.3586,11.8942-20.4399,1.4555-1.7831,2.9662-3.4944,5.0517-4.5406,1.775-.8904,3.7783-1.19,5.7475-1.0971,5.3177.2508,10.3104,3.1813,14.4679,6.2856,6.4387,4.8076,11.8308,11.0529,16.5268,17.5279,1.4227,1.9617,2.7836,3.9664,4.1001,6.0007.784,1.2114,2.7327.0848,1.9428-1.1356-4.9308-7.6186-10.5497-14.9598-17.3556-21.0085-4.6011-4.0892-9.9852-7.9294-16.0634-9.3916-4.4628-1.0736-9.165-.5581-12.8111,2.3911-2.3943,1.9366-4.2818,4.6376-6.0354,7.1384-2.4082,3.4343-4.5409,7.0643-6.45,10.7976-2.017,3.9444-3.7951,8.0275-5.2169,12.2249-.6853,2.0232-1.2849,4.0769-1.7597,6.1601-.3511,1.5404-.6803,3.149.0152,4.6457,1.7925,3.8576,7.1476,2.6573,10.4999,1.9379,9.4193-2.0215,18.8046-4.2144,28.1805-6.4269,5.2639-1.2422,10.5244-2.5012,15.769-3.8232,3.2454-.818,6.5621-1.56,9.7269-2.6626.3711-.1293.7477-.2628,1.0972-.4436,1.2865-.6655.1499-2.6078-1.1356-1.9428h0Z" style="fill: #8e0929;"/>
  </g>
  <path d="M71.1979,45.549c.0867.1339.1677.2707.2397.4131.036.0711.0663.1446.1016.2159-.1994-.4026-.0724-.1694-.0346-.0624.1064.3012.1761.612.2193.9282l-.0536-.3988c.0474.3983.0466.7942-.0027,1.1922l.0536-.3988c-.0535.3775-.1786.7122-.2823,1.0746.1182-.4127.0773-.1821.0206-.0681-.0463.0931-.1019.1809-.1493.2731-.114.2217.2503-.255.0614-.0703-.1107.1047-.0642.0708.1394-.1016.2572-.0904.3086-.1175.1544-.0812l.3988-.0536c-.0491.0062-.0981.0056-.1471-.0016l.3988.0536c-.1484-.0362-.0995-.009.1467.0816-.1304-.0783-.0942-.0437.1086.1038-.0412-.0346-.0804-.0713-.1175-.1103-.1029-.1167-.0756-.0768.0821.1197-.0533-.1115-.1343-.2225-.1952-.3315-.11-.1968.1598.4293.0543.1259-.0228-.0654-.0445-.131-.0632-.1977-.0388-.1382-.0661-.2788-.0868-.4207l.0536.3988c-.0415-.3204-.0404-.6412-.0006-.9617l-.0536.3988c.0328-.2337.0839-.4638.1598-.6874.0191-.0563.0431-.1113.0617-.1677-.1478.448-.1123.258-.0549.1392.0524-.1085.1107-.2143.1749-.3163.0324-.0514.0675-.1008.1014-.1513.1316-.1959-.2532.2964-.0846.1104.0837-.0923.1654-.1843.2572-.2688.0189-.0174.1451-.1205.1433-.1237.0105.0198-.3549.2448-.1236.1004.1226-.0765.2415-.152.3707-.2177.7008-.3563.9593-1.3989.5381-2.0523-.4614-.7156-1.3027-.9192-2.0523-.5381-1.9344.9834-2.7587,3.2708-2.3526,5.3228.2463,1.2446,1.2245,2.5936,2.6068,2.5962,1.6154.003,2.4271-1.8108,2.6239-3.1797.2092-1.4554-.0155-2.949-.8258-4.2012-.4258-.658-1.35-.9909-2.0523-.5381-.6575.4239-.9941,1.3476-.5381,2.0523h0Z" style="fill: #ede3b7;"/>
  <path d="M36.5987,52.8349c.2369.0571.4665.1328.6913.2269l-.3583-.1512c.354.1542.6835.3504.9895.5859l-.3036-.2345c.3032.2397.5743.5119.8128.816l-.2345-.3036c.2342.3069.429.6372.5814.992l-.1512-.3583c.11.2664.2015.5428.2476.8279l-.0536-.3988c.0103.0883.0136.1726.007.2613l.0536-.3988c-.0106.0663-.025.1214-.0489.1842l.1512-.3583c-.0162.0361-.0361.0699-.0597.1016l.2345-.3036c-.0347.0418-.0679.0748-.1099.1091l.3036-.2345c-.0444.03-.0864.0534-.135.0758l.3583-.1512c-.0683.0256-.1354.0432-.2072.056l.3988-.0536c-.1321.0166-.2598.0147-.392,0l.3988.0536c-.1865-.0267-.3641-.0775-.5387-.148l.3583.1512c-.2336-.1-.4485-.2295-.6511-.3826l.3036.2345c-.2462-.1928-.4635-.4138-.6555-.6606l.2345.3036c-.184-.2446-.3369-.5056-.4586-.7865l.1512.3583c-.1114-.2702-.1891-.5477-.2307-.8372l.0536.3988c-.0315-.2562-.0329-.5103-.0033-.7668l-.0536.3988c.0311-.2247.0848-.4414.1609-.6551.125-.3507.0315-.8437-.1512-1.1558-.1821-.3112-.5389-.6079-.8964-.6893-.8415-.1917-1.5628.2552-1.8452,1.0477-.4282,1.2015-.2402,2.5192.3278,3.6376.4527.8913,1.2587,1.7226,2.1759,2.1348.6793.3053,1.3655.4542,2.1103.3094.9725-.1891,1.646-1.0622,1.6668-2.0375.0142-.6643-.2519-1.3301-.5256-1.9205-.228-.4918-.5554-.9362-.9083-1.3452-.766-.8878-1.8627-1.5519-3.0018-1.8263-.7614-.1834-1.6613.2403-1.8452,1.0477-.1757.7714.2317,1.6486,1.0477,1.8452h0Z" style="fill: #ede3b7;"/>
  <path d="M51.7828,47.2643c-.0077-.044-.0146-.0882-.0207-.1324l.0536.3988c-.0365-.2843-.0418-.5669-.0082-.8517l-.0536.3988c.0367-.2674.1061-.5238.2101-.7729l-.1512.3583c.1058-.2414.2394-.4656.3978-.6761l-.2345.3036c.227-.2934.4936-.5492.7852-.7777l-.3036.2345c.2903-.224.6085-.4554.9463-.6015l-.3583.1512c.1548-.0614.3127-.103.4774-.127l-.3988.0536c.1643-.0192.3265-.02.4908-.0006l-.3988-.0536c.1416.0211.2766.0562.4096.1094l-.3583-.1512c.1121.0497.2135.1087.3108.1834l-.3036-.2345c.0668.056.1262.1155.1819.1824l-.2345-.3036c.0523.0692.1013.1412.1353.2214l-.1512-.3583c.0141.0389.0236.0773.0296.1182l-.0536-.3988c.0052.0525.0042.1035-.0016.156l.0536-.3988c-.0132.0896-.0392.1744-.0729.2583l.1512-.3583c-.074.172-.1751.3279-.2879.4769l.2345-.3036c-.277.3564-.6129.6617-.9684.938l.3036-.2345c-.4948.3787-1.0322.7-1.6057.9444l.3583-.1512c-.3639.1513-.7397.2702-1.1305.3267l.3988-.0536c-.0928.012-.1854.0205-.2789.025-.7826.0376-1.5375.663-1.5,1.5.035.7805.6605,1.5403,1.5,1.5,1.226-.0588,2.4163-.5602,3.4217-1.2466.9599-.6554,1.9482-1.4993,2.3242-2.6399.259-.7858.0042-1.5831-.5376-2.1789-.5523-.6073-1.4445-.9249-2.256-.8885-1.1699.0525-2.2101.7217-3.0352,1.5155-.5415.5209-.9261,1.1365-1.202,1.8298-.3198.8036-.2998,1.6695-.1615,2.5073.0575.3485.3971.7254.6893.8964.3215.1882.7954.2679,1.1558.1512.363-.1175.7131-.3424.8964-.6893.1994-.3775.2204-.7364.1512-1.1558h0Z" style="fill: #ede3b7;"/>
  <path d="M59.9647,33.657c.0867.1339.1677.2707.2397.4131.036.0711.0663.1446.1016.2159-.1994-.4026-.0724-.1694-.0346-.0624.1064.3012.1761.612.2193.9282l-.0536-.3988c.0474.3983.0466.7942-.0027,1.1922l.0536-.3988c-.0535.3775-.1786.7122-.2823,1.0746.1182-.4127.0773-.1821.0206-.0681-.0463.0931-.1019.1809-.1493.2731-.114.2217.2503-.255.0614-.0703-.1107.1047-.0642.0708.1394-.1016.2572-.0904.3086-.1175.1544-.0812l.3988-.0536c-.0491.0062-.0981.0056-.1471-.0016l.3988.0536c-.1484-.0362-.0995-.009.1467.0816-.1304-.0783-.0942-.0437.1086.1038-.0412-.0346-.0804-.0713-.1175-.1103-.1029-.1167-.0756-.0768.0821.1197-.0533-.1115-.1343-.2225-.1952-.3315-.11-.1968.1598.4293.0543.1259-.0228-.0654-.0445-.131-.0632-.1977-.0388-.1382-.0661-.2788-.0868-.4207l.0536.3988c-.0415-.3204-.0404-.6412-.0006-.9617l-.0536.3988c.0328-.2337.0839-.4638.1598-.6874.0191-.0563.0431-.1113.0617-.1677-.1478.448-.1123.258-.0549.1392.0524-.1085.1107-.2143.1749-.3163.0324-.0514.0675-.1008.1014-.1513.1316-.1959-.2532.2964-.0846.1104.0837-.0923.1654-.1843.2572-.2688.0189-.0174.1451-.1205.1433-.1237.0105.0198-.3549.2448-.1236.1004.1226-.0765.2415-.152.3707-.2177.7008-.3563.9593-1.3989.5381-2.0523-.4614-.7156-1.3027-.9192-2.0523-.5381-1.9344.9834-2.7587,3.2708-2.3526,5.3228.2463,1.2446,1.2245,2.5936,2.6068,2.5962,1.6154.003,2.4271-1.8108,2.6239-3.1797.2092-1.4554-.0155-2.949-.8258-4.2012-.4258-.658-1.35-.9909-2.0523-.5381-.6575.4239-.9941,1.3476-.5381,2.0523h0Z" style="fill: #ede3b7;"/>
</svg>