<?xml version="1.0" encoding="UTF-8"?>
<svg id="head" xmlns="http://www.w3.org/2000/svg" width="111.5" height="120.8" version="1.1" viewBox="0 0 111.5 120.8">
  <!-- Generator: Adobe Illustrator 29.4.0, SVG Export Plug-In . SVG Version: 2.1.0 Build 152)  -->
  <g>
    <path d="M91.1677,104.4337c1.4478,0,1.4502-2.25,0-2.25-1.4478,0-1.4502,2.25,0,2.25h0Z" style="fill: #352d0a;"/>
    <g>
      <path d="M91.1677,103.3087c.5534-5.8596-1.7006-11.9287-5.9194-15.9387-5.7472-5.4628-14.3127-6.8432-20.2447-12.0959-5.0829-4.5009-7.6841-11.7527-6.6514-18.5429.4896-3.219,1.94-6.5373,4.7486-8.0799l-11.5877-1.1263c-5.6538,5.6248-8.8361,13.7511-8.54,21.8075s4.0658,15.9161,10.1165,21.092c1.6878,1.4438,3.6222,2.7914,4.4681,4.8676,1.1108,2.7264-.2948,6.2384-2.9572,7.3889,6.1368,1.4511,36.5672.6277,36.5672.6277Z" style="fill: #ede3b7;"/>
      <path d="M92.2927,103.3087c.387-4.6205-.7971-9.3485-3.3437-13.2298-2.5347-3.8632-6.2957-6.4248-10.3693-8.4578-4.1191-2.0557-8.5887-3.6917-12.1887-6.6379-3.5547-2.9091-5.8991-7.0478-6.7812-11.5389-.8988-4.5756-.4383-11.2007,4.0589-13.8215,1.0311-.6009.4886-1.9937-.5678-2.0964-2.8856-.2805-5.7712-.561-8.6568-.8414-.9336-.0907-1.9936-.3548-2.9309-.2849-1.1463.0855-2.2742,1.8944-2.9228,2.7067-.9757,1.222-1.8659,2.5081-2.6442,3.8649-6.2075,10.8204-5.1784,24.5127,2.5568,34.2906,1.0548,1.3334,2.2197,2.5765,3.4954,3.7011,1.2089,1.0656,2.577,2.0053,3.6045,3.2604,2.004,2.4478,1.3609,6.1001-1.5702,7.4859-.8751.4138-.636,1.8486.2687,2.0562,1.9848.4555,4.0768.5398,6.1032.6449,3.0347.1574,6.0749.2104,9.1132.2381,5.9237.054,11.8487-.0109,17.7712-.1277,1.2929-.0255,2.5859-.0526,3.8786-.0874,1.445-.039,1.4508-2.2891,0-2.25-9.7865.2639-19.6157.4435-29.3996.04-2.2781-.094-4.659-.1204-6.8685-.6275l.2687,2.0562c3.177-1.5021,4.7335-5.54,3.4175-8.7938-.7645-1.8901-2.3124-3.2395-3.8424-4.512-1.5992-1.3301-3.097-2.7453-4.4044-4.3685-5.5345-6.8715-7.5706-16.1829-5.3568-24.7213,1.2654-4.8804,3.7776-9.3535,7.3264-12.9364l-.7955.3295c3.8626.3754,7.7251.7509,11.5877,1.1263l-.5678-2.0964c-3.9812,2.3201-5.4108,7.1644-5.5219,11.5179-.1178,4.6167,1.279,9.3164,3.9052,13.1157,2.7664,4.0021,6.7504,6.5564,11.0603,8.6485,4.3009,2.0878,8.9555,3.8577,12.4761,7.2035,4.0879,3.885,6.0571,9.564,5.5899,15.1432-.1208,1.4429,2.1298,1.4349,2.25,0Z" style="fill: #352d0a;"/>
    </g>
  </g>
  <g>
    <path d="M87.6634,58.6281c.448-12.578-15.1547-32.2968-25.3629-39.6587-11.093-8-18.0984,3.7417-28.2734,11.1495-1.3988,1.0184-2.7177,2.1431-3.9876,3.3182-4.1184,3.8111-13.452,12.0748-8.2551,14.1909,11.8217,4.8136,31.1272-2.5614,47.2106,2.8969,11.2362,3.8133,18.6685,8.1032,18.6685,8.1032Z" style="fill: #c4313c;"/>
    <path d="M88.7884,58.6281c.1439-5.3135-2.0114-10.5391-4.4459-15.1557-2.9282-5.5529-6.671-10.6969-10.7932-15.4206-3.5496-4.0675-7.6093-8.4584-12.3649-11.1368-2.529-1.4244-5.3537-2.0653-8.2303-1.5553-2.7066.4799-5.1654,1.9558-7.3356,3.5804-2.56,1.9164-4.8942,4.1069-7.2903,6.2188-2.8295,2.4939-5.9494,4.6265-8.7368,7.1636-1.9019,1.7311-3.8007,3.4767-5.5807,5.3342-1.6536,1.7255-3.4011,3.6162-4.3702,5.8309-.7542,1.7236-.737,3.7368,1.0207,4.8291,2.2215,1.3805,5.3467,1.7288,7.8916,1.971,6.8193.6488,13.7139-.3291,20.5266-.6406,3.633-.1661,7.2822-.1986,10.906.1501,3.8753.3729,7.5326,1.3572,11.1831,2.6806,5.1975,1.8842,10.3235,4.0714,15.1864,6.7113.248.1346.496.2697.7406.4105,1.2572.7236,2.3916-1.2199,1.1356-1.9428-2.9788-1.7145-6.1403-3.1518-9.2943-4.506-6.515-2.7972-13.0586-5.1867-20.1801-5.7073-6.7747-.4953-13.5465.2351-20.3068.611-3.1215.1736-6.263.2822-9.3834.0288-1.3939-.1132-2.7783-.3109-4.1389-.6375-.9461-.2271-2.4463-.4486-3.1994-1.1152-1.1297-.9998.6248-3.201,1.2383-4.0363,1.4873-2.0251,3.3283-3.8057,5.1453-5.5308,4.5292-4.3002,9.5457-8.0005,14.2098-12.1521,3.7589-3.3459,8.5232-7.9654,14.0324-7.0993,2.776.4364,5.1236,2.128,7.2437,3.8726,1.9778,1.6276,3.8351,3.4012,5.608,5.2485,4.0744,4.2455,7.745,8.907,10.8527,13.9055,2.8197,4.5353,5.4032,9.5315,6.2702,14.8576.174,1.0688.239,2.1499.2097,3.232-.0392,1.4484,2.2108,1.4474,2.25,0Z" style="fill: #8e0929;"/>
  </g>
  <path d="M77.65,47.484c.1289-.7809.1582-1.5747-.0984-2.3372-.2263-.6725-.5741-1.243-1.0451-1.7717-.336-.3772-.747-.6916-1.1594-.9793-.4095-.2856-.8518-.5462-1.3428-.6615-.81-.1903-1.7657-.1295-2.4739.3477-.6781.4568-1.2222,1.1789-1.1709,2.034.0784,1.3067,1.1389,2.2653,2.1145,3.0008,1.0688.8059,2.3795,1.4036,3.7297,1.4684.7849.0377,1.5351-.7169,1.5-1.5-.0378-.8449-.6591-1.4596-1.5-1.5-.0934-.0045-.1861-.013-.2789-.025l.3988.0536c-.3908-.0565-.7666-.1754-1.1305-.3267l.3583.1512c-.5735-.2444-1.1109-.5657-1.6057-.9444l.3036.2345c-.3555-.2763-.6913-.5816-.9684-.938l.2345.3036c-.1128-.1489-.2139-.3049-.2879-.4769l.1512.3583c-.0337-.0839-.0597-.1688-.0729-.2583l.0536.3988c-.0058-.0524-.0068-.1034-.0016-.156l-.0536.3988c.006-.0409.0155-.0793.0296-.1182l-.1512.3583c.0341-.0802.083-.1521.1353-.2214l-.2345.3036c.0557-.067.1152-.1265.1819-.1824l-.3036.2345c.0973-.0747.1987-.1338.3108-.1834l-.3583.1512c.133-.0532.268-.0883.4096-.1094l-.3988.0536c.1643-.0193.3265-.0186.4908.0006l-.3988-.0536c.1648.024.3226.0656.4774.127l-.3583-.1512c.3378.1461.6561.3776.9463.6015l-.3036-.2345c.2916.2285.5582.4843.7852.7777l-.2345-.3036c.1584.2105.292.4347.3978.6761l-.1512-.3583c.104.2491.1734.5055.2101.7729l-.0536-.3988c.0335.2848.0283.5674-.0082.8517l.0536-.3988c-.0061.0443-.013.0884-.0207.1324-.0676.4096-.0661.7846.1512,1.1558.1821.3112.5389.6079.8964.6893.384.0875.815.0685,1.1558-.1512.3085-.1989.627-.5186.6893-.8964h0Z" style="fill: #ede3b7;"/>
  <path d="M34.2072,34.0744c-.6598,1.0196-.9939,2.3128-.9075,3.525.0436.6107.1484,1.2188.3793,1.7875.3172.7812.7126,1.5502,1.533,1.8964,1.5934.6724,2.9474-.7739,3.3447-2.1912.2514-.8968.2303-1.9246-.0538-2.8109-.3711-1.1577-1.1466-2.1873-2.2435-2.7449-.6987-.3552-1.6588-.2066-2.0523.5381-.3613.6839-.2087,1.6726.5381,2.0523.1184.0602.2337.1251.344.1993.1139.0766.2183.2172-.0969-.082.0455.0432.0971.0811.1433.1237.0917.0845.1731.1772.2572.2688.17.1852-.2223-.3192-.0846-.1104.0335.0508.069.0997.1014.1513.0642.102.1225.2077.1749.3163.0558.1157.0974.3227-.0549-.1392.0186.0565.0426.1114.0617.1677.0759.2237.127.4537.1598.6874l-.0536-.3988c.0399.3205.041.6413-.0006.9617l.0536-.3988c-.0208.142-.0481.2825-.0868.4207-.0187.0667-.0404.1323-.0632.1977-.1055.3034.1643-.3227.0543-.1259-.0609.1091-.1419.22-.1952.3315.1577-.1965.185-.2364.0821-.1197-.0371.039-.0763.0757-.1175.1103.2027-.1475.2389-.1821.1086-.1038.2462-.0907.2951-.1179.1467-.0816l.3988-.0536c-.0489.0072-.098.0078-.1471.0016l.3988.0536c-.1542-.0363-.1028-.0092.1544.0812.2036.1724.2501.2063.1394.1016-.073-.0847-.0642-.0717.0264.0389.0858.1145.0975.125.035.0315-.0396-.0808-.0903-.1571-.1312-.2376-.0621-.1219-.1187-.3907.0025.0326-.1038-.3625-.2288-.6968-.2823-1.0746l.0536.3988c-.0493-.398-.0501-.794-.0027-1.1922l-.0536.3988c.0432-.3162.1134-.6268.2193-.9282.042-.1194.1782-.3123-.0346.0624.0389-.0684.0661-.1455.1016-.2159.072-.1424.1531-.2792.2397-.4131.4271-.6601.1559-1.6856-.5381-2.0523-.7462-.3943-1.5965-.1663-2.0523.5381h0Z" style="fill: #ede3b7;"/>
  <path d="M58.6862,36.0114c-1.0502.253-2.04.8338-2.796,1.6028-.7363.749-1.3523,1.7551-1.5572,2.7955-.0892.453-.1257.8954.0248,1.3411.1693.5012.5145.945.994,1.1829.6499.3224,1.4136.3475,2.1026.1293,1.0933-.3462,2.0013-1.1326,2.5996-2.1005.7064-1.1428.9326-2.6259.4773-3.9034-.1328-.3726-.3393-.6916-.6893-.8964-.3215-.1882-.7954-.2679-1.1558-.1512-.7268.2352-1.3297,1.0538-1.0477,1.8452.0761.2136.1299.4304.1609.6551l-.0536-.3988c.0296.2565.0282.5105-.0033.7668l.0536-.3988c-.0416.2894-.1193.5669-.2307.8372l.1512-.3583c-.1217.2809-.2746.5419-.4586.7865l.2345-.3036c-.1919.2468-.4092.4678-.6555.6606l.3036-.2345c-.2026.1531-.4174.2826-.6511.3826l.3583-.1512c-.1746.0705-.3521.1212-.5387.148l.3988-.0536c-.1321.0147-.2599.0166-.392,0l.3988.0536c-.0718-.0128-.1389-.0304-.2072-.056l.3583.1512c-.0487-.0224-.0906-.0458-.135-.0758l.3036.2345c-.0421-.0343-.0753-.0673-.1099-.1091l.2345.3036c-.0237-.0316-.0436-.0655-.0597-.1016l.1512.3583c-.0239-.0628-.0383-.1179-.0489-.1842l.0536.3988c-.0066-.0887-.0033-.173.007-.2613l-.0536.3988c.0461-.2851.1376-.5615.2476-.8279l-.1512.3583c.1525-.3547.3473-.6851.5814-.992l-.2345.3036c.2385-.3042.5096-.5763.8128-.816l-.3036.2345c.306-.2354.6355-.4317.9895-.5859l-.3583.1512c.2247-.0941.4544-.1698.6913-.2269.7633-.1839,1.2915-1.0916,1.0477-1.8452-.2569-.7939-1.0273-1.2447-1.8452-1.0477h0Z" style="fill: #ede3b7;"/>
  <path d="M57.5561,29.8744c.1289-.7809.1582-1.5747-.0984-2.3372-.2263-.6725-.5741-1.243-1.0451-1.7717-.336-.3772-.747-.6916-1.1594-.9793-.4095-.2856-.8518-.5462-1.3428-.6615-.81-.1903-1.7657-.1295-2.4739.3477-.6781.4568-1.2222,1.1789-1.1709,2.034.0784,1.3067,1.1389,2.2653,2.1145,3.0008,1.0688.8059,2.3795,1.4036,3.7297,1.4684.7849.0377,1.5351-.7169,1.5-1.5-.0378-.8449-.6591-1.4596-1.5-1.5-.0934-.0045-.1861-.013-.2789-.025l.3988.0536c-.3908-.0565-.7666-.1754-1.1305-.3267l.3583.1512c-.5735-.2444-1.1109-.5657-1.6057-.9444l.3036.2345c-.3555-.2763-.6913-.5816-.9684-.938l.2345.3036c-.1128-.1489-.2139-.3049-.2879-.4769l.1512.3583c-.0337-.0839-.0597-.1688-.0729-.2583l.0536.3988c-.0058-.0524-.0068-.1034-.0016-.156l-.0536.3988c.006-.0409.0155-.0793.0296-.1182l-.1512.3583c.0341-.0802.083-.1521.1353-.2214l-.2345.3036c.0557-.067.1152-.1265.1819-.1824l-.3036.2345c.0973-.0747.1987-.1338.3108-.1834l-.3583.1512c.133-.0532.268-.0883.4096-.1094l-.3988.0536c.1643-.0193.3265-.0186.4908.0006l-.3988-.0536c.1648.024.3226.0656.4774.127l-.3583-.1512c.3378.1461.6561.3776.9463.6015l-.3036-.2345c.2916.2285.5582.4843.7852.7777l-.2345-.3036c.1584.2105.292.4347.3978.6761l-.1512-.3583c.104.2491.1734.5055.2101.7729l-.0536-.3988c.0335.2848.0283.5674-.0082.8517l.0536-.3988c-.0061.0443-.013.0884-.0207.1324-.0676.4096-.0661.7846.1512,1.1558.1821.3112.5389.6079.8964.6893.384.0875.815.0685,1.1558-.1512.3085-.1989.627-.5186.6893-.8964h0Z" style="fill: #ede3b7;"/>
</svg>