<?xml version="1.0" encoding="UTF-8"?>
<svg xmlns="http://www.w3.org/2000/svg" width="595.2756" height="841.8898" version="1.1" viewBox="0 0 595.2756 841.8898">
  <!-- Generator: Adobe Illustrator 29.4.0, SVG Export Plug-In . SVG Version: 2.1.0 Build 152)  -->
  <g id="right_leg">
    <g>
      <g>
        <path d="M340.32,564.3062c33.3102,56.9789,46.6796,132.4803,60.1854,197.9605,17.7549-3.8068,35.5099-7.6136,53.2648-11.4203,4.7188-1.0118,10.0859-2.6418,11.6578-7.9535,1.6196-5.4729-1.8403-12.0554-6.0623-15.965-11.8197-10.945-35.2068-.3008-46.6624,8.0659-.3435-54.0327-15.058-121.6409-35.2118-172.8257" style="fill: #fff;"/>
        <path d="M336.4343,566.5774c34.672,59.7508,45.985,130.1522,59.7318,196.8856.5102,2.477,3.2859,3.6253,5.5355,3.143,16.4867-3.5349,32.9735-7.0697,49.4602-10.6046,5.5419-1.1882,11.5855-2.221,15.627-6.5852,4.1124-4.4406,4.229-10.9049,2.1378-16.2883-9.9483-25.6106-42.3308-13.5962-58.4947-2.0198,2.2571,1.2952,4.5142,2.5904,6.7712,3.8856-.5212-58.9544-13.9237-119.2439-35.3726-174.0219-2.0883-5.3332-10.7948-3.0121-8.6785,2.3926,21.1687,54.0623,34.5367,113.4411,35.0511,171.6294.0279,3.1605,3.8994,5.9424,6.7712,3.8856,10.8154-7.7459,39.2751-22.2578,45.8056-1.9356,1.7648,5.4919-1.6275,7.8683-6.4143,9.1438-5.5874,1.4889-11.3561,2.4703-17.0103,3.6825-12.6821,2.7191-25.3642,5.4383-38.0463,8.1574,1.8452,1.0477,3.6904,2.0953,5.5355,3.143-13.9135-67.5429-25.5471-138.5608-60.6391-199.0355-2.9059-5.0077-10.6867-.4817-7.7712,4.5425h0Z"/>
      </g>
      <g>
        <path d="M440.926,755.4356c-4.9892-6.274-11.9725-10.0969-18.9192-10.357" style="fill: #fff;"/>
        <path d="M443.0473,753.3143c-5.3433-6.4468-12.6114-10.6938-21.0405-11.2356-3.8555-.2479-3.8405,5.7531,0,6,6.8753.442,12.5014,4.2946,16.7978,9.4783,2.4662,2.9755,6.6904-1.2894,4.2426-4.2426h0Z"/>
      </g>
      <g>
        <path d="M451.5875,747.88c.1017-.7305-.5176-1.332-1.0585-1.721-4.1605-2.9918-8.6239-5.3048-13.2247-6.8531" style="fill: #fff;"/>
        <path d="M454.4804,747.0825c-.4948-3.1059-4.242-4.8469-6.6925-6.2762-3.0701-1.7907-6.3325-3.2252-9.686-4.3932-3.6539-1.2727-5.2244,4.5215-1.595,5.7857,2.2417.7808,4.406,1.6993,6.5023,2.8144,1.1796.6275,5.4834,2.395,5.6856,3.6644.6058,3.8027,6.3884,2.1885,5.7857-1.595h0Z"/>
      </g>
    </g>
  </g>
  <g id="left_leg">
    <g>
      <g>
        <path d="M219.8666,541.3868c-59.6374,28.2763-101.715,77.3846-149.7896,123.8485-12.5171-13.1549-25.0342-26.3099-37.5513-39.4648-3.3267-3.4963-6.8402-7.8686-5.1435-13.1418,1.7482-5.4332,8.3171-8.9187,14.0085-9.767,15.9329-2.3748,29.2463,19.6027,33.9899,32.9717,30.7495-44.431,86.3777-98.179,131.8826-129.0881" style="fill: #fff;"/>
        <path d="M217.5954,537.5012c-59.8332,28.6211-103.8608,79.2121-150.7004,124.5521h6.364c-8.7173-9.1615-17.4345-18.3229-26.1518-27.4844-4.1236-4.3338-8.4803-8.5353-12.3977-13.0556-4.2786-4.9371-3.7724-9.6939,2.3203-12.6561,16.529-8.036,29.4863,15.768,34.0116,28.1724,1.3669,3.7468,5.9499,4.3454,8.2249,1.075,17.3348-24.9205,38.0019-47.5417,59.7048-68.7036,21.9109-21.3647,45.2601-41.5072,70.5634-58.7701,4.7564-3.245.2592-11.0471-4.5425-7.7712-25.9316,17.6915-49.9289,38.2812-72.3849,60.1773-22.259,21.7042-43.335,44.9689-61.1121,70.5251,2.7416.3583,5.4832.7166,8.2249,1.075-6.6607-18.2579-24.369-45.3296-47.2326-33.5511-5.0647,2.6092-9.4208,7.2093-9.9632,13.0976-.6107,6.6301,3.9177,11.7009,8.1607,16.1783,12.0442,12.7095,24.1402,25.3703,36.2102,38.0553,1.6951,1.7815,4.6492,1.6598,6.364,0,46.3136-44.8309,89.7166-94.8447,148.8789-123.1448,5.2227-2.4982.6621-10.2608-4.5425-7.7712h0Z"/>
      </g>
      <g>
        <path d="M32.3764,623.388c7.9232-1.2156,15.645.7222,20.9199,5.2497" style="fill: #fff;"/>
        <path d="M32.3764,626.388c6.6583-.8678,13.431.0358,18.7986,4.3711,2.9773,2.4047,7.2483-1.815,4.2426-4.2426-6.5959-5.3275-14.6776-7.2185-23.0412-6.1284-3.7749.492-3.8239,6.4984,0,6h0Z"/>
      </g>
      <g>
        <path d="M29.6839,610.601c.4216-.6052,1.2847-.626,1.9458-.5441,5.0856.6303,9.9324,1.9645,14.3607,3.9533" style="fill: #fff;"/>
        <path d="M31.8053,612.7223c-.4185.3289,2.6643.8058,2.5074.7757,1.1379.2184,2.2701.4756,3.3909.7695,2.3123.6063,4.5802,1.3803,6.7727,2.3331,3.5058,1.5236,6.5644-3.6441,3.0283-5.1808-3.5706-1.5517-7.2039-2.8135-11.0264-3.5914-3.2069-.6527-6.1926-1.4886-8.9155.6513-3.0336,2.3841,1.2385,6.6036,4.2426,4.2426h0Z"/>
      </g>
    </g>
  </g>
  <g id="left_arm">
    <g>
      <path d="M250.187,447.3082c-29.2986.5539-57.8397-12.87-79.0346-33.1059s-35.5358-46.8162-44.8733-74.5926c-7.2795,3.2433-15.767,3.6822-23.3422,1.207-4.4562-1.456-8.8073-4.1188-10.8464-8.3402-2.0391-4.2213-.9107-10.1397,3.2679-12.265,4.7714-2.4268,10.3496.8464,14.6834,3.9887-2.3614-4.3997-4.758-9.6814-2.5479-14.159,2.2894-4.6384,8.8276-5.8508,13.52-3.6743s7.7808,6.7809,9.9738,11.4657c-2.4778-5.8945,2.8622-13.4905,9.2475-13.1543,6.3853.3362,10.898,8.451,7.8149,14.0527,4.1283-1.6094,9.1931-3.0997,12.6524-.3309,3.542,2.835,2.9463,8.7474-.0172,12.1827-2.9635,3.4353-7.4822,5.0173-11.7842,6.458-1.8341,3.8615.2669,8.3683,2.4485,12.0447,7.2636,12.2398,81.7535,60.2214,93.0157,54.2798" style="fill: #fff;"/>
      <path d="M250.187,442.8082c-28.4043.287-55.5045-12.3529-75.8526-31.7879-20.7566-19.8251-34.5555-45.6527-43.716-72.6069-.7086-2.085-3.1785-4.1171-5.5355-3.143-7.7296,3.1946-17.6557,4.1024-25.0304-.6883-2.6268-1.7064-5.6263-4.9987-4.1513-8.4406,2.2416-5.2304,9.0304-.0555,11.8694,1.9445,3.9247,2.7649,8.078-2.4797,6.1569-6.1569-2.1949-4.201-5.2221-12.2889,2.4083-12.1075,5.4754.1302,8.6701,5.9987,10.7664,10.2823,2.2329,4.5626,9.8125,1.371,8.2249-3.4675-1.0166-3.0982.9315-7.9104,4.9082-7.4581,3.0866.3511,5.1628,4.5723,3.9293,7.2815-1.4413,3.1657,1.0207,8.1295,5.0819,6.6105,2.8513-1.0665,10.1704-3.8223,9.3082,1.8531-.764,5.0296-7.096,6.0638-10.8498,7.7781-7.247,3.3098-3.2107,14.2177.0332,19.0843,4.2089,6.3142,11.2065,11.0513,17.1705,15.5276,18.0493,13.5468,37.7138,26.1565,58.3318,35.4203,6.5761,2.9547,16.1486,7.9374,23.3963,4.5172,5.2345-2.4702.6716-10.2318-4.5425-7.7712.4944-.2333.3522-.0546-.4189-.108-1.255-.0868-1.3349-.0698-2.6961-.3864-2.7654-.6431-5.4577-1.6222-8.0852-2.6871-7.5673-3.0668-14.8159-7.0109-21.9073-11.0351-15.1634-8.6049-30.1679-18.0824-43.7808-29.009-5.1542-4.1371-14.5216-10.634-11.9653-18.017-1.0477,1.0477-2.0953,2.0953-3.143,3.143,8.544-2.895,18.1502-7.7988,17.4748-18.3308-.7222-11.2603-12.4659-11.7442-20.7183-8.6574,1.694,2.2035,3.3879,4.407,5.0819,6.6105,3.8194-8.3889-.7507-19.4207-10.5266-20.6723-10.0084-1.2814-17.7962,9.4477-14.7606,18.6989,2.7416-1.1558,5.4832-2.3117,8.2249-3.4675-4.3277-8.8432-12.5824-17.1901-23.2898-14.096-4.2806,1.237-7.8206,4.559-9.0014,8.8996-1.525,5.6064,1.031,11.2391,3.574,16.1065,2.0523-2.0523,4.1046-4.1046,6.1569-6.1569-5.8447-4.1176-13.5919-7.8328-20.2898-3.3192-5.3031,3.5737-6.5783,11.0297-4.272,16.6773,5.9482,14.5657,27.3914,15.3732,39.7241,10.2761-1.8452-1.0477-3.6904-2.0953-5.5355-3.143,9.8167,28.8849,24.6731,56.7156,47.2156,77.6955,21.9201,20.4007,50.8033,33.6122,81.0316,33.3067,5.788-.0585,5.8026-9.0586,0-9h0Z"/>
    </g>
    <g>
      <path d="M381.8088,479.8914c25.6566,14.1582,57.164,15.5994,85.3515,7.5882,28.1875-8.0112,53.2724-24.8316,74.4896-45.0441,4.9257,6.2647,12.2283,10.6125,20.0833,11.9571,4.6208.791,9.7117.4656,13.4846-2.317,3.773-2.7825,5.5359-8.5438,2.8313-12.373-3.0883-4.3725-9.5492-4.0796-14.8485-3.3219,4.1412-2.7899,8.725-6.3436,8.859-11.3352.1388-5.1708-5.0786-9.2933-10.2445-9.5573-5.1659-.2641-10.0457,2.3679-14.1709,5.4886,4.9415-4.0579,3.7619-13.2678-2.0428-15.9493-5.8047-2.6815-13.582,2.3909-13.4682,8.7841-2.9007-3.3495-6.6854-7.0304-11.0369-6.1952-4.4556.8552-6.6868,6.3627-5.6682,10.7837s4.2774,7.9284,7.4106,11.2097c-.1792,4.2712-4.14,7.2774-7.7848,9.5114-12.1348,7.4377-100.4062,15.1274-107.5959,4.618" style="fill: #fff;"/>
      <path d="M379.5376,483.777c27.1,14.6333,59.4462,16.3751,88.8191,8.0419,29.0947-8.2543,54.6934-25.5881,76.4753-46.2014h-6.364c8.5613,10.37,28.5176,20.0025,40.4206,9.2256,4.7553-4.3054,6.6606-11.7892,3.0463-17.4117-4.0298-6.269-12.1536-6.4173-18.7341-5.5507.7571,2.7952,1.5142,5.5904,2.2712,8.3856,7.7179-5.2982,15.6163-14.5789,7.9341-23.6185-7.6594-9.0129-19.7381-5.6087-28.033.4434,1.8177,2.3559,3.6355,4.7117,5.4532,7.0676,6.7492-6.4021,5.5089-18.6285-2.9536-23.0169-9.1821-4.7615-19.6863,3.1593-20.2394,12.6697l7.682-3.182c-5.858-6.5786-16.2767-11.7408-22.3693-2.2778-5.7178,8.8809.5503,17.942,6.7108,24.4399l-1.1573-4.3783c-.9896,7.0208-9.6295,8.5509-15.3516,9.8128-7.6487,1.6867-15.4384,2.7582-23.2162,3.6366-17.9317,2.0251-36.295,3.3606-54.3334,2.1338-3.3653-.2289-6.7464-.5366-10.0386-1.302-1.2084-.2809-2.4325-.5912-3.5826-1.0643-.2518-.1036-1.4426-1.2396-.6334-.1624-3.4367-4.5756-11.2541-.0946-7.7712,4.5425,4.2248,5.6248,12.7001,6.1604,19.1424,6.7578,10.8989,1.0108,21.9443.6951,32.858.1141,11.8983-.6334,23.7751-1.7683,35.5708-3.4543,8.0866-1.1559,17.009-2.1271,24.5134-5.5886,5.1919-2.3948,12.6961-8.2402,11.6014-14.8278-.7607-4.5774-6.7797-6.8256-7.4909-11.8078-.2882-2.0186.3045-4.9829,2.758-5.2052,2.3056-.2089,5.1184,3.5267,6.4258,4.995,2.7609,3.1005,7.4703.4578,7.682-3.182.1917-3.2966,4.6144-6.4921,7.673-4.3599,2.7669,1.9289,2.3309,6.2801.156,8.3431-3.6174,3.4314,1.253,10.1322,5.4532,7.0676,4.1143-3.0019,10.2005-6.9765,15.2202-3.648,5.7872,3.8374-.6759,8.8572-4.2063,11.2807-3.2408,2.2247-2.584,9.025,2.2712,8.3856,2.9214-.3847,8.536-1.5312,10.8268,1.0056,3.7764,4.182-3.4573,7.986-6.6218,8.2987-8.7743.8671-17.2068-4.4305-22.5739-10.9314-1.578-1.9114-4.7323-1.5442-6.364,0-20.2587,19.1718-43.9472,35.4326-70.9117,43.424-27.4801,8.1442-57.9607,7.1059-83.4762-6.6718-5.0967-2.7521-9.6462,5.0154-4.5425,7.7712h0Z"/>
    </g>
  </g>
  <g id="body">
    <g>
      <path d="M287.9093,566.3842c-10.5142-2.591-48.0248-11.5341-55.7069-16.6032-28.3064-18.6782-39.2476-63.4046-25.8183-99.6109,13.4293-36.2062,48.7005-60.8773,82.2746-59.5094,12.7265-35.0798,22.8921-71.1921,30.3503-107.8164l77.9646,19.3003c-10.4889,35.874-18.3442,72.5583-23.4527,109.5239,30.3348,14.4529,50.0233,52.7293,45.0109,91.0192-5.0123,38.2899-35.5555,72.7468-69.3066,76.0625-9.1598.8999-48.5317-9.2013-61.3159-12.366" style="fill: #fff;"/>
      <path d="M289.1055,562.045c-13.9395-3.4289-27.9301-6.7743-41.6344-11.07-5.5347-1.7349-10.981-3.4043-15.6447-6.9487-6.8036-5.1707-12.2162-11.9811-16.3364-19.4265-18.9643-34.2695-11.0294-78.7982,16.636-105.8426,15.0307-14.6933,35.2847-24.2454,56.5327-23.5964,2.0933.0639,3.6746-1.4645,4.3393-3.3037,12.7068-35.1628,22.8439-71.1895,30.3503-107.8164-1.8452,1.0477-3.6904,2.0953-5.5355,3.143,25.9882,6.4334,51.9764,12.8669,77.9646,19.3003-1.0477-1.8452-2.0953-3.6904-3.143-5.5355-10.4468,35.8994-18.2872,72.4937-23.4527,109.5239-.2623,1.8805.1428,4.1398,2.068,5.0819,35.7621,17.5,50.9504,62.8907,39.9608,99.8823-5.4573,18.3697-16.9401,35.6425-32.5922,46.877-7.2477,5.2021-15.3162,9.161-24.0612,11.0652-6.083,1.3245-11.538.6861-17.6038-.3903-16.1079-2.8584-31.9784-7.0083-47.8477-10.9434-5.6218-1.394-8.0202,7.2831-2.3926,8.6785,15.8693,3.935,31.7397,8.085,47.8477,10.9434,6.4716,1.1484,12.6072,2.0601,19.1368.9983,9.4727-1.5404,18.5711-5.3753,26.5898-10.6082,36.4751-23.8035,52.1418-71.744,38.4255-112.734-7.2705-21.7273-22.0821-41.3426-42.9207-51.54.6893,1.694,1.3787,3.3879,2.068,5.0819,5.1655-37.0301,13.0059-73.6245,23.4527-109.5239.6662-2.2895-.8049-4.9567-3.143-5.5355-25.9882-6.4334-51.9764-12.8669-77.9646-19.3003-2.2402-.5546-5.0364.7076-5.5355,3.143-7.5064,36.6269-17.6435,72.6536-30.3503,107.8164,1.4464-1.1012,2.8928-2.2025,4.3393-3.3037-42.1486-1.2873-79.7802,32.6917-89.5839,72.4898-4.9211,19.9771-3.6454,41.7944,4.1123,60.8908,6.1985,15.2583,17.132,30.7854,32.9444,37.0255,16.2225,6.402,33.684,10,50.5816,14.1566,5.6237,1.3833,8.0229-7.2935,2.3926-8.6785h0Z"/>
    </g>
  </g>
  <g id="head">
    <g>
      <path d="M241.606,192.0578c6.5425-14.9378,7.9293-31.5539,8.9592-47.8291,1.9359-30.5943,2.9146-61.2491,2.934-91.9045,38.5058,42.6862,88.9657,82.1897,114.9106,133.4895" style="fill: #fff;"/>
      <path d="M245.4916,194.329c9.0279-21.312,9.4124-44.8954,10.5804-67.682,1.2688-24.7541,1.895-49.5366,1.9272-74.3229l-7.682,3.182c38.9873,43.0679,87.3005,79.949,114.2069,132.5787,2.6373,5.1586,10.4053.6098,7.7712-4.5425-27.2676-53.3364-76.1095-90.7607-115.6142-134.4002-2.6674-2.9466-7.6771-.5826-7.682,3.182-.0305,23.4817-.5925,46.9599-1.7321,70.4143-1.0778,22.1819-.7385,46.2548-9.5467,67.0481-2.233,5.2715,5.5171,9.8637,7.7712,4.5425h0Z"/>
    </g>
    <g>
      <path d="M520.6499,278.7381c1.1818-16.2649,14.0455-42.2246,20.7272-57.1007,12.5603-27.9642,25.9957-55.5353,40.2797-82.6595-53.9726,19.793-115.8041,28.2558-162.6848,61.5274" style="fill: #fff;"/>
      <path d="M525.1499,278.7381c.9053-10.3308,5.0752-20.5027,9.009-29.9948,4.2037-10.1436,8.9323-20.0759,13.4692-30.0733,11.8771-26.1724,24.5391-51.9821,37.9144-77.4209,1.6795-3.1943-1.1634-8.0379-5.0819-6.6105-54.669,19.9141-115.2071,27.8662-163.7597,61.9811-4.7034,3.3048-.2113,11.1114,4.5425,7.7712,47.9032-33.6585,107.6634-41.4229,161.6098-61.0738-1.694-2.2035-3.3879-4.407-5.0819-6.6105-13.9703,26.5706-27.1478,53.5488-39.4935,80.9123-8.7211,19.3298-20.246,39.6445-22.1278,61.1192-.5055,5.7686,8.4975,5.7347,9,0h0Z"/>
    </g>
    <path d="M246.1532,249.2077c1.9304,0,1.9336-3,0-3-1.9304,0-1.9336,3,0,3h0Z"/>
    <g>
      <path d="M216.4874,248.8721c-7.3446-7.3785-9.0607-18.7873-4.3445-28.0686,28.9447-56.9612,130.7884-40.7786,174.0039-29.5145,51.9416,13.5386,104.8751,38.3164,132.0772,84.5902,6.713,11.4195,11.6098,25.8946,5.4208,37.6063-3.6569,6.9201-10.6761,11.567-18.097,14.0551-42.5955,14.2813-78.7494-32.9929-122.0209-20.9136-14.1125,3.9395-27.5639,17.3907-39.2231,8.5168-3.7026-2.8181-8.4755-10.5446-11.1692-14.3387-23.9771-33.7724-86.7105-21.8583-116.6474-51.9331Z" style="fill: #fff;"/>
      <path d="M219.6694,245.6902c-17.7594-18.9886,9.4119-42.3382,25.656-50.1164,18.7077-8.9577,40.3813-10.9946,60.8588-10.8601,43.7696.2875,89.308,10.3614,129.2074,28.2316,25.3394,11.349,49.2289,26.7996,67.1098,48.3081,9.1746,11.0359,19.6808,25.6528,19.4701,40.6193-.2179,15.4731-15.8585,22.8114-29.407,23.7547-24.222,1.6865-45.9649-13.2387-68.0924-20.681-11.4352-3.846-23.4806-5.9123-35.5048-4.0699-6.7001,1.0266-12.7853,3.4709-18.8391,6.4421-5.3628,2.6321-11.7732,6.8415-18.0195,6.2526-6.513-.6141-10.1596-7.8476-13.4586-12.6697-2.9169-4.2636-6.0606-8.2606-10.0131-11.6215-8.3642-7.1121-18.5369-11.5092-28.9435-14.7263-21.9371-6.7817-46.0845-8.2485-66.6082-19.1528-4.9357-2.6223-9.4249-5.793-13.416-9.7107-4.1368-4.0607-10.5058,2.2983-6.364,6.364,18.0988,17.7659,44.5237,21.5213,68.1812,27.0158,11.7762,2.7351,23.8561,5.7834,34.3266,12.0382,4.8494,2.8969,9.2892,6.543,12.7536,11.0333,3.9334,5.0983,6.9106,11.1473,11.7465,15.5086,11.5718,10.4362,25.5599,1.4696,37.1058-3.8869,12.7423-5.9116,26.4026-5.5043,39.6836-1.6953,24.698,7.0834,47.5505,23.8485,74.1827,22.6329,13.357-.6097,28.2201-5.7262,35.5208-17.673,8.6658-14.1806,2.3565-31.7307-5.4732-44.7236-15.5015-25.7237-39.3305-45.2902-65.5673-59.3688-42.8106-22.9721-93.3984-35.282-141.9079-37.0549-22.6504-.8278-46.4537.8129-67.6247,9.5169-9.7061,3.9904-18.8185,9.4732-26.2445,16.9591-8.0156,8.0804-15.6684,19.2079-14.9283,31.0677.4438,7.1113,3.4082,13.4581,8.2452,18.6299,3.9648,4.2392,10.3192-2.135,6.364-6.364Z"/>
    </g>
    <ellipse cx="370.2154" cy="243.1144" rx="3.9896" ry="10.3791" transform="translate(45.2622 544.0621) rotate(-76.0958)" style="stroke: #000; stroke-miterlimit: 10;"/>
    <path d="M279.5794,234.5461c2.6925.7054,5.5937-.4583,6.1743-3.504.7762-4.072-2.9268-5.4115-5.1702-7.7971-1.056-1.123-1.7909-2.3192-1.2013-3.7056.2517-.5919,1.2641-1.139,1.6022-1.7591.6243-1.1449.7192-2.4113.3879-3.6277-.47-1.7262-1.8192-2.6982-3.125-3.7984-2.9116-2.453-4.4959-3.031-2.3787-7.0609,1.7942-3.4153-3.3824-6.4516-5.1808-3.0283-1.4152,2.6938-3.2636,6.4433-1.846,9.4844.5803,1.2449,1.7779,2.0642,2.7955,2.9108.7267.6045,1.5347,1.4951,2.3675,1.9367l1.1837.9683c.5525-.7424.5363-.8318-.0489-.2684-1.5363,2.7358-3.4494,3.726-2.3942,7.3654.4192,1.4458,1.2164,2.6482,2.2589,3.7197.5588.5744,1.2292,1.1839,1.9194,1.5999,2.2202,1.338.9395-.0889,4.2507.7786-3.7383-.9794-5.3331,4.8064-1.595,5.7857h0Z"/>
    <path d="M273.1658,232.274c-1.7799-2.7071-3.734-5.3362-6.8093-6.636-3.7528-1.5862-9.0713.6184-12.1283-2.4338-2.2043-2.2008-2.5491-5.0145-5.7291-6.3559-3.5255-1.4871-8.0914,1.4005-11.1126-.7899-3.1304-2.2696-6.1281,2.9334-3.0283,5.1808,2.1117,1.531,4.3519,1.7333,6.879,1.4812,3.1396-.3131,4.2857-.882,6.7896,1.8245.8875.9593,1.3457,2.3458,2.2655,3.3272,1.896,2.0229,4.3939,2.7878,7.1083,2.9313,4.8768.258,7.6096-.0257,10.5844,4.4988,2.1126,3.2131,7.3104.2107,5.1808-3.0283h0Z"/>
    <path d="M265.2416,235.1294c-2.7251-1.3892-5.6031-1.7664-8.449-.3719-1.31.6419-2.0525,2.0579-3.2328,2.693-2.8434,1.5302-5.1771-1.052-7.6295-2.3675-2.5273-1.3556-6.1785-2.2489-8.6622-.2572-1.201.9631-1.2807,2.0542-1.8897,3.3778-.7277,1.5815.7303.3302-.075.4367.1208-.8082-.223-1.0556-1.0316-.7422-1.2373.0565-2.47-.0213-3.6979-.2332-3.7764-.5278-5.4089,5.2527-1.595,5.7857,3.0984.433,7.7203,1.3507,10.5503-.4817,1.0266-.6647,1.2267-1.6987,1.9272-2.5712.1429-.5317.1429-1.0634,0-1.595.5676.8073,1.278,1.4342,2.1314,1.8805,2.5655,1.9312,5.9592,4.0563,9.3342,3.6682,3.3825-.3889,6.1428-5.6462,9.2912-4.0411,3.4331,1.7502,6.473-3.4247,3.0283-5.1808h0Z"/>
    <path d="M461.6429,272.8416c2.1425,1.1601,5.0669,2.4108,7.4505,3.1968,1.3459.4438,2.862.6125,4.2623.2546,1.386-.3542,2.8469-1.2505,3.6142-2.4862.8359-1.3461.0105-2.9635.5158-4.0383.4534-.9645.4559-.6549,1.7612.1834.8551.5492,1.5257,1.3732,2.3705,1.9438,1.4387.9717,2.8973,1.5069,4.6467,1.4383,3.5505-.1393,7.4585-2.3254,9.969-4.7109,2.8049-2.6651-1.4426-6.9031-4.2426-4.2426-3.1181,2.9627-6.0481,3.0741-9.3831.5889-1.778-1.325-3.7655-2.3636-6.0635-2.0656-1.6952.2199-3.3985,1.0537-4.3941,2.4989-.5107.7412-.8512,1.6455-.9429,2.5497-.1259,1.2406.9623,2.3281-.1875,2.4267-1.6096.138-4.502-2.4606-6.4197-2.6567-2.1917-.2242-4.3834.3285-6.1544,1.6735-3.1144,2.3653-3.478,6.6517.1692,8.6265,3.396,1.8388,6.4286-3.3397,3.0283-5.1808h0Z"/>
    <path d="M466.6777,287.2078c6.1749-2.1693,8.0393,2.2447,12.8627,4.4094,3.091,1.3872,5.9099.3436,8.4914-1.5069,1.4179-1.0164,2.7088-2.6663,4.658-2.1011,1.6636.4824,3.2515,3.3572,4.6065,4.4621,2.8643,2.3356,6.206,2.9429,9.431,1.008,3.3076-1.9845.2943-7.1743-3.0283-5.1808-2.2413,1.3447-7.1373-5.3443-9.5668-6.1504-3.0789-1.0215-5.6921.2076-8.1643,2.0129-4.4313,3.2359-6.2736-.6835-10.2168-2.4718-3.4262-1.5538-7.1739-1.4947-10.6684-.2671-3.619,1.2714-2.0614,7.0702,1.595,5.7857h0Z"/>
    <path d="M465.8702,296.4175c.861.5668,1.7857.965,2.7741,1.1948.9422.005,1.1033.4968.4833,1.4753.1362.9321-.1144,1.9143.127,2.8867.4608,1.8565,1.6736,3.6265,3.3034,4.6374,4.5336,2.8122,7.7569-2.1459,12.0483-3.1174.7127-.0964,1.4255-.1927,2.1382-.2891-.82-2.5038-1.5918-2.654-2.3154-.4507-.5599.5194-1.0305,1.0895-1.3788,1.7619-.7806,1.507-.7639,2.88.0033,4.3989,1.7836,3.5314,6.0116,5.7203,9.7713,4.5942,3.6897-1.1052,2.118-6.8979-1.595-5.7857-.8029-.9563-1.5924-1.2277-2.3684-.8141-.3416.1897-.2837.076.1738-.3412.0463-.4838,1.1437-1.4809,1.4144-1.9973.6351-1.212,1.1328-2.6661.8544-4.042-.6714-3.3189-4.0706-3.5253-6.834-3.0858-2.2032.3504-4.367,1.0522-6.3306,2.1239-.3107.1696-2.2664,1.7017-2.4736,1.63-1.4306-.4947-.0606-2.5641-.2347-3.3858-.8465-3.9962-4.2985-5.6759-7.9658-7.1799-3.57-1.464-5.1248,4.3381-1.595,5.7857h0Z"/>
    <g>
      <path d="M397.2504,244.4401c8.7418-4.0523,18.2232-5.6186,25.0702,2.6431,5.9462,7.1748,5.4117,16.781,2.4677,25.0862-1.2925,3.6463,4.5025,5.2152,5.7857,1.595,3.859-10.8868,3.3587-23.7078-5.2238-32.2703-8.9936-8.9728-20.5585-7.1344-31.1282-2.2348-3.4997,1.6223-.4557,6.7958,3.0283,5.1808h0Z"/>
      <path d="M396.5038,246.5034c12.5014,4.7392,20.1392,15.2145,26.8083,26.2685,1.9923,3.3023,7.1826.2896,5.1808-3.0283-7.5707-12.5485-16.2904-23.6793-30.394-29.0259-3.6142-1.3701-5.1767,4.4279-1.595,5.7857h0Z"/>
      <path d="M418.3434,253.6259c5.7911,0,5.8007-9,0-9-5.7911,0-5.8007,9,0,9h0Z"/>
    </g>
    <g>
      <path d="M306.6945,240.9732c1.5047-9.1468,4.9205-18.0216,15.1757-19.664,9.3915-1.5041,17.7263,4.2175,23.045,11.5077,2.2532,3.0884,7.4616.0979,5.1808-3.0283-6.7567-9.2611-17.1006-16.2565-29.0323-14.4198-12.6592,1.9487-18.2365,12.348-20.1549,24.0094-.6214,3.7772,5.1594,5.4019,5.7857,1.595h0Z"/>
      <path d="M307.6523,242.4646c11.2337-7.8551,24.1841-8.3831,37.4392-7.6544,3.8582.2121,3.8463-5.7886,0-6-14.2578-.7838-28.4093.0419-40.4675,8.4736-3.1415,2.1967-.1462,7.4006,3.0283,5.1808h0Z"/>
      <path d="M322.5461,230.0924c5.7911,0,5.8007-9,0-9-5.7911,0-5.8007,9,0,9h0Z"/>
    </g>
    <g>
      <path d="M345.4398,274.5118c1.6698-1.514,3.3396-3.0279,5.0094-4.5419,2.737-2.4815,5.5507-5.0122,8.9752-6.3985,3.4245-1.3863,7.6419-1.4167,10.5358.8798,2.0657,1.6392,3.1734,4.1937,3.9456,6.7151,1.0295,3.3613,1.6034,6.8424,2.1744,10.3111.1758,1.068.3522,2.1502.2511,3.2278-.1106,1.1779-.5481,2.2985-1.0214,3.3827-3.2242,7.3852-8.3631,13.9247-14.7764,18.8038-.8713.6629-1.7959,1.3098-2.8619,1.5597-1.7102.4009-3.536-.3093-4.8532-1.4715s-2.2059-2.7266-2.9893-4.2988c-4.2801-8.5902-5.2861-18.6138-4.3894-28.1693"/>
      <path d="M346.5005,275.5724c2.9346-2.6607,5.7832-5.5116,8.9357-7.9173,2.7404-2.0914,5.9194-3.7281,9.455-3.5233,3.5986.2085,5.8514,2.7177,7.0598,5.924,1.4225,3.7742,2.0455,7.8563,2.683,11.8204.3478,2.1625.1063,3.8247-.7848,5.8294-.6931,1.5595-1.4798,3.0789-2.3411,4.5519-1.7996,3.0779-3.9419,5.9346-6.3983,8.5189-1.2232,1.2869-2.5178,2.5054-3.8774,3.6471-1.2001,1.0078-2.7091,2.5184-4.356,2.6363-3.7206.2665-5.7322-4.8111-6.8537-7.557-3.2234-7.8921-3.8469-16.571-3.0829-24.9912.1744-1.9221-2.8267-1.9103-3,0-.7857,8.659-.1022,17.6697,3.19,25.7887,1.4587,3.5972,3.3041,7.8127,7.1886,9.3051,4.1902,1.6098,7.708-1.7838,10.5748-4.4116,2.9614-2.7145,5.5803-5.8129,7.798-9.1619,1.1309-1.7078,2.1524-3.4886,3.0534-5.3282.9221-1.8828,1.9152-3.88,2.0868-5.9987.1845-2.2781-.4657-4.7056-.8652-6.9371-.422-2.3572-.9089-4.7098-1.6139-7.0006-1.1344-3.6863-3.0236-7.273-6.7616-8.8224-9.5337-3.9517-17.9744,5.8509-24.2116,11.506-1.4334,1.2996.6933,3.4161,2.1213,2.1213h0Z"/>
    </g>
    <path d="M351.6474,238.0564c-6.3854,5.6221-13.8933,7.4953-15.2786,17.0218-1.3168,9.0549,2.2221,19.7875-3.1334,27.7717-2.1569,3.2156,3.0384,6.2223,5.1808,3.0283,4.7796-7.1255,3.4029-14.6205,3.3962-22.7034-.0039-4.7637.0034-10.2586,3.7735-13.6702,3.0984-2.8038,7.1399-4.4196,10.3041-7.2055,2.9038-2.5566-1.3533-6.7866-4.2426-4.2426h0Z"/>
    <path d="M383.6731,249.0942c1.3952,3.6281,3.6453,6.7017,5.2936,10.1907,2.5384,5.3729-.2361,10.6965-2.8663,15.4975-3.7467,6.8391-8.1451,12.7724-7.2772,20.9684.4024,3.8005,6.4068,3.8417,6,0-.9762-9.2201,6.3963-16.7169,9.6938-24.8682,1.464-3.619,2.1659-7.3233,1.0568-11.1547-1.2802-4.4224-4.4749-7.9637-6.115-12.2286-1.3717-3.567-7.1751-2.0179-5.7857,1.595h0Z"/>
    <path d="M347.9763,276.3492c-.3377,5.2558.2739,10.5058,1.5671,15.6067,1.0215,4.0294,2.3337,9.4492,5.1255,12.6737.7203.8319,1.9108.977,2.9188.7715,7.4932-1.5275,9.9074-14.3201,9.2809-20.4355-.8411-8.2096-8.4209-11.4526-15.8924-11.6165-2.8047-.0615-3.6851,3.228-2.1213,5.1213,2.078,2.5158,2.1081,6.0296,2.6699,9.0805.6139,3.3342,1.5933,6.5194,2.8222,9.6766.8259,2.1218,4.291,3.3068,5.4832.7166,2.8578-6.2085,1.8858-12.1555.1913-18.56-1.6714.9729-3.3428,1.9459-5.0142,2.9188,1.6978,1.9825,2.5671,3.9733,3.1157,6.5118.8152,3.7723,6.6006,2.1759,5.7857-1.595-.7648-3.5388-2.3117-6.4188-4.6587-9.1594-2.0207-2.3596-5.7401.175-5.0142,2.9188,1.2176,4.6022,2.5191,9.3624.4135,13.9366,1.8277.2389,3.6555.4778,5.4832.7166-2.6737-6.8688-2.2377-15.5964-7.0351-21.4047-.7071,1.7071-1.4142,3.4142-2.1213,5.1213,4.9529.1086,9.5227,1.5081,9.9963,6.9912.2751,3.1849-1.0792,12.4799-4.9799,13.2751.9729.2572,1.9459.5143,2.9188.7715-2.2603-2.6106-3.2206-8.2928-3.9584-11.6033-.9182-4.1193-1.2472-8.2279-.9768-12.4346.2478-3.8555-5.7532-3.8405-6,0h0Z" style="fill: #fff;"/>
  </g>
</svg>