<?xml version="1.0" encoding="UTF-8"?>
<svg xmlns="http://www.w3.org/2000/svg" width="595.2756" height="841.8898" version="1.1" viewBox="0 0 595.2756 841.8898">
  <!-- Generator: Adobe Illustrator 29.4.0, SVG Export Plug-In . SVG Version: 2.1.0 Build 152)  -->
  <g id="left_leg">
    <g>
      <g>
        <path d="M248.3652,519.1321c-1.2902,29.1805-22.1386,61.5077-15.2951,95.1841,7.963,39.1852,25.1628,49.2414,56.9778,99.1126,4.1711,6.5384,1.4154,15.2463-5.7486,18.2172-15.5891,6.4647-33.67,15.857-46.9227,19.5766-4.6465,1.3041-10.1547,2.3633-14.0211-1.6036-3.9837-4.0873-3.9904-11.5237-2.0771-16.9505,5.3565-15.1923,31.0091-16.6748,45.0438-14.6115-13.8565-26.7148-54.3309-52.991-63.1742-86.0081-7.0345-26.2639-.116-87.0462-2.785-111.2712" style="fill: #fff;"/>
        <path d="M243.8652,519.1321c-1.4362,26.0491-14.9057,49.8309-16.507,75.9819-1.2396,20.244,5.5382,41.105,15.8335,58.3816,10.9359,18.3517,24.8916,34.8712,36.7338,52.6398,2.9265,4.3911,8.7748,10.2906,7.3325,15.9451-1.5892,6.2301-10.9663,8.1076-16.087,10.4079-11.795,5.2984-23.6556,11.6388-36.2772,14.7409-2.7676.6802-6.0717,1.4079-8.3561-.7923-2.452-2.3616-2.2658-6.9115-1.659-9.9444,1.0647-5.322,4.8225-8.7496,9.6111-10.9373,9.1987-4.2025,20.7578-4.53,30.6365-3.159,3.8048.528,7.0729-2.8629,5.0819-6.6105-14.2164-26.7588-41.4823-43.911-56.4985-70.2241-6.6672-11.6831-8.4495-24.0677-9.0361-37.3039-.6662-15.0333-.1507-30.1046.2891-45.1367.4106-14.0352,1.3599-28.3406-.0994-42.3433-.5944-5.7031-9.6007-5.7642-9,0,1.3191,12.657.5852,25.5598.219,38.2494-.4426,15.3354-1.0252,30.6949-.5292,46.0362.418,12.9305,1.4721,25.9219,6.7649,37.8797,6.4079,14.4771,17.2037,26.6789,27.8478,38.1878,11.4018,12.3281,24.3092,24.211,32.2711,39.1973,1.694-2.2035,3.3879-4.407,5.0819-6.6105-18.7177-2.5976-49.272-.408-51.8169,23.6688-.6387,6.0431.8831,12.9411,6.0205,16.727,5.2074,3.8375,11.6566,2.9524,17.4994,1.2595,14.2707-4.1349,27.6471-11.2606,41.2058-17.2113,6.1341-2.6922,11.8789-4.8354,14.6804-11.4263,2.5702-6.0469,1.1484-11.8899-2.241-17.2441-7.9891-12.6201-16.7499-24.7376-25.564-36.7877-12.5822-17.2016-23.959-34.0531-28.9097-55.0943-8.1149-34.489,12.6122-64.7413,14.4723-98.4773.3191-5.7872-8.6819-5.7693-9,0h0Z"/>
      </g>
      <g>
        <path d="M237.3373,729.7377c-6.5807,4.5771-10.843,11.3012-11.5475,18.2169" style="fill: #fff;"/>
        <path d="M235.8232,727.1473c-7.0737,5.1248-11.915,12.0464-13.0334,20.8073-.4876,3.8197,5.5169,3.7841,6,0,.8222-6.4406,4.9116-11.8954,10.0617-15.6265,3.0974-2.244.1061-7.4516-3.0283-5.1808h0Z"/>
      </g>
      <g>
        <path d="M243.5001,735.7016c-.7351-.0598-1.3003.5929-1.6577,1.1551-2.7492,4.3247-4.8034,8.9129-6.0864,13.5946" style="fill: #fff;"/>
        <path d="M242.7026,732.8087c-3.116.6809-4.5607,4.2047-5.8809,6.7808-1.649,3.2177-2.9641,6.5898-3.9585,10.0642-1.0644,3.719,4.7234,5.3067,5.7857,1.595.7049-2.463,1.5423-4.8677,2.6382-7.1859.4605-.9741.9548-1.9338,1.4749-2.8773.3512-.6355.7154-1.2635,1.0924-1.8841.6206-1.007.7684-1.2427.4433-.7071,3.7705-.8239,2.1749-6.6095-1.595-5.7857h0Z"/>
      </g>
    </g>
    <g>
      <g>
        <path d="M339.4221,545.3923c25.7496,13.7885,64.1903,12.3663,89.6531,35.4438,29.6281,26.8527,29.4937,46.776,56.1328,99.5936,3.4925,6.9247,12.3869,9.0009,18.599,4.3577,13.5176-10.1039,30.8246-20.8556,40.789-30.352,3.4936-3.3295,7.2165-7.525,5.7795-12.8748-1.4807-5.5121-7.8714-9.3145-13.5145-10.4399-15.7979-3.1505-30.1693,18.1501-35.5604,31.2714-15.8965-25.5536-17.8263-73.7707-41.7014-98.2312-18.9917-19.4574-54.6726-30.366-74.1399-45.0288" style="fill: #fff;"/>
        <path d="M337.1508,549.2779c23.8416,12.4728,52.0856,12.7015,75.7437,25.6483,19.6439,10.75,32.9978,29.8219,42.1736,49.7294,5.0251,10.9023,9.482,22.0596,14.3786,33.0197,3.2445,7.2623,6.623,14.4644,10.1574,21.5903,2.9166,5.8804,6.501,10.7319,13.297,12.1469,6.8669,1.4298,11.8844-1.8496,17.1979-5.6895,6.543-4.7285,13.2353-9.2462,19.8007-13.9433,5.9851-4.2819,12.0078-8.66,17.3848-13.7011,4.7197-4.4248,9.0305-10.0809,7.571-16.9292-3.0267-14.2027-21.6673-17.6555-32.8184-11.645-11.9177,6.4238-19.9738,19.5868-25.0759,31.6911l8.2249-1.075c-12.9449-21.263-15.5783-47.5056-24.8711-70.3642-4.597-11.3076-10.4984-22.1956-19.4546-30.6644-9.8268-9.2921-21.9179-15.9447-33.8572-22.0932-13.2584-6.8278-27.2292-12.8392-39.2727-21.7526-4.6591-3.4482-9.1522,4.3595-4.5425,7.7712,21.0337,15.5671,47.4547,22.4648,67.7063,39.2631,19.6516,16.3006,25.5007,42.5245,32.3272,65.9465,3.6328,12.4643,7.3942,25.2679,14.1933,36.436,2.2009,3.6151,6.7795,2.3541,8.2249-1.075,4.0589-9.6295,10.7134-20.2191,19.8634-25.6967,4.5673-2.7342,9.4141-3.3729,14.3431-1.1143,2.0983.9615,4.56,2.4877,5.6321,4.6354,2.0065,4.0195-1.3711,7.2496-4.0644,9.8407-9.895,9.5191-21.9416,16.7927-33.0884,24.7168-4.0679,2.8918-8.7578,8.0846-14.2443,6.4802-3.1244-.9137-4.4619-3.3126-5.8562-6.0213-1.9438-3.7762-3.7605-7.6253-5.5748-11.4649-17.0881-36.1646-28.7354-79.069-67.1511-98.8405-23.3091-11.9965-50.6741-12.5156-73.8058-24.617-5.1268-2.6821-9.682,5.0825-4.5425,7.7712h0Z"/>
      </g>
      <g>
        <path d="M526.1422,643.4327c7.2954-3.3216,15.2532-3.5537,21.5594-.6287" style="fill: #fff;"/>
        <path d="M527.6564,646.0231c5.8849-2.4992,12.5372-3.1659,18.531-.6287,3.5145,1.4877,6.5761-3.679,3.0283-5.1808-8.2166-3.4781-16.4712-2.8182-24.5877.6287-3.5426,1.5045-.4886,6.6744,3.0283,5.1808h0Z"/>
      </g>
      <g>
        <path d="M528.1239,651.7766c.3239-.6626,1.1736-.8154,1.8395-.8357,5.1222-.156,10.1161.4202,14.7967,1.7072" style="fill: #fff;"/>
        <path d="M530.2452,653.8979c-.4934.0626-.3744.073.3571.0311.6368-.0169,1.2737-.0187,1.9107-.0052,1.2581.0219,2.5199.0869,3.773.2019,2.606.239,5.1485.7557,7.6767,1.4153,3.7391.9755,5.3342-4.8102,1.595-5.7857-3.652-.9527-7.3794-1.5586-11.1506-1.7608-2.8489-.1527-6.2783-.6172-8.4045,1.6607-2.6326,2.8205,1.6011,7.0727,4.2426,4.2426h0Z"/>
      </g>
    </g>
  </g>
  <g id="left_arm">
    <g>
      <path d="M225.7898,394.2172c-29.0645,3.7378-55.3349,21.1923-73.3418,44.3109-18.0068,23.1186-28.3053,51.5108-33.4793,80.3543-7.6756-2.1435-16.136-1.3362-23.2676,2.2204-4.1953,2.0922-8.11,5.3629-9.5098,9.8371s.5823,10.1638,5.0268,11.655c5.0751,1.7028,10.1145-2.3512,13.942-6.0937-1.6924,4.6978-3.2906,10.2732-.4493,14.3794,2.9433,4.2536,9.5884,4.4965,13.9121,1.6571,4.3236-2.8394,6.7052-7.8461,8.1894-12.8013-1.5889,6.1936,4.8048,12.9268,11.0722,11.6601,6.2674-1.2666,9.5446-9.9543,5.6752-15.0447,4.3193.9882,9.5476,1.7216,12.5647-1.5235,3.0892-3.3227,1.6351-9.0842-1.799-12.0491-3.4341-2.9649-8.1356-3.8689-12.6021-4.6647-2.3792-3.5517-.9601-8.3174.6603-12.2733,5.395-13.1706,59.696-55.2762,71.7062-51.0459" style="fill: #fff;"/>
      <path d="M224.5935,389.8779c-28.9081,3.9674-55.0455,20.6376-73.3668,43.0132-19.8567,24.2507-31.0073,54.2263-36.5972,84.7949l5.5355-3.143c-13.1781-3.2964-34.4602.2094-38.4622,15.8236-1.5302,5.9703.9941,13.063,6.6689,15.8604,7.4792,3.687,14.705-1.534,19.9704-6.544l-7.5212-4.3783c-3.2446,9.2906-2.9726,21.6098,9.1321,23.4033,11.346,1.6811,18.168-8.2595,21.1986-17.7756l-8.6785-2.3926c-1.6452,9.9073,7.1859,20.1837,17.6819,16.8973,8.6327-2.703,12.0798-14.0221,7.2904-21.3569-1.694,2.2035-3.3879,4.407-5.0819,6.6105,8.2223,1.7759,19.7793.7581,19.952-10.2032.1712-10.8658-10.4296-15.082-19.3959-16.7126.8964.6893,1.7929,1.3787,2.6893,2.068-3.4339-6.5938,5.6667-14.9753,9.7255-18.9896,6.3679-6.2981,13.2914-12.0782,20.4285-17.4811,7.223-5.4679,14.7259-10.6703,22.6635-15.0538,2.9872-1.6496,6.0522-3.264,9.2973-4.3487,1.1568-.3867,2.344-.7569,3.5533-.9415.6665-.1017.9738-.09,1.6165.106,5.5522,1.6938,7.9257-6.9905,2.3926-8.6785-5.8676-1.79-12.7033,1.6528-17.8056,4.1963-8.6441,4.3092-16.7101,9.8447-24.4495,15.592-7.9137,5.8767-15.6209,12.1068-22.7274,18.9464-4.8707,4.6878-10.0855,9.7915-12.5548,16.2129-1.4229,3.7002-2.3865,7.8656-1.2895,11.7848,1.1349,4.0546,3.1815,4.9973,7.0638,5.8333,3.5131.7565,8.8979,1.9894,9.678,6.2385.8748,4.7648-5.7051,3.344-8.445,2.7522-3.6002-.7776-7.3554,3.1287-5.0819,6.6105,1.5437,2.3641,1.3423,5.7882-1.0983,7.6084-3.3685,2.5122-8.0448-1.5621-7.4242-5.2987.9342-5.6257-6.8874-8.0167-8.6785-2.3926-1.4913,4.6826-4.2064,11.2382-10.0281,11.3743-7.0825.1656-4.3547-8.182-2.9455-12.2169,1.5479-4.4323-4.4477-7.3027-7.5212-4.3783-2.3159,2.2035-7.4967,7.5343-10.7019,3.9725-2.6906-2.99-.0488-7.3528,2.3269-9.4553,6.4307-5.6913,16.1621-6.6177,24.1693-4.6147,2.201.5506,5.0891-.7014,5.5355-3.143,5.2883-28.9189,15.4451-57.8275,34.2827-80.8235,17.5035-21.3675,41.7825-36.909,69.3954-40.6986,5.7125-.784,3.2806-9.4571-2.3926-8.6785h0Z"/>
    </g>
    <g>
      <path d="M329.013,387.087c25.96-13.594,57.4913-14.3461,85.497-5.7207,28.0057,8.6254,52.7169,25.9901,73.4872,46.6616,5.0615-6.1555,12.4574-10.3426,20.3399-11.5152,4.637-.6898,9.7195-.2532,13.4308,2.6112,3.7112,2.8643,5.3478,8.6628,2.5602,12.432-3.1831,4.304-9.6361,3.8699-14.9175,2.9966,4.0792,2.8798,8.5843,6.5328,8.6091,11.5261.0258,5.1726-5.2806,9.18-10.451,9.3311s-9.9915-2.587-14.0475-5.797c4.8517,4.1649,3.471,13.3469-2.391,15.9008-5.8619,2.5539-13.5265-2.6873-13.273-9.0764-2.9732,3.2853-6.8374,6.8826-11.1696,5.9525-4.4358-.9524-6.5461-6.5073-5.4311-10.9051s4.4497-7.833,7.6538-11.045c-.0858-4.2741-3.9799-7.3662-7.575-9.6793-11.9693-7.7011-80.5989-11.0856-88.0166-.7358" style="fill: #fff;"/>
      <path d="M331.2843,390.9726c25.7855-13.2038,56.3583-13.5346,83.6112-4.7696,26.7839,8.6142,50.0766,25.3885,69.9198,45.0068,1.6349,1.6164,4.7639,1.854,6.364,0,5.3271-6.1726,13.418-11.0668,21.8762-10.4634,3.367.2402,9.7622,2.7026,8.0293,7.3857-1.3493,3.6466-7.6127,2.5222-10.4779,2.0809-5.0484-.7774-7.7488,5.146-3.4675,8.2249,3.5282,2.5373,9.7676,7.782,3.7339,11.4162-5.1038,3.074-11.0598-1.0565-15.0808-4.1273-4.1211-3.1471-8.997,3.5558-5.4532,7.0676,2.0686,2.0499,2.3129,5.9713-.1043,7.9728-3.1088,2.5741-7.7323-.8043-7.8777-4.3303-.1535-3.7223-4.9114-6.1597-7.682-3.182-1.8808,2.0213-6.1705,7.0837-8.6249,3.2526-2.0213-3.1549.9171-7.2641,2.8814-9.5725,2.0305-2.3862,4.472-3.833,4.3966-7.1865-.0731-3.2533-1.9851-6.3355-4.2009-8.5894-5.4519-5.5455-12.6663-7.4855-20.0655-8.8449-18.9823-3.4874-39.3333-4.5351-58.5291-2.3698-6.2993.7106-16.0916,1.3972-20.3961,6.8977-3.5293,4.51,2.7963,10.923,6.364,6.364,2.3777-3.0383,9.9728-3.8171,14.4887-4.3129,9.2735-1.0181,18.6787-1.0247,27.9902-.6595,8.9643.3516,17.9747,1.0447,26.8173,2.6025,5.2306.9215,17.787,2.642,18.6134,9.603l1.318-3.182c-6.3482,6.4093-12.6495,15.281-7.1244,24.3041,5.8807,9.6039,16.5014,4.4349,22.4353-1.9425-2.5607-1.0607-5.1213-2.1213-7.682-3.182.4021,9.749,11.2847,17.8382,20.538,12.7034,8.1641-4.5304,9.2636-16.3124,2.8079-22.7098l-5.4532,7.0676c8.1344,6.2119,20.2324,9.8465,28.0025.9367,7.8089-8.9543.028-18.3036-7.5706-23.7681-1.1558,2.7416-2.3117,5.4832-3.4675,8.2249,6.6745,1.0278,14.4929,1.576,19.2958-4.1538,4.4043-5.2544,3.0288-13.2924-1.6012-17.9457-11.5771-11.6352-32.2185-2.2298-41.0936,8.0539h6.364c-21.3318-21.0901-46.5641-38.9302-75.4729-47.8189-29.2014-8.9787-61.5503-7.8635-88.9645,6.1744-5.1569,2.6407-.6084,10.4088,4.5425,7.7712h0Z"/>
    </g>
  </g>
  <g id="body">
    <g>
      <path d="M289.7936,549.1847c13.1701,0,53.8157.3386,62.4908-2.6864,31.9654-11.1461,53.3336-51.2746,48.9981-89.0278-4.3355-37.7531-32.6449-69.6537-65.5638-76.2849-3.4276-31.8929-4.7684-64.0122-4.0161-96.0799.2014-8.5864,2.8998-13.3818-6.2646-14.701-7.9716-1.1475-16.6456-.5528-24.6941-.6399-13.1512-.1423-26.3057.0331-39.4484.5255-8.3185.3117-9.1283-.8144-9.1952,7.3959-.058,7.1204.3733,14.2651.4051,21.3903.1221,27.4194-1.2804,54.8463-4.2104,82.1091-32.919,6.6312-61.2283,38.5318-65.5638,76.2849-4.3355,37.7531,17.0328,77.8817,48.9981,89.0278,8.6751,3.025,47.2356,2.6977,58.0643,2.6864" style="fill: #fff;"/>
      <path d="M289.7936,553.6847c16.0955.0061,32.2332.194,48.3056-.8116,6.5653-.4108,12.9554-.9129,19.0685-3.4684,8.9895-3.7579,17.0096-9.5754,23.7038-16.6344,29.7438-31.3646,33.2719-81.2195,9.9375-117.1532-12.353-19.0229-31.4657-34.0181-53.894-38.7708,1.1012,1.4464,2.2025,2.8928,3.3037,4.3393-2.4874-23.4391-3.91-46.9804-4.173-70.5509-.1173-10.5169-.1059-21.0318.573-31.5259.4172-6.4494-1.9705-11.2612-8.6339-12.8061-9.9726-2.3122-21.0355-1.0102-31.1864-1.071-11.8419-.0709-23.6679.2037-35.503.5587-5.1856.1555-11.3965-.3341-13.1617,5.788-1.0734,3.7228-.5606,8.1392-.4898,11.9382.1089,5.8411.3537,11.6754.3675,17.5185.0631,26.7713-1.3916,53.5309-4.2166,80.1506,1.1012-1.4464,2.2025-2.8928,3.3037-4.3393-40.4653,8.5748-68.9682,49.1221-69.42,89.478-.2326,20.777,6.4723,41.9814,18.9434,58.6336,10.0972,13.4824,24.6262,25.3175,41.8133,27.3074,16.9748,1.9653,34.2984,1.444,51.3582,1.4193,5.7907-.0084,5.801-9.0084,0-9-13.7271.0199-27.4713.1017-41.1842-.6229-5.6148-.2967-11.5944-.3607-16.9239-2.3516-8.2688-3.0889-15.6136-8.4913-21.7025-14.8089-27.4621-28.4936-30.2895-74.0219-9.0071-106.7417,11.1554-17.1503,28.3367-30.3587,48.5154-34.6347,2.0798-.4407,3.1015-2.4334,3.3037-4.3393,2.1706-20.453,3.5351-40.9827,4.0154-61.5459.2359-10.097.2752-20.1915-.0125-30.2874-.1272-4.4647.193-9.0733-.1584-13.5109-.1708-2.1567.7793-1.5467-.5388-1.1002-1.0052.3405,2.5125.1189,2.6908.1145,19.2692-.4762,38.6219-1.1622,57.8973-.6242,2.3009.0642,9.2998-.5274,10.8515,1.3455.9794,1.1821-.1116,5.5228-.2078,6.9429-.653,9.644-.3951,19.4367-.2745,29.0967.2902,23.2429,1.7078,46.4553,4.1607,69.569.201,1.8936,1.2468,3.9034,3.3037,4.3393,38.2417,8.1036,64.2226,47.1531,62.751,85.2311-.7296,18.8795-7.7041,38.115-19.9968,52.5634-5.8943,6.9279-12.9542,12.8004-21.1746,16.764-5.5241,2.6635-10.8844,3.3125-16.939,3.7209-16.4199,1.1077-32.922.8866-49.3694.8804-5.7912-.0022-5.8006,8.9978,0,9h0Z"/>
    </g>
  </g>
  <g id="head">
    <g>
      <path d="M154.897,196.9527c2.7612-16.0723.1146-32.5347-2.7966-48.5805-5.4726-30.163-11.8889-60.1548-19.2365-89.9167,47.6349,32.1826,106.1089,58.4031,143.6209,101.9653" style="fill: #fff;"/>
      <path d="M159.2363,198.149c3.6812-23.1705-1.8162-46.5472-6.231-69.2419-4.6707-24.0104-9.9553-47.8968-15.8021-71.6479-2.2035,1.694-4.407,3.3879-6.6105,5.0819,48.1969,32.4415,103.9444,56.6315,142.7101,101.2616,3.805,4.3806,10.1479-2.0076,6.364-6.364-39.2767-45.2185-95.7051-69.8036-144.5316-102.6689-3.4008-2.2891-7.4967,1.482-6.6105,5.0819,5.535,22.4843,10.5677,45.0895,15.0497,67.8074,4.3595,22.0969,10.5755,45.6871,6.9833,68.2972-.9002,5.6661,7.7708,8.1059,8.6785,2.3926h0Z"/>
    </g>
    <g>
      <path d="M446.5938,214.0394c-2.7612-16.0723,3.4875-44.3625,6.3987-60.4083,5.4726-30.163,11.8889-60.1548,19.2365-89.9167-47.6349,32.1826-105.6211,55.2554-143.133,98.8175" style="fill: #fff;"/>
      <path d="M450.9331,212.8431c-1.5783-10.0834-.0131-20.8513,1.5198-30.843,1.6426-10.7065,3.7917-21.3347,5.7605-31.9845,5.2768-28.5431,11.4165-56.9201,18.3549-85.105.8828-3.5859-3.2094-7.3693-6.6105-5.0819-48.2801,32.4705-105.1153,54.7316-144.0437,99.5212-3.7838,4.3535,2.556,10.7453,6.364,6.364,38.4027-44.1848,94.5844-66.0754,142.2223-98.1139l-6.6105-5.0819c-7.2506,29.4534-13.6087,59.1154-19.0612,88.9542-3.7659,20.6092-9.8669,42.7264-6.574,63.7634.8931,5.7054,9.5669,3.2828,8.6785-2.3926h0Z"/>
    </g>
    <g>
      <path d="M144.1668,258.1384c-8.9025-5.3974-13.3098-16.0595-10.962-26.2022,14.4089-62.2476,117.1571-71.012,161.8132-70.4625,53.6729.6604,111.0095,11.9924,148.5341,50.3737,9.2604,9.4718,17.4921,22.346,14.2987,35.2018-1.8869,7.5961-7.5837,13.7935-14.1894,17.9919-37.9157,24.0985-84.3701-13.1029-123.471,9.0207-12.7523,7.2153-22.5773,23.5047-36.0272,17.6925-4.2713-1.8458-10.761-8.1989-14.2875-11.2346-31.39-27.0212-89.4223-.3814-125.709-22.3812Z" style="fill: #fff;"/>
      <path d="M146.4381,254.2527c-20.7788-13.4999-2.3273-41.4267,10.8643-53.0443,14.9049-13.1264,34.3353-20.5508,53.2849-25.5803,39.4797-10.4784,82.2304-12.1282,122.666-7.1959,28.0116,3.4168,56.1642,10.9653,80.4785,25.628,19.6293,11.8374,59.9565,44.6875,28.8857,66.2848-22.0397,15.3198-50.1535,6.462-74.4076,3.2275-12.3833-1.6514-25.1247-2.2673-37.2807,1.172-6.059,1.7143-11.985,4.3991-17.0962,8.0881-5.1177,3.6937-9.5784,8.2307-14.7417,11.8514-5.0749,3.5588-10.1865,5.1819-15.6573,1.454-4.9459-3.3702-8.9485-7.9421-13.7684-11.4841-9.2689-6.8115-20.5366-9.7379-31.8101-11.0064-24.8205-2.7927-50.3978,2.8397-74.9223-2.9041-5.8395-1.3677-11.323-3.4445-16.4952-6.4907-5.0017-2.9457-9.5353,4.8307-4.5425,7.7712,23.7219,13.971,52.7125,9.6622,78.9488,9.7688,12.74.0517,26.3764.7181,37.9252,6.6798,10.5873,5.4654,18.4837,19.2681,31.4578,19.0062,13.198-.2664,21.6946-13.4971,32.2343-19.5315,12.4295-7.1163,26.9214-7.4986,40.806-5.9836,26.8232,2.9268,55.5204,12.7067,80.7615-1.8881,12.7344-7.3633,21.4121-20.2975,18.2973-35.3914-3.0976-15.0104-15.4982-27.0746-26.9454-36.3547-23.4347-18.9981-52.1469-29.997-81.5472-35.7006-45.3479-8.7975-94.4976-7.8913-139.5089,2.7815-20.8547,4.9449-41.8932,12.5291-58.9689,25.8031-7.8855,6.1299-14.8286,13.5602-19.7603,22.2909-5.5178,9.7682-9.8461,22.0992-5.9686,33.173,2.2732,6.492,6.5261,11.6158,12.2685,15.3466,4.8712,3.1648,9.3871-4.6237,4.5425-7.7712Z"/>
    </g>
    <path d="M228.6176,216.0069c16.3458-1.4034,31.7859-7.0375,45.0313-16.7559,3.0811-2.2607.0913-7.4697-3.0283-5.1808-12.3606,9.0691-26.7069,14.6234-42.003,15.9367-3.8183.3278-3.853,6.3308,0,6h0Z"/>
    <path d="M311.4509,216.0069c16.3458-1.4034,31.7859-7.0375,45.0313-16.7559,3.0811-2.2607.0913-7.4697-3.0283-5.1808-12.3606,9.0691-26.7069,14.6234-42.003,15.9367-3.8183.3278-3.853,6.3308,0,6h0Z"/>
    <path d="M370.726,233.8953c9.6153-12.3131,20.4708-23.5003,32.489-33.4817,2.9732-2.4693-1.2915-6.6936-4.2426-4.2426-12.0182,9.9814-22.8738,21.1686-32.489,33.4817-2.3494,3.0086,1.8675,7.2842,4.2426,4.2426h0Z"/>
    <path d="M376.1835,236.8771c12.6983-1.4777,25.3756-3.119,38.0327-4.9155,3.8074-.5404,2.1877-6.3226-1.595-5.7857-12.1261,1.7211-24.2722,3.2854-36.4377,4.7012-3.79.4411-3.8346,6.4462,0,6h0Z"/>
    <path d="M374.5985,243.1574c9.7774,4.214,19.3556,8.837,28.7374,13.8704,3.402,1.8252,6.4358-3.3527,3.0283-5.1808-9.3819-5.0334-18.9601-9.6564-28.7374-13.8704-3.5087-1.5122-6.5682,3.6552-3.0283,5.1808h0Z"/>
    <path d="M229.3934,229.6527c-9.6153-12.3131-20.4708-23.5003-32.489-33.4817-2.9499-2.45-7.2172,1.7722-4.2426,4.2426,12.0182,9.9814,22.8738,21.1686,32.489,33.4817,2.3741,3.0402,6.593-1.2328,4.2426-4.2426h0Z"/>
    <path d="M219.6933,230.8771c-12.1655-1.4157-24.3116-2.98-36.4377-4.7012-3.7766-.536-5.4085,5.2444-1.595,5.7857,12.6571,1.7965,25.3344,3.4377,38.0327,4.9155,3.8282.4455,3.7963-5.5582,0-6h0Z"/>
    <path d="M218.25,237.9766c-9.7774,4.214-19.3556,8.837-28.7374,13.8704-3.4038,1.8262-.3771,7.0078,3.0283,5.1808,9.3819-5.0334,18.9601-9.6564,28.7374-13.8704,3.5361-1.524.4837-6.6945-3.0283-5.1808h0Z"/>
    <ellipse cx="292.0069" cy="223.1905" rx="10.3791" ry="3.9896" style="stroke: #000; stroke-miterlimit: 10;"/>
    <path d="M284.1428,241.2646c4.9063,2.9276,10.2633,4.4846,15.9952,4.3741,2.5492-.0491,7.7155-1.2525,9.8372.6143,4.2227,3.7153-6.054,3.2879-8.0619,3.2278v6c2.2475-.218,3.4808.8227,2.6993,3.0542-.6479,1.85-1.2682,1.9156-3.0947,2.1801-2.5049.3628-4.9513-.2479-7.4277-.5387-4.0693-.4778-7.9668-.3877-11.3427,2.179-3.034,2.3068-.048,7.5198,3.0283,5.1808,6.849-5.2075,17.6618,3.5222,23.979-4.6367,4.4764-5.7814-.9035-14.0918-7.8415-13.4188-3.7825.3669-3.9301,5.8824,0,6,4.0677.1217,10.7015.3317,13.9948-2.5642,2.7264-2.3975,2.3085-6.4169.2886-9.1136-2.3945-3.1968-6.4897-4.3003-10.3074-4.4033-6.9879-.1886-12.3921.4588-18.7182-3.3159-3.3238-1.9833-6.3447,3.202-3.0283,5.1808h0Z"/>
    <path d="M265.843,201.4639c.244,3.9876-1.7871,7.4106-3.8703,10.6679-2.9054,4.5427-6.141,6.5671-11.6497,5.2292-5.5007-1.3359-9.8749-4.7174-14.9755-6.9445-3.5041-1.5301-6.5622,3.6378-3.0283,5.1808,7.8453,3.4256,15.6823,10.0869,24.8852,7.8977,8.3421-1.9845,15.1357-13.909,14.6386-22.0311-.2348-3.8362-6.2364-3.8629-6,0h0Z"/>
    <path d="M251.387,221.1111c7.7214,0,7.7342-12,0-12-7.7214,0-7.7342,12,0,12h0Z"/>
    <path d="M348.154,201.4639c.2559,4.182-2.0001,7.9022-4.2569,11.2852-3.5469,5.3167-7.9825,5.7899-13.8419,3.8184-4.982-1.6763-9.5242-4.4376-14.3695-6.4534-3.561-1.4815-5.1144,4.3215-1.595,5.7857,7.6932,3.2007,15.8086,9.2438,24.5804,7.7169,8.802-1.5321,16.0003-13.6997,15.483-22.1528-.2348-3.8362-6.2364-3.8629-6,0h0Z"/>
    <path d="M333.2095,221.1111c7.7214,0,7.7342-12,0-12-7.7214,0-7.7342,12,0,12h0Z"/>
  </g>
</svg>