<?xml version="1.0" encoding="UTF-8"?>
<svg xmlns="http://www.w3.org/2000/svg" width="595.2756" height="841.8898" version="1.1" viewBox="0 0 595.2756 841.8898">
  <!-- Generator: Adobe Illustrator 29.4.0, SVG Export Plug-In . SVG Version: 2.1.0 Build 152)  -->
  <g id="left_leg">
    <g>
      <g>
        <path d="M340.6266,519.1321c1.2902,29.1805,22.1386,61.5077,15.2951,95.1841-7.963,39.1852-25.1628,49.2414-56.9778,99.1126-4.1711,6.5384-1.4154,15.2463,5.7486,18.2172,15.5891,6.4647,33.67,15.857,46.9227,19.5766,4.6465,1.3041,10.1547,2.3633,14.0211-1.6036,3.9837-4.0873,3.9904-11.5237,2.0771-16.9505-5.3565-15.1923-31.0091-16.6748-45.0438-14.6115,13.8565-26.7148,54.3309-52.991,63.1742-86.0081,7.0345-26.2639.116-87.0462,2.785-111.2712" style="fill: #fff;"/>
        <path d="M336.1266,519.1321c1.6487,29.9027,19.1181,57.2254,16.3825,87.6307-1.9853,22.065-12.9925,41.2814-25.6617,58.8571-7.9061,10.9679-15.9897,21.7973-23.5601,33.0042-3.9533,5.8523-9.8945,12.4022-10.67,19.6773-.6193,5.8102,1.8282,11.5826,6.437,15.1648,5.4965,4.2721,13.4516,6.4364,19.7808,9.3078,7.0203,3.1849,14.0408,6.392,21.2185,9.211,10.7708,4.2302,27.1362,9.7296,32.2998-5.1031,4.4091-12.6653-3.3715-24.874-14.8827-29.7882-11.1765-4.7713-24.1229-5.0238-35.9973-3.3759,1.694,2.2035,3.3879,4.407,5.0819,6.6105,7.0657-13.2994,18.1178-24.077,28.3218-34.9623,10.6985-11.4129,21.6867-23.1649,29.1565-37.0339,6.357-11.8029,8.4321-24.337,9.1616-37.5754.8485-15.398.3232-30.8565-.1254-46.2589-.422-14.4898-1.4475-29.264.0591-43.72.5997-5.7546-8.4047-5.7125-9,0-1.2726,12.2115-.607,24.6554-.2579,36.8986.4317,15.1381,1.0158,30.2934.625,45.4389-.3307,12.816-1.0299,25.9634-6.7056,37.6949-6.8226,14.1021-17.6884,25.8041-28.2893,37.1372-11.0126,11.7732-23.0791,23.4621-30.717,37.8384-2.0019,3.7681,1.284,7.1376,5.0819,6.6105,9.1398-1.2684,19.2032-.9061,27.9689,2.123,3.8011,1.3135,7.7191,3.3265,10.106,6.687,2.7722,3.903,4.3513,12.4849-.1593,15.7259-4.0387,2.9019-11.6368-.7693-15.7286-2.2554-6.906-2.5082-13.6012-5.5634-20.29-8.5919-5.7457-2.6015-11.5044-5.1632-17.2829-7.6901-6.8372-2.99-8.603-7.98-4.5835-14.3609,21.8694-34.717,55.4646-66.3375,57.7949-109.7784,1.592-29.6788-14.9592-56.0066-16.5646-85.1234-.3176-5.7598-9.3196-5.7968-9,0h0Z"/>
      </g>
      <g>
        <path d="M351.6545,729.7377c6.5807,4.5771,10.843,11.3012,11.5475,18.2169" style="fill: #fff;"/>
        <path d="M350.1403,732.3281c5.15,3.7311,9.2395,9.1859,10.0617,15.6265.4823,3.7779,6.4884,3.8261,6,0-1.1184-8.7611-5.9591-15.6822-13.0334-20.8073-3.1313-2.2685-6.1291,2.9344-3.0283,5.1808h0Z"/>
      </g>
      <g>
        <path d="M345.4917,735.7016c.7351-.0598,1.3003.5929,1.6577,1.1551,2.7492,4.3247,4.8034,8.9129,6.0864,13.5946" style="fill: #fff;"/>
        <path d="M344.6942,738.5944c-.3251-.5356-.1774-.2999.4433.7071.377.6205.7412,1.2486,1.0924,1.8841.521.9432,1.017,1.9019,1.4749,2.8773,1.089,2.3203,1.9333,4.7231,2.6382,7.1859,1.0606,3.7057,6.8518,2.1302,5.7857-1.595-.9944-3.4745-2.3094-6.8463-3.9585-10.0642-1.3217-2.5789-2.7651-6.0999-5.8809-6.7808-3.7637-.8225-5.3716,4.9604-1.595,5.7857h0Z"/>
      </g>
    </g>
    <g>
      <g>
        <path d="M249.5698,545.3923c-25.7496,13.7885-64.1903,12.3663-89.6531,35.4438-29.6281,26.8527-29.4937,46.776-56.1328,99.5936-3.4925,6.9247-12.3869,9.0009-18.599,4.3577-13.5176-10.1039-30.8246-20.8556-40.789-30.352-3.4936-3.3295-7.2165-7.525-5.7795-12.8748,1.4807-5.5121,7.8714-9.3145,13.5145-10.4399,15.7979-3.1505,30.1693,18.1501,35.5604,31.2714,15.8965-25.5536,17.8263-73.7707,41.7014-98.2312,18.9917-19.4574,54.6726-30.366,74.1399-45.0288" style="fill: #fff;"/>
        <path d="M247.2985,541.5067c-20.591,10.7722-44.7415,12.1646-66.1057,21.0774-19.1468,7.9877-34.6721,22.5147-45.7044,39.9599-10.4952,16.5959-16.9314,35.6134-24.9904,53.4278-2.8508,6.3018-5.8082,12.5551-8.8815,18.7514-2.6551,5.3531-6.5418,10.378-13.0379,6.9285-5.7554-3.0561-11.0894-7.9271-16.4462-11.6655-6.0851-4.2466-12.2267-8.4539-18.0243-13.0916-3.9964-3.1969-13.6169-9.4454-10.5947-15.482,2.795-5.5827,11.328-7.1643,16.6683-5.17,10.9704,4.0969,18.8435,17.0805,23.1703,27.3456,1.4467,3.4321,6.0368,4.6691,8.2249,1.075,12.5288-20.5796,15.7093-45.6651,24.0221-67.9934,4.2675-11.4625,9.9-22.7208,18.8963-31.2137,9.6272-9.0884,21.6871-15.3975,33.3851-21.3777,12.8327-6.5602,26.2858-12.4478,37.9233-21.0608,4.6048-3.408.1214-11.223-4.5425-7.7712-21.4928,15.9069-48.1289,23.2273-68.9934,40.2274-20.1123,16.3872-27.1124,42.4434-34.0129,66.3437-3.77,13.0577-7.3226,26.5972-14.4493,38.3033l8.2249,1.075c-4.5993-10.9114-11.2795-21.6925-20.856-28.9104-9.8567-7.4292-23.4865-8.2343-32.6591,1.0329-11.771,11.8924,1.5558,23.9695,11.066,31.3857,6.0785,4.7401,12.4048,9.1445,18.7249,13.5531,3.3098,2.3087,6.6212,4.6155,9.8979,6.9712,2.9512,2.1217,5.7526,4.6232,9.2793,5.739,5.5291,1.7493,11.8309.5039,16.2251-3.2973,5.4919-4.7507,8.1248-13.2945,11.1338-19.7135,5.573-11.889,10.6008-24.0092,15.8427-36.0442,8.5239-19.5705,19.1911-38.2642,36.5886-51.3543,24.7225-18.6016,57.7552-17.2533,84.5674-31.2801,5.134-2.6859.5894-10.456-4.5425-7.7712h0Z"/>
      </g>
      <g>
        <path d="M62.8496,643.4327c-7.2954-3.3216-15.2532-3.5537-21.5594-.6287" style="fill: #fff;"/>
        <path d="M64.3638,640.8423c-8.1202-3.4485-16.3735-4.1058-24.5877-.6287-3.544,1.5002-.4896,6.67,3.0283,5.1808,5.9889-2.5351,12.6501-1.8689,18.531.6287,3.5135,1.4921,6.5747-3.6747,3.0283-5.1808h0Z"/>
      </g>
      <g>
        <path d="M60.8679,651.7766c-.3239-.6626-1.1736-.8154-1.8395-.8357-5.1222-.156-10.1161.4202-14.7967,1.7072" style="fill: #fff;"/>
        <path d="M62.9892,649.6553c-2.1216-2.273-5.5639-1.813-8.4045-1.6607-3.7707.2022-7.4989.8082-11.1506,1.7608-3.7332.9739-2.1503,6.7628,1.595,5.7857,2.5275-.6594,5.0735-1.1684,7.6767-1.4153,1.2534-.1189,2.5145-.1799,3.773-.2019l1.2718-.0067c1.368.0819,1.7.0755.996-.0193,2.6404,2.8288,6.8764-1.4209,4.2426-4.2426h0Z"/>
      </g>
    </g>
  </g>
  <g id="left_arm">
    <g>
      <path d="M366.8905,394.2172c29.0645,3.7378,55.3349,21.1923,73.3418,44.3109s28.3053,51.5108,33.4793,80.3543c7.6756-2.1435,16.136-1.3362,23.2676,2.2204,4.1953,2.0922,8.11,5.3629,9.5098,9.8371s-.5823,10.1638-5.0268,11.655c-5.0751,1.7028-10.1145-2.3512-13.942-6.0937,1.6924,4.6978,3.2906,10.2732.4493,14.3794-2.9433,4.2536-9.5884,4.4965-13.9121,1.6571-4.3236-2.8394-6.7052-7.8461-8.1894-12.8013,1.5889,6.1936-4.8048,12.9268-11.0722,11.6601-6.2674-1.2666-9.5446-9.9543-5.6752-15.0447-4.3193.9882-9.5476,1.7216-12.5647-1.5235-3.0892-3.3227-1.6351-9.0842,1.799-12.0491s8.1356-3.8689,12.6021-4.6647c2.3792-3.5517.9601-8.3174-.6603-12.2733-5.395-13.1706-59.696-55.2762-71.7062-51.0459" style="fill: #fff;"/>
      <path d="M365.6943,398.5564c27.5803,3.7851,51.9379,19.3166,69.3954,40.6986,18.813,23.0425,28.9888,51.8743,34.2827,80.8235.4447,2.432,3.344,3.6912,5.5355,3.143,8.0169-2.0053,17.7341-1.0806,24.1693,4.6147,2.4135,2.136,4.5615,5.6886,2.6492,8.8543-2.8175,4.6641-8.6051-1.0697-11.0242-3.3715-3.0723-2.9232-9.0705-.0579-7.5212,4.3783,1.4165,4.0561,4.1099,12.3828-2.9455,12.2169-5.813-.1367-8.5427-6.7102-10.0281-11.3743-1.7879-5.614-9.6144-3.243-8.6785,2.3926.6205,3.7367-4.0558,7.811-7.4242,5.2987-2.4406-1.8202-2.642-5.2443-1.0983-7.6084,2.277-3.4871-1.4698-7.3907-5.0819-6.6105-2.2813.4927-7.1839,1.8577-8.387-.9714-1.6223-3.8146,4.0827-6.4995,6.6533-7.2907,2.7667-.8515,6.3041-.5949,8.3003-2.9093,2.106-2.4419,2.4268-6.2574,2.0555-9.3098-1.0077-8.2861-6.2378-14.3862-11.8804-20.0861-13.449-13.5856-29.496-25.947-46.2783-35.1215-5.7814-3.1605-14.1139-7.9664-20.9934-5.8677-5.5243,1.6853-3.169,10.3752,2.3926,8.6785.5969-.1821.8665-.2205,1.6165-.106,1.2091.1845,2.3958.5545,3.5533.9415,3.2453,1.0848,6.3093,2.7001,9.2973,4.3487,7.9387,4.3799,15.4413,9.5865,22.6635,15.0538,7.1378,5.4034,14.058,11.1847,20.4285,17.4811,4.0623,4.0151,13.1593,12.3959,9.7255,18.9896l2.6893-2.068c-8.9708,1.6314-19.567,5.845-19.3959,16.7126.1726,10.9627,11.7318,11.9787,19.952,10.2032-1.694-2.2035-3.3879-4.407-5.0819-6.6105-4.7896,7.3351-1.3429,18.6531,7.2904,21.3569,10.4928,3.2862,19.3272-6.9895,17.6819-16.8973l-8.6785,2.3926c3.0305,9.5157,9.8581,19.4558,21.1986,17.7756,12.1123-1.7946,12.3755-14.1159,9.1321-23.4033l-7.5212,4.3783c5.1269,4.8782,12.0284,9.9666,19.3952,6.7973,6.0479-2.6019,8.8348-9.9075,7.2441-16.1138-4.0017-15.6128-25.2879-19.119-38.4622-15.8236,1.8452,1.0477,3.6904,2.0953,5.5355,3.143-5.59-30.5688-16.7404-60.5441-36.5972-84.7949-18.3215-22.3758-44.4583-39.0458-73.3668-43.0132-5.664-.7773-8.1141,7.8933-2.3926,8.6785h0Z"/>
    </g>
    <g>
      <path d="M263.6673,387.087c-25.96-13.594-57.4913-14.3461-85.497-5.7207-28.0057,8.6254-52.7169,25.9901-73.4872,46.6616-5.0615-6.1555-12.4574-10.3426-20.3399-11.5152-4.637-.6898-9.7195-.2532-13.4308,2.6112-3.7112,2.8643-5.3478,8.6628-2.5602,12.432,3.1831,4.304,9.6361,3.8699,14.9175,2.9966-4.0792,2.8798-8.5843,6.5328-8.6091,11.5261-.0258,5.1726,5.2806,9.18,10.451,9.3311s9.9915-2.587,14.0475-5.797c-4.8517,4.1649-3.471,13.3469,2.391,15.9008,5.8619,2.5539,13.5265-2.6873,13.273-9.0764,2.9732,3.2853,6.8374,6.8826,11.1696,5.9525,4.4358-.9524,6.5461-6.5073,5.4311-10.9051s-4.4497-7.833-7.6538-11.045c.0858-4.2741,3.9799-7.3662,7.575-9.6793,11.9693-7.7011,80.5989-11.0856,88.0166-.7358" style="fill: #fff;"/>
      <path d="M265.9385,383.2013c-27.4138-14.0376-59.7635-15.1529-88.9645-6.1744-28.9087,8.8887-54.1412,26.7289-75.4729,47.8189h6.364c-8.8751-10.2837-29.5164-19.6891-41.0936-8.0539-4.6301,4.6533-6.0055,12.6914-1.6012,17.9457,4.8029,5.7299,12.6213,5.1817,19.2958,4.1538-1.1558-2.7416-2.3117-5.4832-3.4675-8.2249-7.5737,5.4465-15.403,14.8427-7.5706,23.7681,7.8032,8.8921,19.842,5.2953,28.0025-.9367l-5.4532-7.0676c-6.398,6.3403-5.4207,18.2634,2.8079,22.7098,9.2818,5.0155,20.1322-2.8656,20.538-12.7034l-7.682,3.182c5.9933,6.4413,16.4626,11.483,22.4353,1.9425,5.6045-8.9524-.8348-17.9539-7.1244-24.3041l1.318,3.182c.8138-6.8552,12.9998-8.5937,18.1728-9.5256,8.9822-1.6181,18.1467-2.3225,27.2579-2.6799,9.1615-.3594,18.3982-.3412,27.5258.6112,4.5961.4796,12.5226,1.2553,14.9531,4.3611,3.5661,4.5571,9.8948-1.852,6.364-6.364-3.678-4.7-11.5087-5.6955-16.966-6.4623-9.4318-1.3253-19.0086-1.5061-28.5176-1.2563-9.9848.2623-19.9789,1.05-29.8518,2.5854-6.8253,1.0614-14.2099,2.2701-19.9343,6.3965-5.2593,3.7912-11.063,10.683-5.6162,16.5956,2.4582,2.6684,5.9838,5.9192,5.4835,9.9142-.8374,6.6868-6.8114,1.1379-9.1361-1.3605-2.7739-2.9813-7.5281-.5499-7.682,3.182-.1454,3.5245-4.7593,6.9108-7.8777,4.3303-2.4121-1.996-2.171-5.9247-.1043-7.9728,3.5061-3.4744-1.2899-10.247-5.4532-7.0676-4.0166,3.0673-9.9793,7.2-15.0808,4.1273-6.0235-3.628.2009-8.8755,3.7339-11.4162,4.2522-3.0579,1.6171-9.0079-3.4675-8.2249-2.8652.4412-9.1286,1.5657-10.4779-2.0809-1.7328-4.6831,4.6623-7.1454,8.0293-7.3857,8.4581-.6035,16.549,4.2907,21.8762,10.4634,1.5954,1.8486,4.7338,1.6117,6.364,0,19.8284-19.6037,43.1389-36.4287,69.9198-45.0068,27.2758-8.7366,57.8034-8.4457,83.6112,4.7696,5.1459,2.635,9.7049-5.1277,4.5425-7.7712h0Z"/>
    </g>
  </g>
  <g id="body">
    <g>
      <path d="M292.4732,549.1847c13.1701,0,53.8157.3386,62.4908-2.6864,31.9654-11.1461,53.3336-51.2746,48.9981-89.0278-4.3355-37.7531-32.6449-69.6537-65.5638-76.2849-3.4276-31.8929-4.7684-64.0122-4.0161-96.0799.2014-8.5864,2.8998-13.3818-6.2646-14.701-7.9716-1.1475-16.6456-.5528-24.6941-.6399-13.1512-.1423-26.3057.0331-39.4484.5255-8.3185.3117-9.1283-.8144-9.1952,7.3959-.058,7.1204.3733,14.2651.4051,21.3903.1221,27.4194-1.2804,54.8463-4.2104,82.1091-32.919,6.6312-61.2283,38.5318-65.5638,76.2849-4.3355,37.7531,17.0328,77.8817,48.9981,89.0278,8.6751,3.025,47.2356,2.6977,58.0643,2.6864" style="fill: #fff;"/>
      <path d="M292.4732,553.6847c16.0955.0061,32.2332.194,48.3056-.8116,6.5653-.4108,12.9554-.9129,19.0685-3.4684,8.9895-3.7579,17.0096-9.5754,23.7038-16.6344,29.7438-31.3646,33.2719-81.2195,9.9375-117.1532-12.353-19.0229-31.4657-34.0181-53.894-38.7708,1.1012,1.4464,2.2025,2.8928,3.3037,4.3393-2.4874-23.4391-3.91-46.9804-4.173-70.5509-.1173-10.5169-.1059-21.0318.573-31.5259.4172-6.4494-1.9705-11.2612-8.6339-12.8061-9.9726-2.3122-21.0355-1.0102-31.1864-1.071-11.8419-.0709-23.6679.2037-35.503.5587-5.1856.1555-11.3965-.3341-13.1617,5.788-1.0734,3.7228-.5606,8.1392-.4898,11.9382.1089,5.8411.3537,11.6754.3675,17.5185.0631,26.7713-1.3916,53.5309-4.2166,80.1506,1.1012-1.4464,2.2025-2.8928,3.3037-4.3393-40.4653,8.5748-68.9682,49.1221-69.42,89.478-.2326,20.777,6.4723,41.9814,18.9434,58.6336,10.0972,13.4824,24.6262,25.3175,41.8133,27.3074,16.9748,1.9653,34.2984,1.444,51.3582,1.4193,5.7907-.0084,5.801-9.0084,0-9-13.7271.0199-27.4713.1017-41.1842-.6229-5.6148-.2967-11.5944-.3607-16.9239-2.3516-8.2688-3.0889-15.6136-8.4913-21.7025-14.8089-27.4621-28.4936-30.2895-74.0219-9.0071-106.7417,11.1554-17.1503,28.3367-30.3587,48.5154-34.6347,2.0798-.4407,3.1015-2.4334,3.3037-4.3393,2.1706-20.453,3.5351-40.9827,4.0154-61.5459.2359-10.097.2752-20.1915-.0125-30.2874-.1272-4.4647.193-9.0733-.1584-13.5109-.1708-2.1567.7793-1.5467-.5388-1.1002-1.0052.3405,2.5125.1189,2.6908.1145,19.2692-.4762,38.6219-1.1622,57.8973-.6242,2.3009.0642,9.2998-.5274,10.8515,1.3455.9794,1.1821-.1116,5.5228-.2078,6.9429-.653,9.644-.3951,19.4367-.2745,29.0967.2902,23.2429,1.7078,46.4553,4.1607,69.569.201,1.8936,1.2468,3.9034,3.3037,4.3393,38.2417,8.1036,64.2226,47.1531,62.751,85.2311-.7296,18.8795-7.7041,38.115-19.9968,52.5634-5.8943,6.9279-12.9542,12.8004-21.1746,16.764-5.5241,2.6635-10.8844,3.3125-16.939,3.7209-16.4199,1.1077-32.922.8866-49.3694.8804-5.7912-.0022-5.8006,8.9978,0,9h0Z"/>
    </g>
  </g>
  <g id="head">
    <g>
      <path d="M157.5766,196.9527c2.7612-16.0723.1146-32.5347-2.7966-48.5805-5.4726-30.163-11.8889-60.1548-19.2365-89.9167,47.6349,32.1826,106.1089,58.4031,143.6209,101.9653" style="fill: #fff;"/>
      <path d="M161.9159,198.149c3.6812-23.1705-1.8162-46.5472-6.231-69.2419-4.6707-24.0104-9.9553-47.8968-15.8021-71.6479l-6.6105,5.0819c48.1969,32.4415,103.9444,56.6315,142.7101,101.2616,3.805,4.3806,10.1479-2.0076,6.364-6.364-39.2767-45.2185-95.7051-69.8036-144.5316-102.6689-3.4008-2.2891-7.4967,1.482-6.6105,5.0819,5.535,22.4843,10.5677,45.0895,15.0497,67.8074,4.3595,22.0969,10.5755,45.6871,6.9833,68.2972-.9002,5.6661,7.7708,8.1059,8.6785,2.3926h0Z"/>
    </g>
    <g>
      <path d="M449.2734,214.0394c-2.7612-16.0723,3.4875-44.3625,6.3987-60.4083,5.4726-30.163,11.8889-60.1548,19.2365-89.9167-47.6349,32.1826-105.6211,55.2554-143.133,98.8175" style="fill: #fff;"/>
      <path d="M453.6126,212.8431c-1.5783-10.0834-.0131-20.8513,1.5198-30.843,1.6426-10.7065,3.7917-21.3347,5.7605-31.9845,5.2768-28.5431,11.4165-56.9201,18.3549-85.105.8828-3.5859-3.2094-7.3693-6.6105-5.0819-48.2801,32.4705-105.1153,54.7316-144.0437,99.5212-3.7838,4.3535,2.556,10.7453,6.364,6.364,38.4027-44.1848,94.5844-66.0754,142.2223-98.1139l-6.6105-5.0819c-7.2506,29.4534-13.6087,59.1154-19.0612,88.9542-3.7659,20.6092-9.8669,42.7264-6.574,63.7634.8931,5.7054,9.5669,3.2828,8.6785-2.3926h0Z"/>
    </g>
    <g>
      <path d="M146.8464,258.1384c-8.9025-5.3974-13.3098-16.0595-10.962-26.2022,14.4089-62.2476,117.1571-71.012,161.8132-70.4625,53.6729.6604,111.0095,11.9924,148.5341,50.3737,9.2604,9.4718,17.4921,22.346,14.2987,35.2018-1.8869,7.5961-7.5837,13.7935-14.1894,17.9919-37.9157,24.0985-84.3701-13.1029-123.471,9.0207-12.7523,7.2153-22.5773,23.5047-36.0272,17.6925-4.2713-1.8458-10.761-8.1989-14.2875-11.2346-31.39-27.0212-89.4223-.3814-125.709-22.3812Z" style="fill: #fff;"/>
      <path d="M149.1176,254.2527c-20.7788-13.4999-2.3273-41.4267,10.8643-53.0443,14.9049-13.1264,34.3353-20.5508,53.2849-25.5803,39.4797-10.4784,82.2304-12.1282,122.666-7.1959,28.0116,3.4168,56.1642,10.9653,80.4785,25.628,19.6293,11.8374,59.9565,44.6875,28.8857,66.2848-22.0397,15.3198-50.1535,6.462-74.4076,3.2275-12.3833-1.6514-25.1247-2.2673-37.2807,1.172-6.059,1.7143-11.985,4.3991-17.0962,8.0881-5.1177,3.6937-9.5784,8.2307-14.7417,11.8514-5.0749,3.5588-10.1865,5.1819-15.6573,1.454-4.9459-3.3702-8.9485-7.9421-13.7684-11.4841-9.2689-6.8115-20.5366-9.7379-31.8101-11.0064-24.8205-2.7927-50.3978,2.8397-74.9223-2.9041-5.8395-1.3677-11.323-3.4445-16.4952-6.4907-5.0017-2.9457-9.5353,4.8307-4.5425,7.7712,23.7219,13.971,52.7125,9.6622,78.9488,9.7688,12.74.0517,26.3764.7181,37.9252,6.6798,10.5873,5.4654,18.4837,19.2681,31.4578,19.0062,13.198-.2664,21.6946-13.4971,32.2343-19.5315,12.4295-7.1163,26.9214-7.4986,40.806-5.9836,26.8232,2.9268,55.5204,12.7067,80.7615-1.8881,12.7344-7.3633,21.4121-20.2975,18.2973-35.3914-3.0976-15.0104-15.4982-27.0746-26.9454-36.3547-23.4347-18.9981-52.1469-29.997-81.5472-35.7006-45.3479-8.7975-94.4976-7.8913-139.5089,2.7815-20.8547,4.9449-41.8932,12.5291-58.9689,25.8031-7.8855,6.1299-14.8286,13.5602-19.7603,22.2909-5.5178,9.7682-9.8461,22.0992-5.9686,33.173,2.2732,6.492,6.5261,11.6158,12.2685,15.3466,4.8712,3.1648,9.3871-4.6237,4.5425-7.7712Z"/>
    </g>
    <path d="M231.2972,216.0069c16.3458-1.4034,31.7859-7.0375,45.0313-16.7559,3.0811-2.2607.0913-7.4697-3.0283-5.1808-12.3606,9.0691-26.7069,14.6234-42.003,15.9367-3.8183.3278-3.853,6.3308,0,6h0Z"/>
    <path d="M314.1305,216.0069c16.3458-1.4034,31.7859-7.0375,45.0313-16.7559,3.0811-2.2607.0913-7.4697-3.0283-5.1808-12.3606,9.0691-26.7069,14.6234-42.003,15.9367-3.8183.3278-3.853,6.3308,0,6h0Z"/>
    <path d="M373.4056,233.8953c9.6153-12.3131,20.4708-23.5003,32.489-33.4817,2.9732-2.4693-1.2915-6.6936-4.2426-4.2426-12.0182,9.9814-22.8738,21.1686-32.489,33.4817-2.3494,3.0086,1.8675,7.2842,4.2426,4.2426h0Z"/>
    <path d="M378.8631,236.8771c12.6983-1.4777,25.3756-3.119,38.0327-4.9155,3.8074-.5404,2.1877-6.3226-1.595-5.7857-12.1261,1.7211-24.2722,3.2854-36.4377,4.7012-3.79.4411-3.8346,6.4462,0,6h0Z"/>
    <path d="M377.2781,243.1574c9.7774,4.214,19.3556,8.837,28.7374,13.8704,3.402,1.8252,6.4358-3.3527,3.0283-5.1808-9.3819-5.0334-18.9601-9.6564-28.7374-13.8704-3.5087-1.5122-6.5682,3.6552-3.0283,5.1808h0Z"/>
    <path d="M232.073,229.6527c-9.6153-12.3131-20.4708-23.5003-32.489-33.4817-2.9499-2.45-7.2172,1.7722-4.2426,4.2426,12.0182,9.9814,22.8738,21.1686,32.489,33.4817,2.3741,3.0402,6.593-1.2328,4.2426-4.2426h0Z"/>
    <path d="M222.3729,230.8771c-12.1655-1.4157-24.3116-2.98-36.4377-4.7012-3.7766-.536-5.4085,5.2444-1.595,5.7857,12.6571,1.7965,25.3344,3.4377,38.0327,4.9155,3.8282.4455,3.7963-5.5582,0-6h0Z"/>
    <path d="M220.9295,237.9766c-9.7774,4.214-19.3556,8.837-28.7374,13.8704-3.4038,1.8262-.3771,7.0078,3.0283,5.1808,9.3819-5.0334,18.9601-9.6564,28.7374-13.8704,3.5361-1.524.4837-6.6945-3.0283-5.1808h0Z"/>
    <ellipse cx="294.6864" cy="223.1905" rx="10.3791" ry="3.9896" style="stroke: #000; stroke-miterlimit: 10;"/>
    <path d="M286.8223,241.2646c4.9063,2.9276,10.2633,4.4846,15.9952,4.3741,2.5492-.0491,7.7155-1.2525,9.8372.6143,4.2227,3.7153-6.054,3.2879-8.0619,3.2278v6c2.2475-.218,3.4808.8227,2.6993,3.0542-.6479,1.85-1.2682,1.9156-3.0947,2.1801-2.5049.3628-4.9513-.2479-7.4277-.5387-4.0693-.4778-7.9668-.3877-11.3427,2.179-3.034,2.3068-.048,7.5198,3.0283,5.1808,6.849-5.2075,17.6618,3.5222,23.979-4.6367,4.4764-5.7814-.9035-14.0918-7.8415-13.4188-3.7825.3669-3.9301,5.8824,0,6,4.0677.1217,10.7015.3317,13.9948-2.5642,2.7264-2.3975,2.3085-6.4169.2886-9.1136-2.3945-3.1968-6.4897-4.3003-10.3074-4.4033-6.9879-.1886-12.3921.4588-18.7182-3.3159-3.3238-1.9833-6.3447,3.202-3.0283,5.1808h0Z"/>
    <path d="M268.5226,201.4639c.244,3.9876-1.7871,7.4106-3.8703,10.6679-2.9054,4.5427-6.141,6.5671-11.6497,5.2292-5.5007-1.3359-9.8749-4.7174-14.9755-6.9445-3.5041-1.5301-6.5622,3.6378-3.0283,5.1808,7.8453,3.4256,15.6823,10.0869,24.8852,7.8977,8.3421-1.9845,15.1357-13.909,14.6386-22.0311-.2348-3.8362-6.2364-3.8629-6,0h0Z"/>
    <path d="M259.7907,221.1111c7.7214,0,7.7342-12,0-12-7.7214,0-7.7342,12,0,12h0Z"/>
    <path d="M350.8335,201.4639c.2559,4.182-2.0001,7.9022-4.2569,11.2852-3.5469,5.3167-7.9825,5.7899-13.8419,3.8184-4.982-1.6763-9.5242-4.4376-14.3695-6.4534-3.561-1.4815-5.1144,4.3215-1.595,5.7857,7.6932,3.2007,15.8086,9.2438,24.5804,7.7169,8.802-1.5321,16.0003-13.6997,15.483-22.1528-.2348-3.8362-6.2364-3.8629-6,0h0Z"/>
    <path d="M342.1016,221.1111c7.7214,0,7.7342-12,0-12-7.7214,0-7.7342,12,0,12h0Z"/>
  </g>
</svg>