<?xml version="1.0" encoding="UTF-8"?>
<svg xmlns="http://www.w3.org/2000/svg" width="595.2756" height="841.8898" version="1.1" viewBox="0 0 595.2756 841.8898">
  <!-- Generator: Adobe Illustrator 29.4.0, SVG Export Plug-In . SVG Version: 2.1.0 Build 152)  -->
  <g id="left_leg">
    <g>
      <g>
        <path d="M214.0679,533.8117c38.6266,69.4661-3.1237,95.5151-57.929,128.7994-6.5699,3.99-3.5758,9.7302,3.3333,18.6667,10.6063,13.7184,27.6438,40.8183,41.4867,44.7461,4.8534,1.3771,10.6439,2.5998,15.0668-.5075,4.5571-3.2016,5.13-9.4618,3.5034-14.1455-4.5536-13.112-9.5013-21.7598-41.04-37.3675,35.4671-19.356,91.7416-40.939,92.4276-69.8367.8665-36.5026,0-57.3333-8.2569-80.6931" style="fill: #fff;"/>
        <path d="M210.1822,536.0829c11.1383,20.2536,20.4631,45.3263,9.3835,67.614-9.8663,19.847-30.1818,32.8738-48.3267,44.3347-5.5457,3.5028-11.2096,6.8171-16.7544,10.319-4.692,2.9633-7.5505,7.2349-6.0555,12.9415,1.6329,6.2329,6.4996,11.2908,10.2366,16.3497s7.3709,10.1877,11.1672,15.2003c6.9611,9.1916,14.6185,19.7805,24.9668,25.421,10.4381,5.6894,27.1027,5.5439,29.7314-8.7116,1.6463-8.9277-3.9855-19.4982-9.568-26.2003-8.8091-10.5759-22.1336-17.2154-34.2028-23.2335v7.7712c24.6669-13.3966,51.4871-23.9437,73.7647-41.3249,8.4999-6.6317,17.1238-15.0367,19.955-25.812,1.7704-6.7382,1.1274-14.1848,1.1835-21.0791.063-7.7456.0042-15.4983-.416-23.2344-.8188-15.0727-3.2719-29.8846-8.2484-44.1613-1.8944-5.4346-10.5921-3.0971-8.6785,2.3926,4.0192,11.5303,6.4946,23.398,7.5038,35.5653,1.2127,14.6193,1.9207,30.2266.5523,44.8417-.9281,9.9127-8.9699,17.6627-16.2774,23.5877-10.1116,8.1987-21.7573,14.5542-33.2345,20.6019-13.4724,7.099-27.2632,13.5827-40.6468,20.8513-2.8508,1.5483-3.0136,6.2685,0,7.7712,15.6802,7.8187,34.2685,16.8754,39.1518,35.2787.7284,2.7449.8518,6.2122-1.4687,8.3052-2.8729,2.5911-7.72,1.3479-11.0049.4139-4.3835-1.2464-7.9214-4.1367-11.1784-7.2338-8.5596-8.1396-15.3885-17.9776-22.3085-27.4879-3.3734-4.6361-7.1674-9.0938-10.2046-13.9546-.9668-1.5473-2.9444-4.1315-1.8146-5.9341,1.252-1.9976,5.7379-3.6469,7.7469-4.8751,9.7102-5.9367,19.3967-11.956,28.6155-18.6407,15.0508-10.9134,29.5806-23.9232,36.2798-41.7432,8.9516-23.8112-.4852-49.3956-12.0787-70.477-2.7917-5.0764-10.5667-.5408-7.7712,4.5425h0Z"/>
      </g>
      <g>
        <path d="M202.6353,707.9386c6.666,4.2488,10.6976,10.1658,10.9224,16.0303" style="fill: #fff;"/>
        <path d="M201.1211,710.529c4.6491,3.0761,9.0327,7.5932,9.4366,13.4399.2646,3.8309,6.2667,3.8602,6,0-.5611-8.1217-5.8472-14.2796-12.4082-18.6207-3.2294-2.1368-6.2379,3.0572-3.0283,5.1808h0Z"/>
      </g>
      <g>
        <path d="M197.2918,713.6612c2.6013,3.806,4.4418,7.7922,5.4531,11.8108" style="fill: #fff;"/>
        <path d="M194.7014,715.1754c2.3131,3.4575,4.0844,7.0656,5.1507,11.0941.9871,3.7293,6.7763,2.1476,5.7857-1.595-1.1875-4.4867-3.1788-8.6758-5.7555-12.5274-2.1365-3.1936-7.336-.1931-5.1808,3.0283h0Z"/>
      </g>
    </g>
    <g>
      <g>
        <path d="M315.3068,533.8117c38.6266,69.4661-3.1237,95.5151-57.929,128.7994-6.5699,3.99-3.5758,9.7302,3.3333,18.6667,10.6063,13.7184,27.6438,40.8183,41.4867,44.7461,4.8534,1.3771,10.6439,2.5998,15.0668-.5075,4.5571-3.2016,5.13-9.4618,3.5034-14.1455-4.5536-13.112-9.5013-21.7598-41.04-37.3675,35.4671-19.356,91.7416-40.939,92.4276-69.8367.8665-36.5026,0-57.3333-8.2569-80.6931" style="fill: #fff;"/>
        <path d="M311.4211,536.0829c11.1383,20.2536,20.4631,45.3263,9.3835,67.614-9.8663,19.847-30.1818,32.8738-48.3267,44.3347-5.5457,3.5028-11.2096,6.8171-16.7544,10.319-4.692,2.9633-7.5505,7.2349-6.0555,12.9415,1.6329,6.2329,6.4996,11.2908,10.2366,16.3497s7.3709,10.1877,11.1672,15.2003c6.9611,9.1916,14.6185,19.7805,24.9668,25.421,10.4381,5.6894,27.1027,5.5439,29.7314-8.7116,1.6463-8.9277-3.9855-19.4982-9.568-26.2003-8.8091-10.5759-22.1336-17.2154-34.2028-23.2335v7.7712c24.6669-13.3966,51.4871-23.9437,73.7647-41.3249,8.4999-6.6317,17.1238-15.0367,19.955-25.812,1.7704-6.7382,1.1274-14.1848,1.1835-21.0791.063-7.7456.0042-15.4983-.416-23.2344-.8188-15.0727-3.2719-29.8846-8.2484-44.1613-1.8944-5.4346-10.5921-3.0971-8.6785,2.3926,4.0192,11.5303,6.4946,23.398,7.5038,35.5653,1.2127,14.6193,1.9207,30.2266.5523,44.8417-.9281,9.9127-8.9699,17.6627-16.2774,23.5877-10.1116,8.1987-21.7573,14.5542-33.2345,20.6019-13.4724,7.099-27.2632,13.5827-40.6468,20.8513-2.8508,1.5483-3.0136,6.2685,0,7.7712,15.6802,7.8187,34.2685,16.8754,39.1518,35.2787.7284,2.7449.8518,6.2122-1.4687,8.3052-2.8729,2.5911-7.72,1.3479-11.0049.4139-4.3835-1.2464-7.9214-4.1367-11.1784-7.2338-8.5596-8.1396-15.3885-17.9776-22.3085-27.4879-3.3734-4.6361-7.1674-9.0938-10.2046-13.9546-.9668-1.5473-2.9444-4.1315-1.8146-5.9341,1.252-1.9976,5.7379-3.6469,7.7469-4.8751,9.7102-5.9367,19.3967-11.956,28.6155-18.6407,15.0508-10.9134,29.5806-23.9232,36.2798-41.7432,8.9516-23.8112-.4852-49.3956-12.0787-70.477-2.7917-5.0764-10.5667-.5408-7.7712,4.5425h0Z"/>
      </g>
      <g>
        <path d="M303.8742,707.9386c6.666,4.2488,10.6976,10.1658,10.9224,16.0303" style="fill: #fff;"/>
        <path d="M302.36,710.529c4.6491,3.0761,9.0327,7.5932,9.4366,13.4399.2646,3.8309,6.2667,3.8602,6,0-.5611-8.1217-5.8472-14.2796-12.4082-18.6207-3.2294-2.1368-6.2379,3.0572-3.0283,5.1808h0Z"/>
      </g>
      <g>
        <path d="M298.5307,713.6612c2.6013,3.806,4.4418,7.7922,5.4531,11.8108" style="fill: #fff;"/>
        <path d="M295.9403,715.1754c2.3131,3.4575,4.0844,7.0656,5.1507,11.0941.9871,3.7293,6.7763,2.1476,5.7857-1.595-1.1875-4.4867-3.1788-8.6758-5.7555-12.5274-2.1365-3.1936-7.336-.1931-5.1808,3.0283h0Z"/>
      </g>
    </g>
  </g>
  <g id="left_arm">
    <g>
      <path d="M248.295,381.1857c-29.198-2.4885-76.9144-20.2908-99.4-1.4995-22.4856,18.7913-27.2273,65.2872-38.3796,92.386-7.0493-3.7171-15.4893-4.7159-23.2114-2.7467-4.5427,1.1584-9.0602,3.5279-11.3738,7.6053s-1.5787,10.0573,2.4503,12.4541c4.6007,2.7368,10.3829-.1607,14.9149-3.0099-2.647,4.234-5.3873,9.3458-3.4778,13.9597,1.978,4.7795,8.4217,6.4212,13.2477,4.5596,4.826-1.8616,8.2119-6.252,10.7096-10.7816-2.8619,5.7179,1.9646,13.6502,8.3581,13.7366,6.3936.0864,11.4326-7.7125,8.7263-13.5057,4.0129,1.8787,8.9682,3.7003,12.6029,1.1661,3.7216-2.5948,3.5178-8.5336.7878-12.1572-2.73-3.6236-7.1343-5.5007-11.3318-7.2225-1.575-3.9742.3737-15.941,2.3318-19.7412,9.6012-18.6332,19.6018-40.8792,34.2972-48.1379,20.1536-9.9547,37.7909,17.4234,44.0627,21.2824" style="fill: #fff;"/>
      <path d="M248.295,376.6857c-27.8457-2.5395-56.1213-14.2953-84.3049-8.6584-27.2514,5.4504-37.3451,34.6855-44.2927,58.2353-4.3898,14.8799-7.6859,30.2009-13.5212,44.6133l6.6105-2.6893c-12.1604-5.9951-33.6716-7.328-41.0196,7.0505-2.8007,5.4803-2.018,12.8933,2.8696,16.9432,6.4446,5.3402,14.7113,1.8727,20.93-1.9197l-6.1569-6.1569c-5.1707,8.4797-7.6544,21.0732,4.206,25.1468,10.5533,3.6247,19.1508-4.3438,24.0447-12.8667-2.7416-1.1558-5.4832-2.3117-8.2249-3.4675-3.4993,8.5578,3.2644,19.3696,12.6974,19.4329,9.4719.0636,16.3391-10.5348,13.0656-19.202l-6.6105,5.0819c8.1253,3.668,20.0903,4.9078,21.9866-6.6028,1.7658-10.7184-8.0546-16.3527-16.4602-19.8356l3.143,3.143c-3.1079-9.774,4.254-21.0546,8.4686-29.1879,5.7108-11.0208,11.9488-23.9673,22.3419-31.3658,9.082-6.4652,18.4119-3.2275,26.4316,3.2387,5.9494,4.797,10.4746,11.5735,16.8392,15.8002,4.8386,3.2133,9.3506-4.5782,4.5425-7.7712-2.3984-1.5927-4.8077-4.6605-6.9941-6.8946-3.5078-3.5843-7.1616-7.0081-11.2104-9.9807-8.5406-6.2702-19.121-9.4564-29.2181-4.9501-11.4982,5.1315-19.0761,16.8689-25.1061,27.3917-6.1072,10.6575-13.3549,22.0563-15.0133,34.4095-.7491,5.5798-1.776,12.5959,4.2494,15.213,3.3179,1.4411,7.851,3.271,8.9637,7.0787,1.7421,5.9616-5.3148,3.9451-8.4218,2.5426-3.1559-1.4247-8.147,1.0137-6.6105,5.0819,1.1458,3.0337-.396,7.9186-4.3871,7.8094-4.0021-.1095-5.2479-5.0347-4.0189-8.0403,1.9577-4.7876-5.7442-7.7877-8.2249-3.4675-2.3839,4.1516-6.0575,9.7275-11.561,9.2869-7.5577-.6051-3.5265-8.5801-1.1472-12.4821,2.3346-3.8287-2.3254-8.4934-6.1569-6.1569-2.7178,1.6574-8.7652,5.8034-11.3244,1.975-2.2872-3.4216,1.2355-7.2946,3.9642-8.8976,7.3345-4.3087,17.2551-3.2203,24.5802.391,2.8344,1.3974,5.4741.1175,6.6105-2.6893,9.7437-24.0655,12.4081-50.7599,24.6003-73.8912,5.4628-10.3642,12.8072-19.1647,24.5563-22.1373,12.9968-3.2883,27.2261-1.219,40.2299.9736,14.675,2.4743,29.2082,6.1183,44.0538,7.4722,5.7659.5258,5.7302-8.4774,0-9h0Z"/>
    </g>
    <g>
      <path d="M335.2796,381.1857c29.198-2.4885,76.9144-20.2908,99.4-1.4995,22.4856,18.7913,27.2273,65.2872,38.3796,92.386,7.0493-3.7171,15.4893-4.7159,23.2114-2.7467,4.5427,1.1584,9.0602,3.5279,11.3738,7.6053s1.5787,10.0573-2.4503,12.4541c-4.6007,2.7368-10.3829-.1607-14.9149-3.0099,2.647,4.234,5.3873,9.3458,3.4778,13.9597-1.978,4.7795-8.4217,6.4212-13.2477,4.5596-4.826-1.8616-8.2119-6.252-10.7096-10.7816,2.8619,5.7179-1.9646,13.6502-8.3581,13.7366-6.3936.0864-11.4326-7.7125-8.7263-13.5057-4.0129,1.8787-8.9682,3.7003-12.6029,1.1661-3.7216-2.5948-3.5178-8.5336-.7878-12.1572s7.1343-5.5007,11.3318-7.2225c1.575-3.9742-.3737-15.941-2.3318-19.7412-9.6012-18.6332-19.6018-40.8792-34.2972-48.1379-20.1536-9.9547-37.7909,17.4234-44.0627,21.2824" style="fill: #fff;"/>
      <path d="M335.2796,385.6857c26.2262-2.3918,52.8957-13.233,79.4477-9.4098,26.712,3.8462,35.0546,33.4382,41.451,55.7489,3.9542,13.7922,7.1452,27.915,12.5417,41.2436,1.1364,2.8068,3.7761,4.0867,6.6105,2.6893,7.3336-3.6155,17.2425-4.7016,24.5802-.391,2.8016,1.6459,5.6348,4.7717,4.1919,8.2727-1.9885,4.8247-8.7414.364-11.5521-1.35-3.8288-2.3349-8.4931,2.3255-6.1569,6.1569,2.3972,3.9314,6.3906,11.8786-1.1472,12.4821-5.5031.4406-9.1831-5.1457-11.561-9.2869-2.4537-4.2732-10.2034-1.3712-8.2249,3.4675,1.223,2.9909-.0005,7.9304-4.0189,8.0403-3.9762.1088-5.5385-4.7608-4.3871-7.8094,1.5414-4.0812-3.4365-6.5147-6.6105-5.0819-2.6182,1.1819-7.8468,3.5501-8.6037-.6451-.6598-3.657,3.5085-6.2183,6.2119-7.6172,2.6672-1.3802,5.7449-1.8413,6.9434-4.8693.8183-2.0674.789-4.6511.7093-6.8436-.4562-12.5493-6.5721-22.79-12.3597-33.6082-6.0141-11.2415-12.9676-23.3803-23.8176-30.6309-9.3575-6.2532-20.3052-5.6364-29.787-.0357-5.0357,2.9745-9.4776,6.9554-13.5989,11.0722-2.6715,2.6686-5.5114,6.4172-8.4483,8.3676-4.8029,3.1896-.301,10.9877,4.5425,7.7712,6.1991-4.1168,10.6674-10.6928,16.3936-15.4352,8.0637-6.6783,17.6052-10.2042,26.8772-3.6038,10.1812,7.2477,16.3508,19.8484,21.9656,30.6421,4.3166,8.2981,12.025,19.9105,8.8448,29.9116l3.143-3.143c-8.4077,3.4837-18.2261,9.1176-16.4602,19.8356,1.8965,11.5107,13.8649,10.2692,21.9866,6.6028l-6.6105-5.0819c-3.2731,8.6662,3.5937,19.2655,13.0656,19.202,9.4329-.0633,16.197-10.8744,12.6974-19.4329-2.7416,1.1558-5.4832,2.3117-8.2249,3.4675,4.8938,8.5226,13.4979,16.4887,24.0447,12.8667,11.873-4.0775,9.3755-16.6691,4.206-25.1468l-6.1569,6.1569c6.0972,3.7182,13.9833,7.0892,20.4747,2.2715,5.282-3.9201,6.2101-11.6496,3.325-17.295-7.3478-14.378-28.8627-13.044-41.0196-7.0505l6.6105,2.6893c-10.3459-25.5528-13.0016-54.0104-26.7185-78.2601-6.0475-10.6911-14.448-19.677-26.4238-23.4088-13.1044-4.0835-27.4872-2.6206-40.8279-.6923-16.0965,2.3265-31.9366,6.6926-48.1487,8.1711-5.7207.5217-5.7755,9.5267,0,9h0Z"/>
    </g>
  </g>
  <g id="body">
    <g>
      <path d="M289.7936,549.1847c13.1701,0,53.8157.3386,62.4908-2.6864,31.9654-11.1461,53.3336-51.2746,48.9981-89.0278-4.3355-37.7531-32.6449-69.6537-65.5638-76.2849-3.4276-31.8929-4.7684-64.0122-4.0161-96.0799.2014-8.5864,2.8998-13.3818-6.2646-14.701-7.9716-1.1475-16.6456-.5528-24.6941-.6399-13.1512-.1423-26.3057.0331-39.4484.5255-8.3185.3117-9.1283-.8144-9.1952,7.3959-.058,7.1204.3733,14.2651.4051,21.3903.1221,27.4194-1.2804,54.8463-4.2104,82.1091-32.919,6.6312-61.2283,38.5318-65.5638,76.2849-4.3355,37.7531,17.0328,77.8817,48.9981,89.0278,8.6751,3.025,47.2356,2.6977,58.0643,2.6864" style="fill: #fff;"/>
      <path d="M289.7936,553.6847c16.0955.0061,32.2332.194,48.3056-.8116,6.5653-.4108,12.9554-.9129,19.0685-3.4684,8.9895-3.7579,17.0096-9.5754,23.7038-16.6344,29.7438-31.3646,33.2719-81.2195,9.9375-117.1532-12.353-19.0229-31.4657-34.0181-53.894-38.7708l3.3037,4.3393c-2.4874-23.4391-3.91-46.9804-4.173-70.5509-.1173-10.5169-.1059-21.0318.573-31.5259.4172-6.4494-1.9705-11.2612-8.6339-12.8061-9.9726-2.3122-21.0355-1.0102-31.1864-1.071-11.8419-.0709-23.6679.2037-35.503.5587-5.1856.1555-11.3965-.3341-13.1617,5.788-1.0734,3.7228-.5606,8.1392-.4898,11.9382.1089,5.8411.3537,11.6754.3675,17.5185.0631,26.7713-1.3916,53.5309-4.2166,80.1506l3.3037-4.3393c-40.4653,8.5748-68.9682,49.1221-69.42,89.478-.2326,20.777,6.4723,41.9814,18.9434,58.6336,10.0972,13.4824,24.6262,25.3175,41.8133,27.3074,16.9748,1.9653,34.2984,1.444,51.3582,1.4193,5.7907-.0084,5.801-9.0084,0-9-13.7271.0199-27.4713.1017-41.1842-.6229-5.6148-.2967-11.5944-.3607-16.9239-2.3516-8.2688-3.0889-15.6136-8.4913-21.7025-14.8089-27.4621-28.4936-30.2895-74.0219-9.0071-106.7417,11.1554-17.1503,28.3367-30.3587,48.5154-34.6347,2.0798-.4407,3.1015-2.4334,3.3037-4.3393,2.1706-20.453,3.5351-40.9827,4.0154-61.5459.2359-10.097.2752-20.1915-.0125-30.2874-.1272-4.4647.193-9.0733-.1584-13.5109-.1708-2.1567.7793-1.5467-.5388-1.1002-1.0052.3405,2.5125.1189,2.6908.1145,19.2692-.4762,38.6219-1.1622,57.8973-.6242,2.3009.0642,9.2998-.5274,10.8515,1.3455.9794,1.1821-.1116,5.5228-.2078,6.9429-.653,9.644-.3951,19.4367-.2745,29.0967.2902,23.2429,1.7078,46.4553,4.1607,69.569.201,1.8936,1.2468,3.9034,3.3037,4.3393,38.2417,8.1036,64.2226,47.1531,62.751,85.2311-.7296,18.8795-7.7041,38.115-19.9968,52.5634-5.8943,6.9279-12.9542,12.8004-21.1746,16.764-5.5241,2.6635-10.8844,3.3125-16.939,3.7209-16.4199,1.1077-32.922.8866-49.3694.8804-5.7912-.0022-5.8006,8.9978,0,9h0Z"/>
    </g>
  </g>
  <g id="head">
    <g>
      <path d="M154.897,227.5516c2.7612-16.0723.1146-32.5347-2.7966-48.5805-5.4726-30.163-11.8889-60.1548-19.2365-89.9167,47.6349,32.1826,106.1089,58.4031,143.6209,101.9653" style="fill: #fff;"/>
      <path d="M159.2363,228.7479c3.6812-23.1705-1.8162-46.5472-6.231-69.2419-4.6707-24.0104-9.9553-47.8968-15.8021-71.6479-2.2035,1.694-4.407,3.3879-6.6105,5.0819,48.1969,32.4415,103.9444,56.6315,142.7101,101.2616,3.805,4.3806,10.1479-2.0076,6.364-6.364-39.2767-45.2185-95.7051-69.8036-144.5316-102.6689-3.4008-2.2891-7.4967,1.482-6.6105,5.0819,5.535,22.4843,10.5677,45.0895,15.0497,67.8074,4.3595,22.0969,10.5755,45.6871,6.9833,68.2972-.9002,5.6661,7.7708,8.1059,8.6785,2.3926h0Z"/>
    </g>
    <g>
      <path d="M446.5938,244.6383c-2.7612-16.0723,3.4875-44.3625,6.3987-60.4083,5.4726-30.163,11.8889-60.1548,19.2365-89.9167-47.6349,32.1826-105.6211,55.2554-143.133,98.8175" style="fill: #fff;"/>
      <path d="M450.9331,243.442c-1.5783-10.0834-.0131-20.8513,1.5198-30.843,1.6426-10.7065,3.7917-21.3347,5.7605-31.9845,5.2768-28.5431,11.4165-56.9201,18.3549-85.105.8828-3.5859-3.2094-7.3693-6.6105-5.0819-48.2801,32.4705-105.1153,54.7316-144.0437,99.5212-3.7838,4.3535,2.556,10.7453,6.364,6.364,38.4027-44.1848,94.5844-66.0754,142.2223-98.1139l-6.6105-5.0819c-7.2506,29.4534-13.6087,59.1154-19.0612,88.9542-3.7659,20.6092-9.8669,42.7264-6.574,63.7634.8931,5.7054,9.5669,3.2828,8.6785-2.3926h0Z"/>
    </g>
    <g>
      <path d="M144.1668,288.7373c-8.9025-5.3974-13.3098-16.0595-10.962-26.2022,14.4089-62.2476,117.1571-71.012,161.8132-70.4625,53.6729.6604,111.0095,11.9924,148.5341,50.3737,9.2604,9.4718,17.4921,22.346,14.2987,35.2018-1.8869,7.5961-7.5837,13.7935-14.1894,17.9919-37.9157,24.0985-84.3701-13.1029-123.471,9.0207-12.7523,7.2153-22.5773,23.5047-36.0272,17.6925-4.2713-1.8458-10.761-8.1989-14.2875-11.2346-31.39-27.0212-89.4223-.3814-125.709-22.3812Z" style="fill: #fff;"/>
      <path d="M146.4381,284.8516c-20.7788-13.4999-2.3273-41.4267,10.8643-53.0443,14.9049-13.1264,34.3353-20.5508,53.2849-25.5803,39.4797-10.4784,82.2304-12.1282,122.666-7.1959,28.0116,3.4168,56.1642,10.9653,80.4785,25.628,19.6293,11.8374,59.9565,44.6875,28.8857,66.2848-22.0397,15.3198-50.1535,6.462-74.4076,3.2275-12.3833-1.6514-25.1247-2.2673-37.2807,1.172-6.059,1.7143-11.985,4.3991-17.0962,8.0881-5.1177,3.6937-9.5784,8.2307-14.7417,11.8514-5.0749,3.5588-10.1865,5.1819-15.6573,1.454-4.9459-3.3702-8.9485-7.9421-13.7684-11.4841-9.2689-6.8115-20.5366-9.7379-31.8101-11.0064-24.8205-2.7927-50.3978,2.8397-74.9223-2.9041-5.8395-1.3677-11.323-3.4445-16.4952-6.4907-5.0017-2.9457-9.5353,4.8307-4.5425,7.7712,23.7219,13.971,52.7125,9.6622,78.9488,9.7688,12.74.0517,26.3764.7181,37.9252,6.6798,10.5873,5.4654,18.4837,19.2681,31.4578,19.0062,13.198-.2664,21.6946-13.4971,32.2343-19.5315,12.4295-7.1163,26.9214-7.4986,40.806-5.9836,26.8232,2.9268,55.5204,12.7067,80.7615-1.8881,12.7344-7.3633,21.4121-20.2975,18.2973-35.3914-3.0976-15.0104-15.4982-27.0746-26.9454-36.3547-23.4347-18.9981-52.1469-29.997-81.5472-35.7006-45.3479-8.7975-94.4976-7.8913-139.5089,2.7815-20.8547,4.9449-41.8932,12.5291-58.9689,25.8031-7.8855,6.1299-14.8286,13.5602-19.7603,22.2909-5.5178,9.7682-9.8461,22.0992-5.9686,33.173,2.2732,6.492,6.5261,11.6158,12.2685,15.3466,4.8712,3.1648,9.3871-4.6237,4.5425-7.7712Z"/>
    </g>
    <path d="M228.6176,246.6058c16.3458-1.4034,31.7859-7.0375,45.0313-16.7559,3.0811-2.2607.0913-7.4697-3.0283-5.1808-12.3606,9.0691-26.7069,14.6234-42.003,15.9367-3.8183.3278-3.853,6.3308,0,6h0Z"/>
    <g>
      <path d="M242.9987,242.4161c-.128,1.1492.2457,2.2986.7481,3.3401.6684,1.3856,1.6124,2.6914,2.9391,3.4702,1.5694.9213,3.5574,1.0005,5.2742.3968s3.168-1.8415,4.2189-3.3273c1.8937-2.6776,2.5124-6.2174,1.639-9.3786"/>
      <path d="M241.4987,242.4161c-.1796,2.2898.9892,4.6325,2.4101,6.3634,1.4108,1.7186,3.4928,2.7056,5.7149,2.7307,4.5263.0512,8.1031-3.6335,9.4493-7.6968.7771-2.3457.8207-4.9116.1914-7.2948-.4924-1.865-3.387-1.074-2.8928.7975,1.0113,3.8302-.3969,8.4688-3.9847,10.4745-1.6276.9099-3.7797,1.0479-5.3305-.1085-1.5152-1.1299-2.7061-3.3726-2.5576-5.266.0634-.8086-.7348-1.5-1.5-1.5-.8644,0-1.4364.689-1.5,1.5h0Z"/>
    </g>
    <path d="M311.4509,246.6058c16.3458-1.4034,31.7859-7.0375,45.0313-16.7559,3.0811-2.2607.0913-7.4697-3.0283-5.1808-12.3606,9.0691-26.7069,14.6234-42.003,15.9367-3.8183.3278-3.853,6.3308,0,6h0Z"/>
    <g>
      <path d="M325.8321,242.4161c-.128,1.1492.2457,2.2986.7481,3.3401.6684,1.3856,1.6124,2.6914,2.9391,3.4702,1.5694.9213,3.5574,1.0005,5.2742.3968s3.168-1.8415,4.2189-3.3273c1.8937-2.6776,2.5124-6.2174,1.639-9.3786"/>
      <path d="M324.3321,242.4161c-.1796,2.2898.9892,4.6325,2.4101,6.3634,1.4108,1.7186,3.4928,2.7056,5.7149,2.7307,4.5263.0512,8.1031-3.6335,9.4493-7.6968.7771-2.3457.8207-4.9116.1914-7.2948-.4924-1.865-3.387-1.074-2.8928.7975,1.0113,3.8302-.3969,8.4688-3.9847,10.4745-1.6276.9099-3.7797,1.0479-5.3305-.1085-1.5152-1.1299-2.7061-3.3726-2.5576-5.266.0634-.8086-.7348-1.5-1.5-1.5-.8644,0-1.4364.689-1.5,1.5h0Z"/>
    </g>
    <path d="M370.726,264.4942c9.6153-12.3131,20.4708-23.5003,32.489-33.4817,2.9732-2.4693-1.2915-6.6936-4.2426-4.2426-12.0182,9.9814-22.8738,21.1686-32.489,33.4817-2.3494,3.0086,1.8675,7.2842,4.2426,4.2426h0Z"/>
    <path d="M376.1835,267.476c12.6983-1.4777,25.3756-3.119,38.0327-4.9155,3.8074-.5404,2.1877-6.3226-1.595-5.7857-12.1261,1.7211-24.2722,3.2854-36.4377,4.7012-3.79.4411-3.8346,6.4462,0,6h0Z"/>
    <path d="M374.5985,273.7563c9.7774,4.214,19.3556,8.837,28.7374,13.8704,3.402,1.8252,6.4358-3.3527,3.0283-5.1808-9.3819-5.0334-18.9601-9.6564-28.7374-13.8704-3.5087-1.5122-6.5682,3.6552-3.0283,5.1808h0Z"/>
    <path d="M229.3934,260.2515c-9.6153-12.3131-20.4708-23.5003-32.489-33.4817-2.9499-2.45-7.2172,1.7722-4.2426,4.2426,12.0182,9.9814,22.8738,21.1686,32.489,33.4817,2.3741,3.0402,6.593-1.2328,4.2426-4.2426h0Z"/>
    <path d="M219.6933,261.476c-12.1655-1.4157-24.3116-2.98-36.4377-4.7012-3.7766-.536-5.4085,5.2444-1.595,5.7857,12.6571,1.7965,25.3344,3.4377,38.0327,4.9155,3.8282.4455,3.7963-5.5582,0-6h0Z"/>
    <path d="M218.25,268.5755c-9.7774,4.214-19.3556,8.837-28.7374,13.8704-3.4038,1.8262-.3771,7.0078,3.0283,5.1808,9.3819-5.0334,18.9601-9.6564,28.7374-13.8704,3.5361-1.524.4837-6.6945-3.0283-5.1808h0Z"/>
    <ellipse cx="292.0069" cy="253.7894" rx="10.3791" ry="3.9896" style="stroke: #000; stroke-miterlimit: 10;"/>
    <path d="M284.1428,271.8635c4.9063,2.9276,10.2633,4.4846,15.9952,4.3741,2.5492-.0491,7.7155-1.2525,9.8372.6143,4.2227,3.7153-6.054,3.2879-8.0619,3.2278v6c2.2475-.218,3.4808.8227,2.6993,3.0542-.6479,1.85-1.2682,1.9156-3.0947,2.1801-2.5049.3628-4.9513-.2479-7.4277-.5387-4.0693-.4778-7.9668-.3877-11.3427,2.179-3.034,2.3068-.048,7.5198,3.0283,5.1808,6.849-5.2075,17.6618,3.5222,23.979-4.6367,4.4764-5.7814-.9035-14.0918-7.8415-13.4188-3.7825.3669-3.9301,5.8824,0,6,4.0677.1217,10.7015.3317,13.9948-2.5642,2.7264-2.3975,2.3085-6.4169.2886-9.1136-2.3945-3.1968-6.4897-4.3003-10.3074-4.4033-6.9879-.1886-12.3921.4588-18.7182-3.3159-3.3238-1.9833-6.3447,3.202-3.0283,5.1808h0Z"/>
  </g>
</svg>