<?xml version="1.0" encoding="UTF-8"?>
<svg id="head" xmlns="http://www.w3.org/2000/svg" width="595.2756" height="841.8898" version="1.1" viewBox="0 0 595.2756 841.8898">
  <!-- Generator: Adobe Illustrator 29.4.0, SVG Export Plug-In . SVG Version: 2.1.0 Build 152)  -->
  <g>
    <g>
      <path d="M260.272,550.0035c-46.0261,47.305-77.1467,117.3815-105.9916,177.6976-16.3199-7.9617-32.6399-15.9235-48.9598-23.8852-4.3375-2.116-9.1555-4.988-9.405-10.5218-.257-5.7017,4.6832-11.2599,9.7211-14.0404,14.1035-7.784,34.2475,8.1682,43.357,19.0424,13.3174-52.3669,43.8469-114.4583,75.7098-159.3004" style="fill: #fff;"/>
      <path d="M257.09,546.8215c-48.5986,50.268-76.9593,116.3893-106.6952,178.6084l6.1569-1.6144c-11.3657-5.5448-22.7314-11.0895-34.097-16.6343-5.3133-2.5921-10.7182-5.0524-15.9543-7.7967-4.5008-2.359-7.8428-5.4982-4.6824-10.6809,11.1387-18.2664,35.3635,2.6649,43.9937,12.7746,2.2222,2.6032,6.7235,1.1187,7.5212-1.9857,14.4899-56.3855,41.7012-110.8102,75.2562-158.2254,3.3523-4.737-4.4484-9.2378-7.7712-4.5425-17.3099,24.4599-32.2751,50.5912-45.1883,77.6193-12.7003,26.5824-23.6345,54.1907-30.9752,82.756l7.5212-1.9857c-12.9048-15.1171-41.3914-34.5925-57.2707-12.2069-3.3364,4.7035-4.8089,11.0355-1.9101,16.3392,2.8555,5.2246,8.4581,7.6763,13.5517,10.1612,15.1542,7.393,30.3085,14.7861,45.4627,22.1791,2.0424.9964,5.0469.708,6.1569-1.6144,29.3766-61.4672,57.2761-127.1258,105.2879-176.7869,4.0275-4.1658-2.329-10.5376-6.364-6.364h0Z"/>
    </g>
    <g>
      <path d="M116.6857,711.3572c6.3507-4.8912,14.048-6.924,20.8536-5.5073" style="fill: #fff;"/>
      <path d="M118.1999,713.9477c5.4131-3.9772,11.7564-6.407,18.5419-5.2048,3.7759.669,5.3966-5.1122,1.595-5.7857-8.3608-1.4812-16.3679.8154-23.1653,5.8097-3.0793,2.2625-.0896,7.4717,3.0283,5.1808h0Z"/>
    </g>
    <g>
      <path d="M108.1522,701.461c.0768-.7335.8225-1.1686,1.441-1.4162,4.7576-1.9044,9.6459-3.077,14.484-3.4745" style="fill: #fff;"/>
      <path d="M110.7426,702.9752c.5342-1.2613,5.038-1.8831,6.3013-2.2025,2.3174-.5859,4.6547-.9778,7.0333-1.2024,3.8111-.3597,3.8486-6.3633,0-6-3.6797.3473-7.314.9674-10.858,2.0328-2.6064.7836-6.4771,1.5572-7.6574,4.3437-1.4885,3.5144,3.6782,6.5759,5.1808,3.0283h0Z"/>
    </g>
  </g>
  <g>
    <g>
      <path d="M362.0727,546.4556c10.1785,65.2117,45.3176,119.5016,76.2183,178.7908-16.1677,8.2666-32.3353,16.5331-48.503,24.7997-4.297,2.1971-9.487,4.3244-14.0614,1.2002-4.7131-3.219-6.19-10.5073-5.3873-16.2052,2.2471-15.9514,27.1003-22.4764,41.2659-23.2286-33.871-42.1-69.6111-110.7001-86.3269-163.1086" style="fill: #fff;"/>
      <path d="M357.7334,547.6519c10.4608,65.4915,46.4978,122.083,76.6719,179.8657l1.6144-6.1569c-12.1258,6.1999-24.2515,12.3998-36.3773,18.5998-5.139,2.6276-10.866,6.7828-16.5393,8.0176-6.2124,1.3522-8.4158-4.5705-8.461-9.7626-.1422-16.3329,24.5563-21.144,36.963-21.9032,4.1322-.2529,5.6237-4.6321,3.182-7.682-18.9638-23.6865-34.7721-49.9747-48.8925-76.7781-14.265-27.0778-26.9091-55.1793-36.2771-84.3447-1.7643-5.4927-10.4569-3.1441-8.6785,2.3926,9.5995,29.8859,22.5671,58.748,37.1844,86.4946,14.4983,27.5207,30.8344,54.2866,50.2998,78.5996l3.182-7.682c-18.6899,1.1438-48.2909,9.5868-45.7917,33.5271.5687,5.4477,2.8416,11.2203,7.6419,14.2923,6.0548,3.8748,12.6882,1.7007,18.6038-1.2002,16.2955-7.9908,32.3432-16.5371,48.503-24.7997,2.2359-1.1432,2.6885-4.0999,1.6144-6.1569-29.8406-57.1441-65.4192-112.9462-75.7647-177.7158-.9111-5.7038-9.585-3.2828-8.6785,2.3926h0Z"/>
    </g>
    <g>
      <path d="M387.4611,749.5128c1.0842-7.9423,5.1348-14.796,10.9738-18.5682" style="fill: #fff;"/>
      <path d="M390.3539,750.3103c1.0369-6.6396,3.9127-12.8959,9.5952-16.7753,3.1701-2.1642.1721-7.3657-3.0283-5.1808-6.9576,4.7499-11.0631,12.1044-12.3525,20.3611-.5899,3.7774,5.1907,5.4048,5.7857,1.595h0Z"/>
    </g>
    <g>
      <path d="M374.4359,748.4636c-.4606-.576-.2355-1.4095.0308-2.0202,2.0484-4.6973,4.704-8.9657,7.8682-12.6471" style="fill: #fff;"/>
      <path d="M377.3287,747.666c-.4364-1.0984,2.3604-4.9681,2.9829-5.9885,1.2366-2.0274,2.6157-3.9427,4.1447-5.7599,2.4709-2.9366-1.7525-7.2022-4.2426-4.2426-2.2878,2.7191-4.3594,5.5984-6.0902,8.7057-1.386,2.4882-3.7468,5.9446-2.5804,8.8804,1.4088,3.5459,7.2139,1.9999,5.7857-1.595h0Z"/>
    </g>
  </g>
  <g>
    <path d="M231.4911,388.5041c-29.0645,3.7378-55.3349,21.1923-73.3418,44.3109-18.0068,23.1186-28.3053,51.5108-33.4793,80.3543-7.6756-2.1435-16.136-1.3362-23.2676,2.2204-4.1953,2.0922-8.11,5.3629-9.5098,9.8371-1.3997,4.4742.5823,10.1638,5.0268,11.655,5.0751,1.7028,10.1145-2.3512,13.942-6.0937-1.6924,4.6978-3.2906,10.2732-.4493,14.3794,2.9433,4.2536,9.5884,4.4965,13.9121,1.6571,4.3236-2.8394,6.7052-7.8461,8.1894-12.8013-1.5889,6.1936,4.8048,12.9268,11.0722,11.6601,6.2674-1.2666,9.5446-9.9543,5.6752-15.0447,4.3193.9882,9.5476,1.7216,12.5647-1.5235,3.0892-3.3227,1.6351-9.0842-1.799-12.0491-3.4341-2.9649-8.1356-3.8689-12.6021-4.6647-2.3792-3.5517-.9601-8.3174.6603-12.2733,5.395-13.1706,27.9498-47.3842,39.96-43.1539" style="fill: #fff;"/>
    <path d="M230.2948,384.1649c-28.9081,3.9674-55.0455,20.6376-73.3668,43.0132-19.8567,24.2507-31.0073,54.2263-36.5972,84.7949l5.5355-3.143c-13.1781-3.2964-34.4602.2094-38.4622,15.8236-1.5302,5.9703.9941,13.063,6.6689,15.8604,7.4792,3.687,14.705-1.534,19.9704-6.544l-7.5212-4.3783c-3.2446,9.2906-2.9726,21.6098,9.1321,23.4033,11.346,1.6811,18.168-8.2595,21.1986-17.7756l-8.6785-2.3926c-1.6452,9.9073,7.1859,20.1837,17.6819,16.8973,8.6327-2.703,12.0798-14.0221,7.2904-21.3569-1.694,2.2035-3.3879,4.407-5.0819,6.6105,8.2223,1.7759,19.7793.7581,19.952-10.2032.1712-10.8658-10.4296-15.082-19.3959-16.7126.8964.6893,1.7929,1.3787,2.6893,2.068-2.4305-4.6671,2.674-12.2844,4.9976-16.3959,2.9551-5.229,6.2447-10.2862,9.8229-15.1101,3.4228-4.6143,7.1764-9.0915,11.4963-12.8978,2.2159-1.9524,5.9738-5.3772,9.2216-4.413,5.564,1.6518,7.941-7.0313,2.3926-8.6785-7.2427-2.1502-14.1636,3.1249-19.1348,7.7785-7.1215,6.6666-12.9976,14.8605-18.1701,23.0896-4.5387,7.2208-11.202,17.1437-10.1402,26.0385.2819,2.3611,1.1854,5.4187,3.3572,6.7454,2.378,1.4527,5.8489,1.1925,8.4791,2.215,2.2603.8787,6.0519,3.1987,5.3843,6.2727-.7595,3.4972-6.1892,2.0366-8.5594,1.5247-3.6002-.7776-7.3554,3.1287-5.0819,6.6105,1.5437,2.3641,1.3423,5.7882-1.0983,7.6084-3.3685,2.5122-8.0448-1.5621-7.4242-5.2987.9342-5.6257-6.8874-8.0167-8.6785-2.3926-1.4913,4.6826-4.2064,11.2382-10.0281,11.3743-7.0825.1656-4.3547-8.182-2.9455-12.2169,1.5479-4.4323-4.4477-7.3027-7.5212-4.3783-2.3159,2.2035-7.4967,7.5343-10.7019,3.9725-2.6906-2.99-.0488-7.3528,2.3269-9.4553,6.4307-5.6913,16.1621-6.6177,24.1693-4.6147,2.201.5506,5.0891-.7014,5.5355-3.143,5.2883-28.9189,15.4451-57.8275,34.2827-80.8235,17.5035-21.3675,41.7825-36.909,69.3954-40.6986,5.7125-.784,3.2806-9.4571-2.3926-8.6785h0Z"/>
  </g>
  <g>
    <path d="M363.7844,388.5041c29.0645,3.7378,55.3349,21.1923,73.3418,44.3109s28.3053,51.5108,33.4793,80.3543c7.6756-2.1435,16.136-1.3362,23.2676,2.2204,4.1953,2.0922,8.11,5.3629,9.5098,9.8371s-.5823,10.1638-5.0268,11.655c-5.0751,1.7028-10.1145-2.3512-13.942-6.0937,1.6924,4.6978,3.2906,10.2732.4493,14.3794-2.9433,4.2536-9.5884,4.4965-13.9121,1.6571-4.3236-2.8394-6.7052-7.8461-8.1894-12.8013,1.5889,6.1936-4.8048,12.9268-11.0722,11.6601s-9.5446-9.9543-5.6752-15.0447c-4.3193.9882-9.5476,1.7216-12.5647-1.5235-3.0892-3.3227-1.6351-9.0842,1.799-12.0491s8.1356-3.8689,12.6021-4.6647c2.3792-3.5517.9601-8.3174-.6603-12.2733-5.395-13.1706-27.9498-47.3842-39.96-43.1539" style="fill: #fff;"/>
    <path d="M362.5882,392.8434c27.5803,3.7851,51.9379,19.3166,69.3954,40.6986,18.813,23.0425,28.9888,51.8743,34.2827,80.8235.4447,2.432,3.344,3.6912,5.5355,3.143,8.0169-2.0053,17.7341-1.0806,24.1693,4.6147,2.4135,2.136,4.5615,5.6886,2.6492,8.8543-2.8175,4.6641-8.6051-1.0697-11.0242-3.3715-3.0723-2.9232-9.0705-.0579-7.5212,4.3783,1.4165,4.0561,4.1099,12.3828-2.9455,12.2169-5.813-.1367-8.5427-6.7102-10.0281-11.3743-1.7879-5.614-9.6144-3.243-8.6785,2.3926.6205,3.7367-4.0558,7.811-7.4242,5.2987-2.4406-1.8202-2.642-5.2443-1.0983-7.6084,2.277-3.4871-1.4698-7.3907-5.0819-6.6105-2.3529.5082-7.0987,1.8292-8.387-.9714-1.4594-3.1725,3.0106-5.9465,5.2119-6.826,2.5777-1.0298,6.1381-.7827,8.4791-2.215,2.198-1.3448,3.0696-4.3384,3.3572-6.7454,1.0639-8.9031-5.5978-18.8118-10.1402-26.0385-5.1722-8.2287-11.0488-16.4232-18.1701-23.0896-4.9708-4.6533-11.8904-9.9292-19.1348-7.7785-5.5395,1.6446-3.1808,10.3331,2.3926,8.6785,3.113-.9242,6.6654,2.2164,8.8369,4.0727,4.4982,3.8454,8.3659,8.4992,11.8811,13.2381,3.474,4.6833,6.6723,9.587,9.5615,14.6521,2.379,4.1708,7.7391,12.0917,5.2591,16.8538.8964-.6893,1.7929-1.3787,2.6893-2.068-8.9708,1.6314-19.567,5.845-19.3959,16.7126.1726,10.9627,11.7318,11.9787,19.952,10.2032-1.694-2.2035-3.3879-4.407-5.0819-6.6105-4.7896,7.3351-1.3429,18.6531,7.2904,21.3569,10.4928,3.2862,19.3272-6.9895,17.6819-16.8973l-8.6785,2.3926c3.0305,9.5157,9.8581,19.4558,21.1986,17.7756,12.1123-1.7946,12.3755-14.1159,9.1321-23.4033-2.5071,1.4594-5.0142,2.9188-7.5212,4.3783,5.1269,4.8782,12.0284,9.9666,19.3952,6.7973,6.0479-2.6019,8.8348-9.9075,7.2441-16.1138-4.0017-15.6128-25.2879-19.119-38.4622-15.8236l5.5355,3.143c-5.59-30.5688-16.7404-60.5441-36.5972-84.7949-18.3215-22.3758-44.4583-39.0458-73.3668-43.0132-5.664-.7773-8.1141,7.8933-2.3926,8.6785h0Z"/>
  </g>
  <g>
    <path d="M299.6024,548.271c10.8288.0115,49.3892.3441,58.0643-2.7304,31.9654-11.3289,53.3336-52.1157,48.9981-90.4881-4.3355-38.3724-32.6449-70.7962-65.5638-77.5362-3.924-37.1101-5.114-74.607-3.5529-111.9504h-80.318c1.5611,37.3434.3711,74.8403-3.5529,111.9504-32.919,6.74-61.2283,39.1638-65.5638,77.5362-4.3355,38.3724,17.0328,79.1592,48.9981,90.4881,8.6751,3.0746,49.3207,2.7304,62.4908,2.7304" style="fill: #fff;"/>
    <path d="M299.6024,552.771c15.5202.0228,31.1155.2391,46.5995-.9848,7.137-.5641,13.2661-1.7169,19.7487-4.8934,8.5368-4.1831,16.1331-10.4345,22.3212-17.6152,28.1757-32.6951,30.8507-82.0878,7.129-117.9427-12.3217-18.624-31.0164-33.4006-53.1034-38.1577,1.1012,1.4464,2.2025,2.8928,3.3037,4.3393-3.8833-37.1866-5.0662-74.5924-3.5529-111.9504.0985-2.4315-2.1416-4.5-4.5-4.5h-80.318c-2.3599,0-4.5987,2.0624-4.5,4.5,1.5133,37.358.3304,74.7638-3.5529,111.9504,1.1012-1.4464,2.2025-2.8928,3.3037-4.3393-41.8202,9.0073-70.2753,52.2025-69.4067,93.7241.7366,35.2112,23.2047,80.5791,62.2364,84.5677,17.978,1.8371,36.2446,1.309,54.2917,1.3021,5.791-.0022,5.8008-9.0022,0-9-14.6112.0056-29.2363.1082-43.8357-.5807-5.5742-.263-11.6191-.2263-17.0144-1.8428-8.1641-2.4461-15.6894-8.0144-21.6777-13.9229-28.7177-28.3348-32.3982-75.3665-11.4898-109.1032,11.0949-17.9021,28.4741-31.9827,49.2887-36.4658,2.0771-.4474,3.1042-2.4283,3.3037-4.3393,3.8833-37.1866,5.0662-74.5924,3.5529-111.9504l-4.5,4.5h80.318l-4.5-4.5c-1.5133,37.358-.3304,74.7638,3.5529,111.9504.1984,1.8994,1.2491,3.8967,3.3037,4.3393,38.0339,8.1918,63.5888,47.3057,62.7992,85.0456-.6614,31.6158-20.6747,72.9302-55.9966,75.8436-15.6458,1.2905-31.4193,1.0492-47.105,1.0262-5.7914-.0085-5.8003,8.9915,0,9h0Z"/>
  </g>
  <g>
    <g>
      <path d="M434.499,196.0393c-2.7612-16.0723-.1146-32.5347,2.7966-48.5805,5.4726-30.163,11.8889-60.1548,19.2365-89.9167-47.6349,32.1826-106.1089,58.4031-143.6209,101.9653" style="fill: #fff;"/>
      <path d="M438.8382,194.843c-3.5922-22.6108,2.6237-46.1999,6.9833-68.2972,4.482-22.718,9.5147-45.3231,15.0497-67.8074.8825-3.5849-3.2099-7.3709-6.6105-5.0819-48.8267,32.8654-105.2548,57.4503-144.5316,102.6689-3.7823,4.3545,2.5573,10.7464,6.364,6.364,38.7655-44.63,94.5134-68.8202,142.7101-101.2616-2.2035-1.694-4.407-3.3879-6.6105-5.0819-5.8469,23.7511-11.1315,47.6374-15.8021,71.6479-4.4149,22.6954-9.9122,46.0709-6.231,69.2419.9063,5.7042,9.5802,3.2828,8.6785-2.3926h0Z"/>
    </g>
    <g>
      <path d="M142.8022,213.1259c2.7612-16.0723-3.4875-44.3625-6.3987-60.4083-5.4726-30.163-11.8889-60.1548-19.2365-89.9167,47.6349,32.1826,105.6211,55.2554,143.133,98.8175" style="fill: #fff;"/>
      <path d="M147.1415,214.3222c3.2925-21.0345-2.8085-43.1566-6.574-63.7634-5.4525-29.8387-11.8106-59.5007-19.0612-88.9542l-6.6105,5.0819c47.638,32.0386,103.8194,53.929,142.2223,98.1139,3.8064,4.3795,10.1493-2.0086,6.364-6.364-38.9283-44.7895-95.7637-67.0508-144.0437-99.5212-3.4013-2.2875-7.4969,1.481-6.6105,5.0819,6.9383,28.1849,13.078,56.5618,18.3549,85.105,1.9227,10.4003,4.0153,20.7796,5.6431,31.2313,1.593,10.228,3.254,21.2666,1.6372,31.5961-.8869,5.6662,7.784,8.107,8.6785,2.3926h0Z"/>
    </g>
    <path d="M416.7124,250.4659c1.9304,0,1.9336-3,0-3-1.9304,0-1.9336,3,0,3h0Z"/>
    <g>
      <path d="M445.2292,257.2249c8.9025-5.3974,13.3098-16.0595,10.962-26.2022-14.4089-62.2476-117.1571-71.012-161.8132-70.4625-53.6729.6604-111.0095,11.9924-148.5341,50.3737-9.2604,9.4718-17.4921,22.346-14.2987,35.2018,1.8869,7.5961,7.5837,13.7935,14.1894,17.9919,37.9157,24.0985,84.3701-13.1029,123.471,9.0207,12.7523,7.2153,22.5773,23.5047,36.0272,17.6925,4.2713-1.8458,10.761-8.1989,14.2875-11.2346,31.39-27.0212,89.4223-.3814,125.709-22.3812Z" style="fill: #fff;"/>
      <path d="M447.5004,261.1105c23.0901-15.0015,12.3244-44.0818-2.569-60.7687-14.1525-15.8567-34.434-25.3199-54.3763-31.5997-42.1233-13.2645-89.1794-15.5092-132.8514-10.4097-29.6626,3.4637-59.365,10.9911-85.2758,26.2644-21.5008,12.6738-59.0741,41.6813-41.9718,70.5034,15.2802,25.7514,49.7795,23.1904,74.9347,19.0845,13.7179-2.239,27.7107-5.0228,41.6653-3.4623,6.9325.7752,13.815,2.8341,19.8782,6.3115,6.1312,3.5163,11.087,8.6578,16.6782,12.917,4.7046,3.5838,10.0556,6.6543,16.1449,6.6044,6.4002-.0524,11.3981-3.7564,16.0804-7.7037,4.9829-4.2007,9.4419-8.6272,15.3405-11.5771,5.4893-2.7452,11.6006-4.2624,17.6438-5.1802,26.9357-4.0906,54.6147,2.8396,81.3183-3.8981,6.0874-1.5359,11.9494-3.8992,17.3599-7.0858,4.9875-2.9374.4642-10.7199-4.5425-7.7712-21.6966,12.7782-49.0046,8.5667-73.0083,8.5386-11.8065-.0139-24.0456.5426-35.3309,4.3247-5.5061,1.8453-10.746,4.4217-15.3945,7.914-4.7632,3.5786-8.7348,8.2647-13.7868,11.4511-10.8807,6.8626-21.8977-7.8915-29.8744-13.6486-10.2216-7.3774-22.9685-10.4094-35.4224-10.6111-25.1518-.4073-50.5492,10.8605-75.6244,5.59-12.2944-2.5841-27.6515-10.5731-29.0627-24.5714-1.5529-15.4045,13.015-28.6782,23.7443-37.578,21.5681-17.8904,48.4975-28.1257,75.6869-33.7405,41.7858-8.629,86.9762-8.1701,128.826.2101,19.8665,3.9782,39.8814,9.964,57.1624,20.8031,14.5889,9.1505,31.0952,25.5257,31.4288,44.0885.127,7.066-3.4659,13.4107-9.3438,17.2295-4.8393,3.1441-.3336,10.9392,4.5425,7.7712Z"/>
    </g>
    <path d="M377.2806,225.1699c4.4445,1.8152,8.2619,5.1051,10.3939,9.4511,2.5432,5.184-4.3443,7.4036-8.3716,8.4372-9.1891,2.3584-19.546.8689-28.7096-.8288-18.5802-3.4424-36.5002-9.5632-55.5483-10.0976-19.4755-.5463-37.78,3.9638-56.3227,9.3469-9.2065,2.6727-19.2346,5.5472-28.9213,4.415-5.5746-.6516-10.9039-3.9491-10.7873-10.1818.0912-4.8755,3.9096-8.1272,8.3988-9.0115,3.785-.7456,2.1827-6.5298-1.595-5.7857-14.845,2.9242-17.2607,23.5092-3.0474,29.3582,8.3232,3.4251,18.5712,1.6393,27.0634-.2446,9.4682-2.1004,18.6046-5.446,28.0232-7.7412,21.1988-5.1661,42.4044-5.2985,63.67-.5377,17.9864,4.0267,36.9814,10.5605,55.639,7.8105,6.1354-.9043,17.6938-4.4381,17.4709-12.4114-.2301-8.2328-8.9161-14.9686-15.7611-17.7642-3.5725-1.459-5.1277,4.3429-1.595,5.7857h0Z"/>
    <path d="M360.7784,209.0934c-15.2955-1.3132-29.6425-6.8676-42.003-15.9367-3.1164-2.2865-6.1128,2.9177-3.0283,5.1808,13.2453,9.7182,28.6845,15.3523,45.0313,16.7559,3.8466.3303,3.8246-5.6716,0-6h0Z"/>
    <g>
      <path d="M346.3973,210.9038c.128,1.1492-.2457,2.2986-.7481,3.3401-.6684,1.3856-1.6124,2.6914-2.9391,3.4702-1.5694.9213-3.5574,1.0005-5.2742.3968s-3.168-1.8415-4.2189-3.3273c-1.8937-2.6776-2.5124-6.2174-1.639-9.3786"/>
      <path d="M344.8973,210.9038c.148,1.8875-1.0394,4.1442-2.5576,5.266-1.5579,1.1512-3.6966,1.0218-5.3305.1085-3.5877-2.0056-4.996-6.6445-3.9847-10.4745.4933-1.8684-2.3996-2.6655-2.8928-.7975-1.1175,4.2322-.0101,8.9731,3.0917,12.1148,3.1202,3.1603,8.3561,4.0584,11.7228.742,1.7442-1.7182,3.1462-4.4725,2.9512-6.9592-.0634-.8077-.6441-1.5-1.5-1.5-.7626,0-1.5637.6879-1.5,1.5h0Z"/>
    </g>
    <path d="M277.9451,209.0934c-15.2955-1.3132-29.6425-6.8676-42.003-15.9367-3.1164-2.2865-6.1128,2.9177-3.0283,5.1808,13.2453,9.7182,28.6845,15.3523,45.0313,16.7559,3.8466.3303,3.8246-5.6716,0-6h0Z"/>
    <g>
      <path d="M263.5639,210.9038c.128,1.1492-.2457,2.2986-.7481,3.3401-.6684,1.3856-1.6124,2.6914-2.9391,3.4702-1.5694.9213-3.5574,1.0005-5.2742.3968s-3.168-1.8415-4.2189-3.3273c-1.8937-2.6776-2.5124-6.2174-1.639-9.3786"/>
      <path d="M262.0639,210.9038c.148,1.8875-1.0394,4.1442-2.5576,5.266-1.5579,1.1512-3.6966,1.0218-5.3305.1085-3.5877-2.0056-4.996-6.6445-3.9847-10.4745.4933-1.8684-2.3996-2.6655-2.8928-.7975-1.1175,4.2322-.0101,8.9731,3.0917,12.1148,3.1202,3.1603,8.3561,4.0584,11.7228.742,1.7442-1.7182,3.1462-4.4725,2.9512-6.9592-.0634-.8077-.6441-1.5-1.5-1.5-.7626,0-1.5637.6879-1.5,1.5h0Z"/>
    </g>
    <path d="M222.9126,228.7392c-9.6153-12.3131-20.4708-23.5003-32.489-33.4817-2.9499-2.45-7.2172,1.7722-4.2426,4.2426,12.0182,9.9814,22.8738,21.1686,32.489,33.4817,2.3741,3.0402,6.593-1.2328,4.2426-4.2426h0Z"/>
    <path d="M213.2125,229.9636c-12.1655-1.4157-24.3116-2.98-36.4377-4.7012-3.7766-.536-5.4085,5.2444-1.595,5.7857,12.6571,1.7965,25.3344,3.4377,38.0327,4.9155,3.8282.4455,3.7963-5.5582,0-6h0Z"/>
    <path d="M211.7692,237.0631c-9.7774,4.214-19.3556,8.837-28.7374,13.8704-3.4038,1.8262-.3771,7.0078,3.0283,5.1808,9.3819-5.0334,18.9601-9.6564,28.7374-13.8704,3.5361-1.524.4837-6.6945-3.0283-5.1808h0Z"/>
    <path d="M364.2452,232.9818c9.6153-12.3131,20.4708-23.5003,32.489-33.4817,2.9732-2.4693-1.2915-6.6936-4.2426-4.2426-12.0182,9.9814-22.8738,21.1686-32.489,33.4817-2.3494,3.0086,1.8675,7.2842,4.2426,4.2426h0Z"/>
    <path d="M369.7027,235.9636c12.6983-1.4777,25.3756-3.119,38.0327-4.9155,3.8074-.5404,2.1877-6.3226-1.595-5.7857-12.1261,1.7211-24.2722,3.2854-36.4377,4.7012-3.79.4411-3.8346,6.4462,0,6h0Z"/>
    <path d="M368.1177,242.2439c9.7774,4.214,19.3556,8.837,28.7374,13.8704,3.402,1.8252,6.4358-3.3527,3.0283-5.1808-9.3819-5.0334-18.9601-9.6564-28.7374-13.8704-3.5087-1.5122-6.5682,3.6552-3.0283,5.1808h0Z"/>
    <ellipse cx="297.3891" cy="222.2771" rx="10.3791" ry="3.9896" style="stroke: #000; stroke-miterlimit: 10;"/>
  </g>
</svg>