<?xml version="1.0" encoding="UTF-8"?>
<svg id="head" xmlns="http://www.w3.org/2000/svg" width="595.2756" height="841.8898" version="1.1" viewBox="0 0 595.2756 841.8898">
  <!-- Generator: Adobe Illustrator 29.4.0, SVG Export Plug-In . SVG Version: 2.1.0 Build 152)  -->
  <g>
    <g>
      <path d="M258.9975,553.2403c-15.762,64.0915-4.2821,127.734,1.3589,194.3541-18.1051,1.3908-36.2102,2.7817-54.3154,4.1725-4.8119.3697-10.4209.3305-13.4362-4.3163-3.1068-4.7878-1.6582-12.0818,1.2801-17.0292,8.2258-13.8504,33.6726-10.2843,47.0322-5.5144-15.0116-51.9067-20.0978-120.9104-15.3057-175.7109" style="fill: #fff;"/>
      <path d="M254.6583,552.044c-15.6135,64.5628-4.367,130.4962,1.1982,195.5504l4.5-4.5c-13.2555,1.0183-26.5111,2.0366-39.7666,3.0549-5.9228.455-11.9719,1.3322-17.9135,1.2486-7.0486-.0992-8.4531-5.7768-6.3286-11.7055,5.7803-16.1309,31.3597-10.624,43.3732-6.4462,3.2823,1.1414,6.4359-2.3929,5.5355-5.5355-16.031-55.9519-20.0943-116.6533-15.145-174.5146.4936-5.7702-8.5092-5.7373-9,0-2.5537,29.855-2.2334,59.9607.2999,89.8062,2.4928,29.369,7.0393,58.735,15.1665,87.101,1.8452-1.8452,3.6904-3.6904,5.5355-5.5355-17.7557-6.1747-48.6425-9.2889-54.896,14.2073-1.5188,5.7064-1.1681,12.512,3.0895,17.0138,4.6566,4.9236,11.4343,4.7932,17.6739,4.3291,17.4615-1.2988,34.9172-2.6824,52.3755-4.0235,2.2638-.1739,4.7202-1.9259,4.5-4.5-5.4872-64.1427-16.9153-129.4964-1.5197-193.1578,1.3609-5.6274-7.3155-8.0286-8.6785-2.3926h0Z"/>
    </g>
    <g>
      <path d="M204.1,750.3774c4.0638-6.9095,10.4445-11.6705,17.2866-12.8986" style="fill: #fff;"/>
      <path d="M206.6904,751.8916c3.5498-5.801,8.7385-10.1454,15.4937-11.5199,3.781-.7693,2.1807-6.554-1.595-5.7857-8.2282,1.6743-14.7703,7.2353-19.0795,14.2773-2.0209,3.3025,3.1664,6.3203,5.1808,3.0283h0Z"/>
    </g>
    <g>
      <path d="M192.4874,744.3854c-.2028-.7091.3264-1.3913.8077-1.852,3.7017-3.5438,7.7981-6.4576,12.1375-8.6336" style="fill: #fff;"/>
      <path d="M195.4874,744.3854c-.0101.5697.2947-.1058.5863-.3495.4585-.3831.8862-.8067,1.3385-1.1979,1.0373-.897,2.1099-1.7473,3.2275-2.5422,2.0073-1.4277,4.1164-2.6815,6.307-3.8056,3.4365-1.7634.4044-6.9423-3.0283-5.1808-3.0819,1.5814-5.9594,3.4523-8.6844,5.5906-2.4784,1.9448-5.6853,4.0404-5.7466,7.4854-.0688,3.8625,5.9312,3.8629,6,0h0Z"/>
    </g>
  </g>
  <g>
    <g>
      <path d="M348.5907,553.2403c-15.762,64.0915-4.2821,127.734,1.3589,194.3541-18.1051,1.3908-36.2102,2.7817-54.3154,4.1725-4.8119.3697-10.4209.3305-13.4362-4.3163-3.1068-4.7878-1.6582-12.0818,1.2801-17.0292,8.2258-13.8504,33.6726-10.2843,47.0322-5.5144-15.0116-51.9067-20.0978-120.9104-15.3057-175.7109" style="fill: #fff;"/>
      <path d="M344.2515,552.044c-15.6135,64.5628-4.367,130.4962,1.1982,195.5504l4.5-4.5c-13.2555,1.0183-26.5111,2.0366-39.7666,3.0549-5.9228.455-11.9719,1.3322-17.9135,1.2486-7.0486-.0992-8.4531-5.7768-6.3286-11.7055,5.7803-16.1309,31.3597-10.624,43.3732-6.4462,3.2823,1.1414,6.4359-2.3929,5.5355-5.5355-16.031-55.9519-20.0943-116.6533-15.145-174.5146.4936-5.7702-8.5092-5.7373-9,0-2.5537,29.855-2.2334,59.9607.2999,89.8062,2.4928,29.369,7.0393,58.735,15.1665,87.101,1.8452-1.8452,3.6904-3.6904,5.5355-5.5355-17.7557-6.1747-48.6425-9.2889-54.896,14.2073-1.5188,5.7064-1.1681,12.512,3.0895,17.0138,4.6566,4.9236,11.4343,4.7932,17.6739,4.3291,17.4615-1.2988,34.9172-2.6824,52.3755-4.0235,2.2638-.1739,4.7202-1.9259,4.5-4.5-5.4872-64.1427-16.9153-129.4964-1.5197-193.1578,1.3609-5.6274-7.3155-8.0286-8.6785-2.3926h0Z"/>
    </g>
    <g>
      <path d="M293.6932,750.3774c4.0638-6.9095,10.4445-11.6705,17.2866-12.8986" style="fill: #fff;"/>
      <path d="M296.2836,751.8916c3.5498-5.801,8.7385-10.1454,15.4937-11.5199,3.781-.7693,2.1807-6.554-1.595-5.7857-8.2282,1.6743-14.7703,7.2353-19.0795,14.2773-2.0209,3.3025,3.1664,6.3203,5.1808,3.0283h0Z"/>
    </g>
    <g>
      <path d="M282.0806,744.3854c-.2028-.7091.3264-1.3913.8077-1.852,3.7017-3.5438,7.7981-6.4576,12.1375-8.6336" style="fill: #fff;"/>
      <path d="M285.0806,744.3854c-.0101.5697.2947-.1058.5863-.3495.4585-.3831.8862-.8067,1.3385-1.1979,1.0373-.897,2.1099-1.7473,3.2275-2.5422,2.0073-1.4277,4.1164-2.6815,6.307-3.8056,3.4365-1.7634.4044-6.9423-3.0283-5.1808-3.0819,1.5814-5.9594,3.4523-8.6844,5.5906-2.4784,1.9448-5.6853,4.0404-5.7466,7.4854-.0688,3.8625,5.9312,3.8629,6,0h0Z"/>
    </g>
  </g>
  <g>
    <path d="M225.6116,389.4176c-29.0645,3.7378-55.3349,21.1923-73.3418,44.3109-18.0068,23.1186-28.3053,51.5108-33.4793,80.3543-7.6756-2.1435-16.136-1.3362-23.2676,2.2204-4.1953,2.0922-8.11,5.3629-9.5098,9.8371s.5823,10.1638,5.0268,11.655c5.0751,1.7028,10.1145-2.3512,13.942-6.0937-1.6924,4.6978-3.2906,10.2732-.4493,14.3794,2.9433,4.2536,9.5884,4.4965,13.9121,1.6571,4.3236-2.8394,6.7052-7.8461,8.1894-12.8013-1.5889,6.1936,4.8048,12.9268,11.0722,11.6601,6.2674-1.2666,9.5446-9.9543,5.6752-15.0447,4.3193.9882,9.5476,1.7216,12.5647-1.5235,3.0892-3.3227,1.6351-9.0842-1.799-12.0491s-8.1356-3.8689-12.6021-4.6647c-2.3792-3.5517-.9601-8.3174.6603-12.2733,5.395-13.1706,27.9498-47.3842,39.96-43.1539" style="fill: #fff;"/>
    <path d="M224.4153,385.0783c-28.9081,3.9674-55.0455,20.6376-73.3668,43.0132-19.8567,24.2507-31.0073,54.2263-36.5972,84.7949l5.5355-3.143c-13.1781-3.2964-34.4602.2094-38.4622,15.8236-1.5302,5.9703.9941,13.063,6.6689,15.8604,7.4792,3.687,14.705-1.534,19.9704-6.544l-7.5212-4.3783c-3.2446,9.2906-2.9726,21.6098,9.1321,23.4033,11.346,1.6811,18.168-8.2595,21.1986-17.7756l-8.6785-2.3926c-1.6452,9.9073,7.1859,20.1837,17.6819,16.8973,8.6327-2.703,12.0798-14.0221,7.2904-21.3569-1.694,2.2035-3.3879,4.407-5.0819,6.6105,8.2223,1.7759,19.7793.7581,19.952-10.2032.1712-10.8658-10.4296-15.082-19.3959-16.7126l2.6893,2.068c-2.4305-4.6671,2.674-12.2844,4.9976-16.3959,2.9551-5.229,6.2447-10.2862,9.8229-15.1101,3.4228-4.6143,7.1764-9.0915,11.4963-12.8978,2.2159-1.9524,5.9738-5.3772,9.2216-4.413,5.564,1.6518,7.941-7.0313,2.3926-8.6785-7.2427-2.1502-14.1636,3.1249-19.1348,7.7785-7.1215,6.6666-12.9976,14.8605-18.1701,23.0896-4.5387,7.2208-11.202,17.1437-10.1402,26.0385.2819,2.3611,1.1854,5.4187,3.3572,6.7454,2.378,1.4527,5.8489,1.1925,8.4791,2.215,2.2603.8787,6.0519,3.1987,5.3843,6.2727-.7595,3.4972-6.1892,2.0366-8.5594,1.5247-3.6002-.7776-7.3554,3.1287-5.0819,6.6105,1.5437,2.3641,1.3423,5.7882-1.0983,7.6084-3.3685,2.5122-8.0448-1.5621-7.4242-5.2987.9342-5.6257-6.8874-8.0167-8.6785-2.3926-1.4913,4.6826-4.2064,11.2382-10.0281,11.3743-7.0825.1656-4.3547-8.182-2.9455-12.2169,1.5479-4.4323-4.4477-7.3027-7.5212-4.3783-2.3159,2.2035-7.4967,7.5343-10.7019,3.9725-2.6906-2.99-.0488-7.3528,2.3269-9.4553,6.4307-5.6913,16.1621-6.6177,24.1693-4.6147,2.201.5506,5.0891-.7014,5.5355-3.143,5.2883-28.9189,15.4451-57.8275,34.2827-80.8235,17.5035-21.3675,41.7825-36.909,69.3954-40.6986,5.7125-.784,3.2806-9.4571-2.3926-8.6785h0Z"/>
  </g>
  <g>
    <path d="M357.9049,389.4176c29.0645,3.7378,55.3349,21.1923,73.3418,44.3109s28.3053,51.5108,33.4793,80.3543c7.6756-2.1435,16.136-1.3362,23.2676,2.2204,4.1953,2.0922,8.11,5.3629,9.5098,9.8371s-.5823,10.1638-5.0268,11.655c-5.0751,1.7028-10.1145-2.3512-13.942-6.0937,1.6924,4.6978,3.2906,10.2732.4493,14.3794-2.9433,4.2536-9.5884,4.4965-13.9121,1.6571-4.3236-2.8394-6.7052-7.8461-8.1894-12.8013,1.5889,6.1936-4.8048,12.9268-11.0722,11.6601-6.2674-1.2666-9.5446-9.9543-5.6752-15.0447-4.3193.9882-9.5476,1.7216-12.5647-1.5235-3.0892-3.3227-1.6351-9.0842,1.799-12.0491s8.1356-3.8689,12.6021-4.6647c2.3792-3.5517.9601-8.3174-.6603-12.2733-5.395-13.1706-27.9498-47.3842-39.96-43.1539" style="fill: #fff;"/>
    <path d="M356.7086,393.7568c27.5803,3.7851,51.9379,19.3166,69.3954,40.6986,18.813,23.0425,28.9888,51.8743,34.2827,80.8235.4447,2.432,3.344,3.6912,5.5355,3.143,8.0169-2.0053,17.7341-1.0806,24.1693,4.6147,2.4135,2.136,4.5615,5.6886,2.6492,8.8543-2.8175,4.6641-8.6051-1.0697-11.0242-3.3715-3.0723-2.9232-9.0705-.0579-7.5212,4.3783,1.4165,4.0561,4.1099,12.3828-2.9455,12.2169-5.813-.1367-8.5427-6.7102-10.0281-11.3743-1.7879-5.614-9.6144-3.243-8.6785,2.3926.6205,3.7367-4.0558,7.811-7.4242,5.2987-2.4406-1.8202-2.642-5.2443-1.0983-7.6084,2.277-3.4871-1.4698-7.3907-5.0819-6.6105-2.3529.5082-7.0987,1.8292-8.387-.9714-1.4594-3.1725,3.0106-5.9465,5.2119-6.826,2.5777-1.0298,6.1381-.7827,8.4791-2.215,2.198-1.3448,3.0696-4.3384,3.3572-6.7454,1.0639-8.9031-5.5978-18.8118-10.1402-26.0385-5.1722-8.2287-11.0488-16.4232-18.1701-23.0896-4.9708-4.6533-11.8904-9.9292-19.1348-7.7785-5.5395,1.6446-3.1808,10.3331,2.3926,8.6785,3.113-.9242,6.6654,2.2164,8.8369,4.0727,4.4982,3.8454,8.3659,8.4992,11.8811,13.2381,3.474,4.6833,6.6723,9.587,9.5615,14.6521,2.379,4.1708,7.7391,12.0917,5.2591,16.8538.8964-.6893,1.7929-1.3787,2.6893-2.068-8.9708,1.6314-19.567,5.845-19.3959,16.7126.1726,10.9627,11.7318,11.9787,19.952,10.2032-1.694-2.2035-3.3879-4.407-5.0819-6.6105-4.7896,7.3351-1.3429,18.6531,7.2904,21.3569,10.4928,3.2862,19.3272-6.9895,17.6819-16.8973l-8.6785,2.3926c3.0305,9.5157,9.8581,19.4558,21.1986,17.7756,12.1123-1.7946,12.3755-14.1159,9.1321-23.4033l-7.5212,4.3783c5.1269,4.8782,12.0284,9.9666,19.3952,6.7973,6.0479-2.6019,8.8348-9.9075,7.2441-16.1138-4.0017-15.6128-25.2879-19.119-38.4622-15.8236,1.8452,1.0477,3.6904,2.0953,5.5355,3.143-5.59-30.5688-16.7404-60.5441-36.5972-84.7949-18.3215-22.3758-44.4583-39.0458-73.3668-43.0132-5.664-.7773-8.1141,7.8933-2.3926,8.6785h0Z"/>
  </g>
  <g>
    <path d="M293.7228,549.1847c-13.1701,0-53.8157.3386-62.4908-2.6864-31.9654-11.1461-53.3336-51.2746-48.9981-89.0278,4.3355-37.7531,32.6449-69.6537,65.5638-76.2849,3.4276-31.8929,4.7684-64.0122,4.0161-96.0799-.2014-8.5864-2.8998-13.3818,6.2646-14.701,7.9716-1.1475,16.6456-.5528,24.6941-.6399,13.1512-.1423,26.3057.0331,39.4484.5255,8.3185.3117,9.1283-.8144,9.1952,7.3959.058,7.1204-.3733,14.2651-.4051,21.3903-.1221,27.4194,1.2804,54.8463,4.2104,82.1091,32.919,6.6312,61.2283,38.5318,65.5638,76.2849,4.3355,37.7531-17.0328,77.8817-48.9981,89.0278-8.6751,3.025-47.2356,2.6977-58.0643,2.6864" style="fill: #fff;"/>
    <path d="M293.7228,544.6847c-14.6113.0055-29.2359.1065-43.8357-.5714-5.5863-.2594-11.5984-.2362-17.0144-1.8105-8.2423-2.3957-15.8983-8.0022-21.9412-13.9371-28.3832-27.8759-32.0582-73.8157-11.2264-106.997,11.1307-17.7293,28.6301-31.4662,49.2887-35.8439,2.0798-.4407,3.1015-2.4334,3.3037-4.3393,2.1765-20.509,3.5438-41.095,4.0208-61.7146.2347-10.1441.2619-20.2933.0769-30.4384-.0638-3.4963-.3512-6.9442-.5325-10.4305-.1819-3.4965.268-3.4173,3.9339-3.9175,9.1359-1.2466,18.7093-.4137,27.9075-.4577,10.1926-.0487,20.3862.0917,30.5734.4252,3.0785.1008,6.2848.4455,9.3626.3093-1.591.0704-.0019-1.6805-.8171-.1665-.6695,1.2435.0976,5.3804.0813,6.7774-.1177,10.0857-.4687,20.1444-.34,30.2346.2958,23.1793,1.7107,46.3282,4.1569,69.3788.201,1.8936,1.2468,3.9034,3.3037,4.3393,37.4152,7.9285,63.3249,45.6799,62.8063,83.016-.445,32.037-21.0855,72.4203-56.5092,75.1749-15.4856,1.2042-31.0789.9914-46.5995.9689-5.7914-.0084-5.8003,8.9916,0,9,15.5206.0224,31.1139.2353,46.5995-.9689,6.9212-.5382,12.8996-1.6002,19.2274-4.5801,8.6547-4.0758,16.3768-10.2459,22.6863-17.4041,28.2678-32.0703,31.0472-80.9732,7.2852-116.3098-12.4021-18.4432-31.126-32.9182-53.1034-37.5753,1.1012,1.4464,2.2025,2.8928,3.3037,4.3393-2.4807-23.3751-3.9006-46.8519-4.1694-70.358-.1311-11.4637.726-22.9757.3448-34.4252-.1941-5.8311-2.0426-9.931-8.3371-10.4543-10.2358-.851-20.7121-.6536-30.9781-.716-11.0345-.0671-22.282-.5664-33.2952.1511-6.495.4231-14.7249,1.1662-16.2529,8.8429-.6243,3.1363.0644,6.4067.2296,9.5553.297,5.6599.24,11.3676.2516,17.0338.0549,26.847-1.3842,53.6747-4.2172,80.3704,1.1012-1.4464,2.2025-2.8928,3.3037-4.3393-40.988,8.6856-69.6175,50.0926-69.424,90.9558.1679,35.4658,23.1833,80.6731,62.2537,84.6014,17.9813,1.8079,36.2435,1.2879,54.2917,1.2811,5.791-.0022,5.8008-9.0022,0-9h0Z"/>
  </g>
  <g>
    <g>
      <path d="M428.6194,196.9527c-2.7612-16.0723-.1146-32.5347,2.7966-48.5805,5.4726-30.163,11.8889-60.1548,19.2365-89.9167-47.6349,32.1826-106.1089,58.4031-143.6209,101.9653" style="fill: #fff;"/>
      <path d="M432.9586,195.7565c-3.5922-22.6108,2.6237-46.1999,6.9833-68.2972,4.482-22.718,9.5147-45.3231,15.0497-67.8074.8825-3.5849-3.2099-7.3709-6.6105-5.0819-48.8267,32.8654-105.2548,57.4503-144.5316,102.6689-3.7823,4.3545,2.5573,10.7464,6.364,6.364,38.7655-44.63,94.5134-68.8202,142.7101-101.2616-2.2035-1.694-4.407-3.3879-6.6105-5.0819-5.8469,23.7511-11.1315,47.6374-15.8021,71.6479-4.4149,22.6954-9.9122,46.0709-6.231,69.2419.9063,5.7042,9.5802,3.2828,8.6785-2.3926h0Z"/>
    </g>
    <g>
      <path d="M136.9226,214.0394c2.7612-16.0723-3.4875-44.3625-6.3987-60.4083-5.4726-30.163-11.8889-60.1548-19.2365-89.9167,47.6349,32.1826,105.6211,55.2554,143.133,98.8175" style="fill: #fff;"/>
      <path d="M141.2619,215.2357c3.2925-21.0345-2.8085-43.1566-6.574-63.7634-5.4525-29.8387-11.8106-59.5007-19.0612-88.9542l-6.6105,5.0819c47.638,32.0386,103.8194,53.929,142.2223,98.1139,3.8064,4.3795,10.1493-2.0086,6.364-6.364-38.9283-44.7895-95.7637-67.0508-144.0437-99.5212-3.4013-2.2875-7.4969,1.481-6.6105,5.0819,6.9383,28.1849,13.078,56.5618,18.3549,85.105,1.9227,10.4003,4.0153,20.7796,5.6431,31.2313,1.593,10.228,3.254,21.2666,1.6372,31.5961-.8869,5.6662,7.784,8.107,8.6785,2.3926h0Z"/>
    </g>
    <path d="M410.8328,251.3794c1.9304,0,1.9336-3,0-3-1.9304,0-1.9336,3,0,3h0Z"/>
    <g>
      <path d="M439.3496,258.1384c8.9025-5.3974,13.3098-16.0595,10.962-26.2022-14.4089-62.2476-117.1571-71.012-161.8132-70.4625-53.6729.6604-111.0095,11.9924-148.5341,50.3737-9.2604,9.4718-17.4921,22.346-14.2987,35.2018,1.8869,7.5961,7.5837,13.7935,14.1894,17.9919,37.9157,24.0985,84.3701-13.1029,123.471,9.0207,12.7523,7.2153,22.5773,23.5047,36.0272,17.6925,4.2713-1.8458,10.761-8.1989,14.2875-11.2346,31.39-27.0212,89.4223-.3814,125.709-22.3812Z" style="fill: #fff;"/>
      <path d="M441.6208,262.024c23.0901-15.0015,12.3244-44.0818-2.569-60.7687-14.1525-15.8567-34.434-25.3199-54.3763-31.5997-42.1233-13.2645-89.1794-15.5092-132.8514-10.4097-29.6626,3.4637-59.365,10.9911-85.2758,26.2644-21.5008,12.6738-59.0741,41.6813-41.9718,70.5034,15.2802,25.7514,49.7795,23.1904,74.9347,19.0845,13.7179-2.239,27.7107-5.0228,41.6653-3.4623,6.9325.7752,13.815,2.8341,19.8782,6.3115,6.1312,3.5163,11.087,8.6578,16.6782,12.917,4.7046,3.5838,10.0556,6.6543,16.1449,6.6044,6.4002-.0524,11.3981-3.7564,16.0804-7.7037,4.9829-4.2007,9.4419-8.6272,15.3405-11.5771,5.4893-2.7452,11.6006-4.2624,17.6438-5.1802,26.9357-4.0906,54.6147,2.8396,81.3183-3.8981,6.0874-1.5359,11.9494-3.8992,17.3599-7.0858,4.9875-2.9374.4642-10.7199-4.5425-7.7712-21.6966,12.7782-49.0046,8.5667-73.0083,8.5386-11.8065-.0139-24.0456.5426-35.3309,4.3247-5.5061,1.8453-10.746,4.4217-15.3945,7.914-4.7632,3.5786-8.7348,8.2647-13.7868,11.4511-10.8807,6.8626-21.8977-7.8915-29.8744-13.6486-10.2216-7.3774-22.9685-10.4094-35.4224-10.6111-25.1518-.4073-50.5492,10.8605-75.6244,5.59-12.2944-2.5841-27.6515-10.5731-29.0627-24.5714-1.5529-15.4045,13.015-28.6782,23.7443-37.578,21.5681-17.8904,48.4975-28.1257,75.6869-33.7405,41.7858-8.629,86.9762-8.1701,128.826.2101,19.8665,3.9782,39.8814,9.964,57.1624,20.8031,14.5889,9.1505,31.0952,25.5257,31.4288,44.0885.127,7.066-3.4659,13.4107-9.3438,17.2295-4.8393,3.1441-.3336,10.9392,4.5425,7.7712Z"/>
    </g>
    <path d="M371.401,226.0834c4.4445,1.8152,8.2619,5.1051,10.3939,9.4511,2.5432,5.184-4.3443,7.4036-8.3716,8.4372-9.1891,2.3584-19.546.8689-28.7096-.8288-18.5802-3.4424-36.5002-9.5632-55.5483-10.0976-19.4755-.5463-37.78,3.9638-56.3227,9.3469-9.2065,2.6727-19.2346,5.5472-28.9213,4.415-5.5746-.6516-10.9039-3.9491-10.7873-10.1818.0912-4.8755,3.9096-8.1272,8.3988-9.0115,3.785-.7456,2.1827-6.5298-1.595-5.7857-14.845,2.9242-17.2607,23.5092-3.0474,29.3582,8.3232,3.4251,18.5712,1.6393,27.0634-.2446,9.4682-2.1004,18.6046-5.446,28.0232-7.7412,21.1988-5.1661,42.4044-5.2985,63.67-.5377,17.9864,4.0267,36.9814,10.5605,55.639,7.8105,6.1354-.9043,17.6938-4.4381,17.4709-12.4114-.2301-8.2328-8.9161-14.9686-15.7611-17.7642-3.5725-1.459-5.1277,4.3429-1.595,5.7857h0Z"/>
    <path d="M354.8988,210.0069c-15.2955-1.3132-29.6425-6.8676-42.003-15.9367-3.1164-2.2865-6.1128,2.9177-3.0283,5.1808,13.2453,9.7182,28.6845,15.3523,45.0313,16.7559,3.8466.3303,3.8246-5.6716,0-6h0Z"/>
    <g>
      <path d="M340.5177,211.8173c.128,1.1492-.2457,2.2986-.7481,3.3401-.6684,1.3856-1.6124,2.6914-2.9391,3.4702-1.5694.9213-3.5574,1.0005-5.2742.3968s-3.168-1.8415-4.2189-3.3273c-1.8937-2.6776-2.5124-6.2174-1.639-9.3786"/>
      <path d="M339.0177,211.8173c.148,1.8875-1.0394,4.1442-2.5576,5.266-1.5579,1.1512-3.6966,1.0218-5.3305.1085-3.5877-2.0056-4.996-6.6445-3.9847-10.4745.4933-1.8684-2.3996-2.6655-2.8928-.7975-1.1175,4.2322-.0101,8.9731,3.0917,12.1148,3.1202,3.1603,8.3561,4.0584,11.7228.742,1.7442-1.7182,3.1462-4.4725,2.9512-6.9592-.0634-.8077-.6441-1.5-1.5-1.5-.7626,0-1.5637.6879-1.5,1.5h0Z"/>
    </g>
    <path d="M272.0655,210.0069c-15.2955-1.3132-29.6425-6.8676-42.003-15.9367-3.1164-2.2865-6.1128,2.9177-3.0283,5.1808,13.2453,9.7182,28.6845,15.3523,45.0313,16.7559,3.8466.3303,3.8246-5.6716,0-6h0Z"/>
    <g>
      <path d="M257.6844,211.8173c.128,1.1492-.2457,2.2986-.7481,3.3401-.6684,1.3856-1.6124,2.6914-2.9391,3.4702-1.5694.9213-3.5574,1.0005-5.2742.3968s-3.168-1.8415-4.2189-3.3273c-1.8937-2.6776-2.5124-6.2174-1.639-9.3786"/>
      <path d="M256.1844,211.8173c.148,1.8875-1.0394,4.1442-2.5576,5.266-1.5579,1.1512-3.6966,1.0218-5.3305.1085-3.5877-2.0056-4.996-6.6445-3.9847-10.4745.4933-1.8684-2.3996-2.6655-2.8928-.7975-1.1175,4.2322-.0101,8.9731,3.0917,12.1148,3.1202,3.1603,8.3561,4.0584,11.7228.742,1.7442-1.7182,3.1462-4.4725,2.9512-6.9592-.0634-.8077-.6441-1.5-1.5-1.5-.7626,0-1.5637.6879-1.5,1.5h0Z"/>
    </g>
    <path d="M217.033,229.6527c-9.6153-12.3131-20.4708-23.5003-32.489-33.4817-2.9499-2.45-7.2172,1.7722-4.2426,4.2426,12.0182,9.9814,22.8738,21.1686,32.489,33.4817,2.3741,3.0402,6.593-1.2328,4.2426-4.2426h0Z"/>
    <path d="M207.3329,230.8771c-12.1655-1.4157-24.3116-2.98-36.4377-4.7012-3.7766-.536-5.4085,5.2444-1.595,5.7857,12.6571,1.7965,25.3344,3.4377,38.0327,4.9155,3.8282.4455,3.7963-5.5582,0-6h0Z"/>
    <path d="M205.8896,237.9766c-9.7774,4.214-19.3556,8.837-28.7374,13.8704-3.4038,1.8262-.3771,7.0078,3.0283,5.1808,9.3819-5.0334,18.9601-9.6564,28.7374-13.8704,3.5361-1.524.4837-6.6945-3.0283-5.1808h0Z"/>
    <path d="M358.3656,233.8953c9.6153-12.3131,20.4708-23.5003,32.489-33.4817,2.9732-2.4693-1.2915-6.6936-4.2426-4.2426-12.0182,9.9814-22.8738,21.1686-32.489,33.4817-2.3494,3.0086,1.8675,7.2842,4.2426,4.2426h0Z"/>
    <path d="M363.8231,236.8771c12.6983-1.4777,25.3756-3.119,38.0327-4.9155,3.8074-.5404,2.1877-6.3226-1.595-5.7857-12.1261,1.7211-24.2722,3.2854-36.4377,4.7012-3.79.4411-3.8346,6.4462,0,6h0Z"/>
    <path d="M362.2381,243.1574c9.7774,4.214,19.3556,8.837,28.7374,13.8704,3.402,1.8252,6.4358-3.3527,3.0283-5.1808-9.3819-5.0334-18.9601-9.6564-28.7374-13.8704-3.5087-1.5122-6.5682,3.6552-3.0283,5.1808h0Z"/>
    <ellipse cx="291.5096" cy="223.1905" rx="10.3791" ry="3.9896" style="stroke: #000; stroke-miterlimit: 10;"/>
  </g>
</svg>