<?xml version="1.0" encoding="UTF-8"?>
<svg xmlns="http://www.w3.org/2000/svg" width="595.2756" height="841.8898" version="1.1" viewBox="0 0 595.2756 841.8898">
  <!-- Generator: Adobe Illustrator 29.4.0, SVG Export Plug-In . SVG Version: 2.1.0 Build 152)  -->
  <g id="right_leg">
    <g>
      <g>
        <path d="M324.5189,553.2403c15.762,64.0915,4.2821,127.734-1.3589,194.3541,18.1051,1.3908,36.2102,2.7817,54.3154,4.1725,4.8119.3697,10.4209.3305,13.4362-4.3163,3.1068-4.7878,1.6582-12.0818-1.2801-17.0292-8.2258-13.8504-33.6726-10.2843-47.0322-5.5144,15.0116-51.9067,20.0978-120.9104,15.3057-175.7109" style="fill: #fff;"/>
        <path d="M320.1796,554.4366c15.3956,63.6614,3.9676,129.0152-1.5197,193.1578-.2185,2.5541,2.2464,4.3269,4.5,4.5,17.4584,1.3412,34.9145,2.7174,52.3755,4.0235,6.0057.4492,12.5162.6441,17.1752-3.8558,4.667-4.5076,5.1795-11.5083,3.5882-17.4872-6.2533-23.4955-37.1401-20.3821-54.896-14.2073l5.5355,5.5355c8.1273-28.366,12.6737-57.732,15.1665-87.101,2.5333-29.8454,2.8537-59.9512.2999-89.8062-.4899-5.7278-9.4944-5.7798-9,0,4.9494,57.8614.886,118.5628-15.145,174.5146-.9004,3.1426,2.2533,6.677,5.5355,5.5355,12.0954-4.2063,37.4836-9.6512,43.3732,6.4462,2.0096,5.4924,1.0182,11.277-5.6473,11.7006-5.7712.3668-11.8676-.7269-17.6249-1.1692-13.5788-1.0431-27.1577-2.0863-40.7365-3.1294l4.5,4.5c5.5652-65.0543,16.8118-130.9875,1.1982-195.5504-1.3608-5.627-10.0417-3.2442-8.6785,2.3926h0Z"/>
      </g>
      <g>
        <path d="M379.4164,750.3774c-4.0638-6.9095-10.4445-11.6705-17.2866-12.8986" style="fill: #fff;"/>
        <path d="M382.0068,748.8633c-4.3098-7.0429-10.8517-12.6031-19.0795-14.2773-3.7695-.767-5.382,5.0151-1.595,5.7857,6.7565,1.3748,11.9446,5.7201,15.4937,11.5199,2.0123,3.2884,7.2037.2775,5.1808-3.0283h0Z"/>
      </g>
      <g>
        <path d="M391.029,744.3854c.2028-.7091-.3264-1.3913-.8077-1.852-3.7017-3.5438-7.7981-6.4576-12.1375-8.6336" style="fill: #fff;"/>
        <path d="M394.029,744.3854c-.0613-3.4451-3.268-5.5351-5.7466-7.4854-2.7224-2.142-5.6024-4.0091-8.6844-5.5906-3.4294-1.7597-6.4685,3.4155-3.0283,5.1808,2.1908,1.1242,4.2994,2.3777,6.307,3.8056.9962.7086,1.9557,1.461,2.8871,2.2528.4555.3873.904.782,1.3462,1.1844.3027.2755.9288,1.2023.919.6523.0687,3.8565,6.0689,3.8689,6,0h0Z"/>
      </g>
    </g>
  </g>
  <g id="left_leg">
    <g>
      <g>
        <path d="M234.9257,553.2403c15.762,64.0915,4.2821,127.734-1.3589,194.3541,18.1051,1.3908,36.2102,2.7817,54.3154,4.1725,4.8119.3697,10.4209.3305,13.4362-4.3163,3.1068-4.7878,1.6582-12.0818-1.2801-17.0292-8.2258-13.8504-33.6726-10.2843-47.0322-5.5144,15.0116-51.9067,20.0978-120.9104,15.3057-175.7109" style="fill: #fff;"/>
        <path d="M230.5865,554.4366c15.3956,63.6614,3.9676,129.0152-1.5197,193.1578-.2185,2.5541,2.2464,4.3269,4.5,4.5,17.4584,1.3412,34.9145,2.7174,52.3755,4.0235,6.0057.4492,12.5162.6441,17.1752-3.8558,4.667-4.5076,5.1795-11.5083,3.5882-17.4872-6.2533-23.4955-37.1401-20.3821-54.896-14.2073,1.8452,1.8452,3.6904,3.6904,5.5355,5.5355,8.1273-28.366,12.6737-57.732,15.1665-87.101,2.5333-29.8454,2.8537-59.9512.2999-89.8062-.4899-5.7278-9.4944-5.7798-9,0,4.9494,57.8614.886,118.5628-15.145,174.5146-.9004,3.1426,2.2533,6.677,5.5355,5.5355,12.0954-4.2063,37.4836-9.6512,43.3732,6.4462,2.0096,5.4924,1.0182,11.277-5.6473,11.7006-5.7712.3668-11.8676-.7269-17.6249-1.1692-13.5788-1.0431-27.1577-2.0863-40.7365-3.1294l4.5,4.5c5.5652-65.0543,16.8118-130.9875,1.1982-195.5504-1.3608-5.627-10.0417-3.2442-8.6785,2.3926h0Z"/>
      </g>
      <g>
        <path d="M289.8232,750.3774c-4.0638-6.9095-10.4445-11.6705-17.2866-12.8986" style="fill: #fff;"/>
        <path d="M292.4136,748.8633c-4.3098-7.0429-10.8517-12.6031-19.0795-14.2773-3.7695-.767-5.382,5.0151-1.595,5.7857,6.7565,1.3748,11.9446,5.7201,15.4937,11.5199,2.0123,3.2884,7.2037.2775,5.1808-3.0283h0Z"/>
      </g>
      <g>
        <path d="M301.4358,744.3854c.2028-.7091-.3264-1.3913-.8077-1.852-3.7017-3.5438-7.7981-6.4576-12.1375-8.6336" style="fill: #fff;"/>
        <path d="M304.4358,744.3854c-.0613-3.4451-3.268-5.5351-5.7466-7.4854-2.7224-2.142-5.6024-4.0091-8.6844-5.5906-3.4294-1.7597-6.4685,3.4155-3.0283,5.1808,2.1908,1.1242,4.2994,2.3777,6.307,3.8056.9962.7086,1.9557,1.461,2.8871,2.2528.4555.3873.904.782,1.3462,1.1844.3027.2755.9288,1.2023.919.6523.0687,3.8565,6.0689,3.8689,6,0h0Z"/>
      </g>
    </g>
  </g>
  <g id="right_arm">
    <g>
      <path d="M357.9049,389.4176c29.0645,3.7378,55.3349,21.1923,73.3418,44.3109,18.0068,23.1186,28.3053,51.5108,33.4793,80.3543,7.6756-2.1435,16.136-1.3362,23.2676,2.2204,4.1953,2.0922,8.11,5.3629,9.5098,9.8371s-.5823,10.1638-5.0268,11.655c-5.0751,1.7028-10.1145-2.3512-13.942-6.0937,1.6924,4.6978,3.2906,10.2732.4493,14.3794-2.9433,4.2536-9.5884,4.4965-13.9121,1.6571-4.3236-2.8394-6.7052-7.8461-8.1894-12.8013,1.5889,6.1936-4.8048,12.9268-11.0722,11.6601-6.2674-1.2666-9.5446-9.9543-5.6752-15.0447-4.3193.9882-9.5476,1.7216-12.5647-1.5235-3.0892-3.3227-1.6351-9.0842,1.799-12.0491,3.4341-2.9649,8.1356-3.8689,12.6021-4.6647,2.3792-3.5517.9601-8.3174-.6603-12.2733-5.395-13.1706-27.9498-47.3842-39.96-43.1539" style="fill: #fff;"/>
      <path d="M356.7086,393.7569c27.5803,3.7851,51.9379,19.3166,69.3954,40.6986,18.813,23.0425,28.9888,51.8743,34.2827,80.8235.4447,2.432,3.344,3.6912,5.5355,3.143,8.0169-2.0053,17.7341-1.0806,24.1693,4.6147,2.4135,2.136,4.5615,5.6886,2.6492,8.8543-2.8175,4.6641-8.6051-1.0697-11.0242-3.3715-3.0723-2.9232-9.0705-.0579-7.5212,4.3783,1.4165,4.0561,4.1099,12.3828-2.9455,12.2169-5.813-.1367-8.5427-6.7102-10.0281-11.3743-1.7879-5.614-9.6144-3.243-8.6785,2.3926.6205,3.7367-4.0558,7.811-7.4242,5.2987-2.4406-1.8202-2.642-5.2443-1.0983-7.6084,2.277-3.4871-1.4698-7.3907-5.0819-6.6105-2.3529.5082-7.0987,1.8292-8.387-.9714-1.4594-3.1725,3.0106-5.9465,5.2119-6.826,2.5777-1.0298,6.1381-.7827,8.4791-2.215,2.198-1.3448,3.0696-4.3384,3.3572-6.7454,1.0639-8.9031-5.5978-18.8118-10.1402-26.0385-5.1722-8.2287-11.0488-16.4232-18.1701-23.0896-4.9708-4.6533-11.8904-9.9292-19.1348-7.7785-5.5395,1.6446-3.1808,10.3331,2.3926,8.6785,3.113-.9242,6.6654,2.2164,8.8369,4.0727,4.4982,3.8454,8.3659,8.4992,11.8811,13.2381,3.474,4.6833,6.6723,9.587,9.5615,14.6521,2.379,4.1708,7.7391,12.0917,5.2591,16.8538l2.6893-2.068c-8.9708,1.6314-19.567,5.845-19.3959,16.7126.1726,10.9627,11.7318,11.9787,19.952,10.2032l-5.0819-6.6105c-4.7896,7.3351-1.3429,18.6531,7.2904,21.3569,10.4928,3.2862,19.3272-6.9895,17.6819-16.8973l-8.6785,2.3926c3.0305,9.5157,9.8581,19.4558,21.1986,17.7756,12.1123-1.7946,12.3755-14.1159,9.1321-23.4033l-7.5212,4.3783c5.1269,4.8782,12.0284,9.9666,19.3952,6.7973,6.0479-2.6019,8.8348-9.9075,7.2441-16.1138-4.0017-15.6128-25.2879-19.119-38.4622-15.8236l5.5355,3.143c-5.59-30.5688-16.7404-60.5441-36.5972-84.7949-18.3215-22.3758-44.4583-39.0458-73.3668-43.0132-5.664-.7773-8.1141,7.8933-2.3926,8.6785h0Z"/>
    </g>
  </g>
  <g id="left_arm">
    <g>
      <path d="M225.6116,389.4176c-29.0645,3.7378-55.3349,21.1923-73.3418,44.3109-18.0068,23.1186-28.3053,51.5108-33.4793,80.3543-7.6756-2.1435-16.136-1.3362-23.2676,2.2204-4.1953,2.0922-8.11,5.3629-9.5098,9.8371-1.3997,4.4742.5823,10.1638,5.0268,11.655,5.0751,1.7028,10.1145-2.3512,13.942-6.0937-1.6924,4.6978-3.2906,10.2732-.4493,14.3794,2.9433,4.2536,9.5884,4.4965,13.9121,1.6571,4.3236-2.8394,6.7052-7.8461,8.1894-12.8013-1.5889,6.1936,4.8048,12.9268,11.0722,11.6601,6.2674-1.2666,9.5446-9.9543,5.6752-15.0447,4.3193.9882,9.5476,1.7216,12.5647-1.5235,3.0892-3.3227,1.6351-9.0842-1.799-12.0491-3.4341-2.9649-8.1356-3.8689-12.6021-4.6647-2.3792-3.5517-.9601-8.3174.6603-12.2733,5.395-13.1706,27.9498-47.3842,39.96-43.1539" style="fill: #fff;"/>
      <path d="M224.4153,385.0783c-28.9081,3.9674-55.0455,20.6376-73.3668,43.0132-19.8567,24.2507-31.0073,54.2263-36.5972,84.7949l5.5355-3.143c-13.1781-3.2964-34.4602.2094-38.4622,15.8236-1.5302,5.9703.9941,13.063,6.6689,15.8604,7.4792,3.687,14.705-1.534,19.9704-6.544-2.5071-1.4594-5.0142-2.9188-7.5212-4.3783-3.2446,9.2906-2.9726,21.6098,9.1321,23.4033,11.346,1.6811,18.168-8.2595,21.1986-17.7756l-8.6785-2.3926c-1.6452,9.9073,7.1859,20.1837,17.6819,16.8973,8.6327-2.703,12.0798-14.0221,7.2904-21.3569l-5.0819,6.6105c8.2223,1.7759,19.7793.7581,19.952-10.2032.1712-10.8658-10.4296-15.082-19.3959-16.7126l2.6893,2.068c-2.4305-4.6671,2.674-12.2844,4.9976-16.3959,2.9551-5.229,6.2447-10.2862,9.8229-15.1101,3.4228-4.6143,7.1764-9.0915,11.4963-12.8978,2.2159-1.9524,5.9738-5.3772,9.2216-4.413,5.564,1.6518,7.941-7.0313,2.3926-8.6785-7.2427-2.1502-14.1636,3.1249-19.1348,7.7785-7.1215,6.6666-12.9976,14.8605-18.1701,23.0896-4.5387,7.2208-11.202,17.1437-10.1402,26.0385.2819,2.3611,1.1854,5.4187,3.3572,6.7454,2.378,1.4527,5.8489,1.1925,8.4791,2.215,2.2603.8787,6.0519,3.1987,5.3843,6.2727-.7595,3.4972-6.1892,2.0366-8.5594,1.5247-3.6002-.7776-7.3554,3.1287-5.0819,6.6105,1.5437,2.3641,1.3423,5.7882-1.0983,7.6084-3.3685,2.5122-8.0448-1.5621-7.4242-5.2987.9342-5.6257-6.8874-8.0167-8.6785-2.3926-1.4913,4.6826-4.2064,11.2382-10.0281,11.3743-7.0825.1656-4.3547-8.182-2.9455-12.2169,1.5479-4.4323-4.4477-7.3027-7.5212-4.3783-2.3159,2.2035-7.4967,7.5343-10.7019,3.9725-2.6906-2.99-.0488-7.3528,2.3269-9.4553,6.4307-5.6913,16.1621-6.6177,24.1693-4.6147,2.201.5506,5.0891-.7014,5.5355-3.143,5.2883-28.9189,15.4451-57.8275,34.2827-80.8235,17.5035-21.3675,41.7825-36.909,69.3954-40.6986,5.7125-.784,3.2806-9.4571-2.3926-8.6785h0Z"/>
    </g>
  </g>
  <g id="body">
    <g>
      <path d="M289.7936,549.1847c13.1701,0,53.8157.3386,62.4908-2.6864,31.9654-11.1461,53.3336-51.2746,48.9981-89.0278-4.3355-37.7531-32.6449-69.6537-65.5638-76.2849-3.4276-31.8929-4.7684-64.0122-4.0161-96.0799.2014-8.5864,2.8998-13.3818-6.2646-14.701-7.9716-1.1475-16.6456-.5528-24.6941-.6399-13.1512-.1423-26.3057.0331-39.4484.5255-8.3185.3117-9.1283-.8144-9.1952,7.3959-.058,7.1204.3733,14.2651.4051,21.3903.1221,27.4194-1.2804,54.8463-4.2104,82.1091-32.919,6.6312-61.2283,38.5318-65.5638,76.2849-4.3355,37.7531,17.0328,77.8817,48.9981,89.0278,8.6751,3.025,47.2356,2.6977,58.0643,2.6864" style="fill: #fff;"/>
      <path d="M289.7936,553.6847c16.0955.0061,32.2332.194,48.3056-.8116,6.5653-.4108,12.9554-.9129,19.0685-3.4684,8.9895-3.7579,17.0096-9.5754,23.7038-16.6344,29.7438-31.3646,33.2719-81.2195,9.9375-117.1532-12.353-19.0229-31.4657-34.0181-53.894-38.7708l3.3037,4.3393c-2.4874-23.4391-3.91-46.9804-4.173-70.5509-.1173-10.5169-.1059-21.0318.573-31.5259.4172-6.4494-1.9705-11.2612-8.6339-12.8061-9.9726-2.3122-21.0355-1.0102-31.1864-1.071-11.8419-.0709-23.6679.2037-35.503.5587-5.1856.1555-11.3965-.3341-13.1617,5.788-1.0734,3.7228-.5606,8.1392-.4898,11.9382.1089,5.8411.3537,11.6754.3675,17.5185.0631,26.7713-1.3916,53.5309-4.2166,80.1506l3.3037-4.3393c-40.4653,8.5748-68.9682,49.1221-69.42,89.478-.2326,20.777,6.4723,41.9814,18.9434,58.6336,10.0972,13.4824,24.6262,25.3175,41.8133,27.3074,16.9748,1.9653,34.2984,1.444,51.3582,1.4193,5.7907-.0084,5.801-9.0084,0-9-13.7271.0199-27.4713.1017-41.1842-.6229-5.6148-.2967-11.5944-.3607-16.9239-2.3516-8.2688-3.0889-15.6136-8.4913-21.7025-14.8089-27.4621-28.4936-30.2895-74.0219-9.0071-106.7417,11.1554-17.1503,28.3367-30.3587,48.5154-34.6347,2.0798-.4407,3.1015-2.4334,3.3037-4.3393,2.1706-20.453,3.5351-40.9827,4.0154-61.5459.2359-10.097.2752-20.1915-.0125-30.2874-.1272-4.4647.193-9.0733-.1584-13.5109-.1708-2.1567.7793-1.5467-.5388-1.1002-1.0052.3405,2.5125.1189,2.6908.1145,19.2692-.4762,38.6219-1.1622,57.8973-.6242,2.3009.0642,9.2998-.5274,10.8515,1.3455.9794,1.1821-.1116,5.5228-.2078,6.9429-.653,9.644-.3951,19.4367-.2745,29.0967.2902,23.2429,1.7078,46.4553,4.1607,69.569.201,1.8936,1.2468,3.9034,3.3037,4.3393,38.2417,8.1036,64.2226,47.1531,62.751,85.2311-.7296,18.8795-7.7041,38.115-19.9968,52.5634-5.8943,6.9279-12.9542,12.8004-21.1746,16.764-5.5241,2.6635-10.8844,3.3125-16.939,3.7209-16.4199,1.1077-32.922.8866-49.3694.8804-5.7912-.0022-5.8006,8.9978,0,9h0Z"/>
    </g>
  </g>
  <g id="head">
    <g>
      <path d="M154.897,196.9527c2.7612-16.0723.1146-32.5347-2.7966-48.5805-5.4726-30.163-11.8889-60.1548-19.2365-89.9167,47.6349,32.1826,106.1089,58.4031,143.6209,101.9653" style="fill: #fff;"/>
      <path d="M159.2363,198.149c3.6812-23.1705-1.8162-46.5472-6.231-69.2419-4.6707-24.0104-9.9553-47.8968-15.8021-71.6479l-6.6105,5.0819c48.1969,32.4415,103.9444,56.6315,142.7101,101.2616,3.805,4.3806,10.1479-2.0076,6.364-6.364-39.2767-45.2185-95.7051-69.8036-144.5316-102.6689-3.4008-2.2891-7.4967,1.482-6.6105,5.0819,5.535,22.4843,10.5677,45.0895,15.0497,67.8074,4.3595,22.0969,10.5755,45.6871,6.9833,68.2972-.9002,5.6661,7.7708,8.1059,8.6785,2.3926h0Z"/>
    </g>
    <g>
      <path d="M446.5938,214.0394c-2.7612-16.0723,3.4875-44.3625,6.3987-60.4083,5.4726-30.163,11.8889-60.1548,19.2365-89.9167-47.6349,32.1826-105.6211,55.2554-143.133,98.8175" style="fill: #fff;"/>
      <path d="M450.9331,212.8431c-1.5783-10.0834-.0131-20.8513,1.5198-30.843,1.6426-10.7065,3.7917-21.3347,5.7605-31.9845,5.2768-28.5431,11.4165-56.9201,18.3549-85.105.8828-3.5859-3.2094-7.3693-6.6105-5.0819-48.2801,32.4705-105.1153,54.7316-144.0437,99.5212-3.7838,4.3535,2.556,10.7453,6.364,6.364,38.4027-44.1848,94.5844-66.0754,142.2223-98.1139l-6.6105-5.0819c-7.2506,29.4534-13.6087,59.1154-19.0612,88.9542-3.7659,20.6092-9.8669,42.7264-6.574,63.7634.8931,5.7054,9.5669,3.2828,8.6785-2.3926h0Z"/>
    </g>
    <path d="M172.6836,251.3794c1.9304,0,1.9336-3,0-3-1.9304,0-1.9336,3,0,3h0Z"/>
    <g>
      <path d="M144.1668,258.1384c-8.9025-5.3974-13.3098-16.0595-10.962-26.2022,14.4089-62.2476,117.1571-71.012,161.8132-70.4625,53.6729.6604,111.0095,11.9924,148.5341,50.3737,9.2604,9.4718,17.4921,22.346,14.2987,35.2018-1.8869,7.5961-7.5837,13.7935-14.1894,17.9919-37.9157,24.0985-84.3701-13.1029-123.471,9.0207-12.7523,7.2153-22.5773,23.5047-36.0272,17.6925-4.2713-1.8458-10.761-8.1989-14.2875-11.2346-31.39-27.0212-89.4223-.3814-125.709-22.3812Z" style="fill: #fff;"/>
      <path d="M146.4381,254.2527c-20.7788-13.4999-2.3273-41.4267,10.8643-53.0443,14.9049-13.1264,34.3353-20.5508,53.2849-25.5803,39.4797-10.4784,82.2304-12.1282,122.666-7.1959,28.0116,3.4168,56.1642,10.9653,80.4785,25.628,19.6293,11.8374,59.9565,44.6875,28.8857,66.2848-22.0397,15.3198-50.1535,6.462-74.4076,3.2275-12.3833-1.6514-25.1247-2.2673-37.2807,1.172-6.059,1.7143-11.985,4.3991-17.0962,8.0881-5.1177,3.6937-9.5784,8.2307-14.7417,11.8514-5.0749,3.5588-10.1865,5.1819-15.6573,1.454-4.9459-3.3702-8.9485-7.9421-13.7684-11.4841-9.2689-6.8115-20.5366-9.7379-31.8101-11.0064-24.8205-2.7927-50.3978,2.8397-74.9223-2.9041-5.8395-1.3677-11.323-3.4445-16.4952-6.4907-5.0017-2.9457-9.5353,4.8307-4.5425,7.7712,23.7219,13.971,52.7125,9.6622,78.9488,9.7688,12.74.0517,26.3764.7181,37.9252,6.6798,10.5873,5.4654,18.4837,19.2681,31.4578,19.0062,13.198-.2664,21.6946-13.4971,32.2343-19.5315,12.4295-7.1163,26.9214-7.4986,40.806-5.9836,26.8232,2.9268,55.5204,12.7067,80.7615-1.8881,12.7344-7.3633,21.4121-20.2975,18.2973-35.3914-3.0976-15.0104-15.4982-27.0746-26.9454-36.3547-23.4347-18.9981-52.1469-29.997-81.5472-35.7006-45.3479-8.7975-94.4976-7.8913-139.5089,2.7815-20.8547,4.9449-41.8932,12.5291-58.9689,25.8031-7.8855,6.1299-14.8286,13.5602-19.7603,22.2909-5.5178,9.7682-9.8461,22.0992-5.9686,33.173,2.2732,6.492,6.5261,11.6158,12.2685,15.3466,4.8712,3.1648,9.3871-4.6237,4.5425-7.7712Z"/>
    </g>
    <path d="M210.5204,220.2977c-6.8099,2.7812-13.3831,8.204-15.4027,15.6096-1.8399,6.7464,5.0666,10.9796,10.5079,12.9618,16.9398,6.1707,37.5689-.3106,54.265-4.3335,21.2118-5.1109,41.7968-7.2,63.4168-3.116,18.6274,3.5187,37.7699,13.6267,57.0937,11.2849,8.0691-.9779,15.2173-5.9938,15.9116-14.6392.6366-7.9268-5.0884-14.731-12.7344-16.2371-3.7716-.7429-5.3861,5.0389-1.595,5.7857,4.4893.8843,8.3076,4.1359,8.3988,9.0115.1166,6.2328-5.2127,9.5303-10.7873,10.1818-9.6867,1.1322-19.7148-1.7423-28.9213-4.415-18.5427-5.3831-36.8472-9.8932-56.3227-9.3469-19.0481.5343-36.9681,6.6552-55.5483,10.0976-9.1635,1.6977-19.5205,3.1872-28.7096.8288-4.0273-1.0336-10.9148-3.2532-8.3716-8.4372,2.1321-4.3459,5.9494-7.6359,10.3939-9.4511,3.5269-1.4404,1.9836-7.2472-1.595-5.7857h0Z"/>
    <path d="M228.6176,216.0069c16.3458-1.4034,31.7859-7.0375,45.0313-16.7559,3.0811-2.2607.0913-7.4697-3.0283-5.1808-12.3606,9.0691-26.7069,14.6234-42.003,15.9367-3.8183.3278-3.853,6.3308,0,6h0Z"/>
    <g>
      <path d="M242.9987,211.8173c-.128,1.1492.2457,2.2986.7481,3.3401.6684,1.3856,1.6124,2.6914,2.9391,3.4702,1.5694.9213,3.5574,1.0005,5.2742.3968s3.168-1.8415,4.2189-3.3273c1.8937-2.6776,2.5124-6.2174,1.639-9.3786"/>
      <path d="M241.4987,211.8173c-.1796,2.2898.9892,4.6325,2.4101,6.3634,1.4108,1.7186,3.4928,2.7056,5.7149,2.7307,4.5263.0512,8.1031-3.6335,9.4493-7.6968.7771-2.3457.8207-4.9116.1914-7.2948-.4924-1.865-3.387-1.074-2.8928.7975,1.0113,3.8302-.3969,8.4688-3.9847,10.4745-1.6276.9099-3.7797,1.0479-5.3305-.1085-1.5152-1.1299-2.7061-3.3726-2.5576-5.266.0634-.8086-.7348-1.5-1.5-1.5-.8644,0-1.4364.689-1.5,1.5h0Z"/>
    </g>
    <path d="M311.4509,216.0069c16.3458-1.4034,31.7859-7.0375,45.0313-16.7559,3.0811-2.2607.0913-7.4697-3.0283-5.1808-12.3606,9.0691-26.7069,14.6234-42.003,15.9367-3.8183.3278-3.853,6.3308,0,6h0Z"/>
    <g>
      <path d="M325.8321,211.8173c-.128,1.1492.2457,2.2986.7481,3.3401.6684,1.3856,1.6124,2.6914,2.9391,3.4702,1.5694.9213,3.5574,1.0005,5.2742.3968s3.168-1.8415,4.2189-3.3273c1.8937-2.6776,2.5124-6.2174,1.639-9.3786"/>
      <path d="M324.3321,211.8173c-.1796,2.2898.9892,4.6325,2.4101,6.3634,1.4108,1.7186,3.4928,2.7056,5.7149,2.7307,4.5263.0512,8.1031-3.6335,9.4493-7.6968.7771-2.3457.8207-4.9116.1914-7.2948-.4924-1.865-3.387-1.074-2.8928.7975,1.0113,3.8302-.3969,8.4688-3.9847,10.4745-1.6276.9099-3.7797,1.0479-5.3305-.1085-1.5152-1.1299-2.7061-3.3726-2.5576-5.266.0634-.8086-.7348-1.5-1.5-1.5-.8644,0-1.4364.689-1.5,1.5h0Z"/>
    </g>
    <path d="M370.726,233.8953c9.6153-12.3131,20.4708-23.5003,32.489-33.4817,2.9732-2.4693-1.2915-6.6936-4.2426-4.2426-12.0182,9.9814-22.8738,21.1686-32.489,33.4817-2.3494,3.0086,1.8675,7.2842,4.2426,4.2426h0Z"/>
    <path d="M376.1835,236.8771c12.6983-1.4777,25.3756-3.119,38.0327-4.9155,3.8074-.5404,2.1877-6.3226-1.595-5.7857-12.1261,1.7211-24.2722,3.2854-36.4377,4.7012-3.79.4411-3.8346,6.4462,0,6h0Z"/>
    <path d="M374.5985,243.1574c9.7774,4.214,19.3556,8.837,28.7374,13.8704,3.402,1.8252,6.4358-3.3527,3.0283-5.1808-9.3819-5.0334-18.9601-9.6564-28.7374-13.8704-3.5087-1.5122-6.5682,3.6552-3.0283,5.1808h0Z"/>
    <path d="M229.3934,229.6527c-9.6153-12.3131-20.4708-23.5003-32.489-33.4817-2.9499-2.45-7.2172,1.7722-4.2426,4.2426,12.0182,9.9814,22.8738,21.1686,32.489,33.4817,2.3741,3.0402,6.593-1.2328,4.2426-4.2426h0Z"/>
    <path d="M219.6933,230.8771c-12.1655-1.4157-24.3116-2.98-36.4377-4.7012-3.7766-.536-5.4085,5.2444-1.595,5.7857,12.6571,1.7965,25.3344,3.4377,38.0327,4.9155,3.8282.4455,3.7963-5.5582,0-6h0Z"/>
    <path d="M218.25,237.9766c-9.7774,4.214-19.3556,8.837-28.7374,13.8704-3.4038,1.8262-.3771,7.0078,3.0283,5.1808,9.3819-5.0334,18.9601-9.6564,28.7374-13.8704,3.5361-1.524.4837-6.6945-3.0283-5.1808h0Z"/>
    <ellipse cx="292.0069" cy="223.1905" rx="10.3791" ry="3.9896" style="stroke: #000; stroke-miterlimit: 10;"/>
  </g>
</svg>