<?xml version="1.0" encoding="UTF-8"?>
<svg xmlns="http://www.w3.org/2000/svg" width="595.2756" height="841.8898" version="1.1" viewBox="0 0 595.2756 841.8898">
  <!-- Generator: Adobe Illustrator 29.4.0, SVG Export Plug-In . SVG Version: 2.1.0 Build 152)  -->
  <g id="right_leg">
    <g>
      <g>
        <path d="M335.0035,550.0035c46.0261,47.305,77.1467,117.3815,105.9916,177.6976,16.3199-7.9617,32.6399-15.9235,48.9598-23.8852,4.3375-2.116,9.1555-4.988,9.405-10.5218.257-5.7017-4.6832-11.2599-9.7211-14.0404-14.1035-7.784-34.2475,8.1682-43.357,19.0424-13.3174-52.3669-43.8469-114.4583-75.7098-159.3004" style="fill: #fff;"/>
        <path d="M331.8216,553.1855c48.0116,49.6608,75.9114,115.32,105.2879,176.7869,1.102,2.3057,4.1233,2.6064,6.1569,1.6144,15.1542-7.393,30.3085-14.7861,45.4627-22.1791,5.0941-2.4852,10.6964-4.9372,13.5517-10.1612,2.8985-5.303,1.4248-11.6355-1.9101-16.3392-15.8765-22.3927-44.369-2.9064-57.2707,12.2069l7.5212,1.9857c-7.34-28.5625-18.2677-56.1794-30.9752-82.756-12.9223-27.0259-27.877-53.1574-45.1883-77.6193-3.3192-4.6902-11.1269-.1993-7.7712,4.5425,33.555,47.4152,60.7663,101.84,75.2562,158.2254.7978,3.1044,5.299,4.5889,7.5212,1.9857,8.6253-10.1039,32.8668-31.0496,43.9937-12.7746,3.0092,4.9423.1919,8.0075-4.1354,10.389-5.0659,2.7879-10.4298,5.1267-15.627,7.6622-11.6571,5.6869-23.3142,11.3739-34.9713,17.0608l6.1569,1.6144c-29.7359-62.219-58.0966-128.3404-106.6952-178.6084-4.0333-4.1718-10.3932,2.1964-6.364,6.364h0Z"/>
      </g>
      <g>
        <path d="M478.5899,711.3572c-6.3507-4.8912-14.048-6.924-20.8536-5.5073" style="fill: #fff;"/>
        <path d="M480.104,708.7668c-6.7966-4.9938-14.804-7.291-23.1653-5.8097-3.7955.6724-2.1871,6.4557,1.595,5.7857,6.7782-1.2009,13.129,1.2278,18.5419,5.2048,3.1148,2.2885,6.111-2.9159,3.0283-5.1808h0Z"/>
      </g>
      <g>
        <path d="M487.1234,701.461c-.0768-.7335-.8225-1.1686-1.441-1.4162-4.7576-1.9044-9.6459-3.077-14.484-3.4745" style="fill: #fff;"/>
        <path d="M489.7138,699.9469c-1.1834-2.794-5.0386-3.5564-7.6574-4.3437-3.5444-1.0656-7.1779-1.6855-10.858-2.0328-3.8422-.3627-3.8173,5.6397,0,6,2.3766.2243,4.7173.6213,7.0333,1.2024,1.0699.2684,5.8123,1.0481,6.3013,2.2025,1.501,3.5437,6.6708.4894,5.1808-3.0283h0Z"/>
      </g>
    </g>
  </g>
  <g id="left_leg">
    <g>
      <g>
        <path d="M233.2029,546.4556c-10.1785,65.2117-45.3176,119.5016-76.2183,178.7908,16.1677,8.2666,32.3353,16.5331,48.503,24.7997,4.297,2.1971,9.487,4.3244,14.0614,1.2002,4.7131-3.219,6.19-10.5073,5.3873-16.2052-2.2471-15.9514-27.1003-22.4764-41.2659-23.2286,33.871-42.1,69.6111-110.7001,86.3269-163.1086" style="fill: #fff;"/>
        <path d="M228.8637,545.2594c-10.3454,64.7694-45.9241,120.5718-75.7647,177.7158-1.0764,2.0612-.6338,5.0074,1.6144,6.1569,16.16,8.2627,32.2073,16.8088,48.503,24.7997,5.9254,2.9056,12.534,5.084,18.6038,1.2002,4.8081-3.0765,7.0726-8.8387,7.6419-14.2923,2.4988-23.9372-27.0968-32.3831-45.7917-33.5271,1.0607,2.5607,2.1213,5.1213,3.182,7.682,19.4654-24.313,35.8015-51.079,50.2998-78.5996,14.6173-27.7467,27.5849-56.6088,37.1844-86.4946,1.7754-5.5273-6.9114-7.8941-8.6785-2.3926-9.368,29.1653-22.0122,57.267-36.2771,84.3447-14.1205,26.8036-29.9287,53.0916-48.8925,76.7781-2.4491,3.0591-.931,7.4303,3.182,7.682,12.421.7601,37.0865,5.5689,36.963,21.9032-.035,4.6274-1.8823,10.7878-7.6168,9.9266-5.9386-.8919-12.0859-5.473-17.3835-8.1816-12.1258-6.1999-24.2515-12.3998-36.3773-18.5998l1.6144,6.1569c30.1743-57.783,66.2111-114.3739,76.6719-179.8657.905-5.6661-7.766-8.1054-8.6785-2.3926h0Z"/>
      </g>
      <g>
        <path d="M207.8145,749.5128c-1.0842-7.9423-5.1348-14.796-10.9738-18.5682" style="fill: #fff;"/>
        <path d="M210.7073,748.7153c-1.2894-8.2564-5.3959-15.6118-12.3525-20.3611-3.1972-2.1827-6.2019,3.0142-3.0283,5.1808,5.6848,3.881,8.5585,10.1369,9.5952,16.7753.594,3.8037,6.3765,2.1885,5.7857-1.595h0Z"/>
      </g>
      <g>
        <path d="M220.8397,748.4636c.4606-.576.2355-1.4095-.0308-2.0202-2.0484-4.6973-4.704-8.9657-7.8682-12.6471" style="fill: #fff;"/>
        <path d="M223.7325,749.2611c1.1683-2.9406-1.1956-6.385-2.5804-8.8804-1.7255-3.1094-3.8032-5.9877-6.0902-8.7057-2.4891-2.9582-6.7146,1.3047-4.2426,4.2426,1.5287,1.8169,2.9121,3.7302,4.1447,5.7599.6886,1.1338,3.4538,4.8032,2.9829,5.9885-1.4258,3.5887,4.3746,5.1467,5.7857,1.595h0Z"/>
      </g>
    </g>
  </g>
  <g id="right_arm">
    <g>
      <path d="M363.7844,388.5041c29.0645,3.7378,55.3349,21.1923,73.3418,44.3109,18.0068,23.1186,28.3053,51.5108,33.4793,80.3543,7.6756-2.1435,16.136-1.3362,23.2676,2.2204,4.1953,2.0922,8.11,5.3629,9.5098,9.8371,1.3997,4.4742-.5823,10.1638-5.0268,11.655-5.0751,1.7028-10.1145-2.3512-13.942-6.0937,1.6924,4.6978,3.2906,10.2732.4493,14.3794-2.9433,4.2536-9.5884,4.4965-13.9121,1.6571-4.3236-2.8394-6.7052-7.8461-8.1894-12.8013,1.5889,6.1936-4.8048,12.9268-11.0722,11.6601-6.2674-1.2666-9.5446-9.9543-5.6752-15.0447-4.3193.9882-9.5476,1.7216-12.5647-1.5235-3.0892-3.3227-1.6351-9.0842,1.799-12.0491,3.4341-2.9649,8.1356-3.8689,12.6021-4.6647,2.3792-3.5517.9601-8.3174-.6603-12.2733-5.395-13.1706-27.9498-47.3842-39.96-43.1539" style="fill: #fff;"/>
      <path d="M362.5882,392.8434c27.5803,3.7851,51.9379,19.3166,69.3954,40.6986,18.813,23.0425,28.9888,51.8743,34.2827,80.8235.4447,2.432,3.344,3.6912,5.5355,3.143,8.0169-2.0053,17.7341-1.0806,24.1693,4.6147,2.4135,2.136,4.5615,5.6886,2.6492,8.8543-2.8175,4.6641-8.6051-1.0697-11.0242-3.3715-3.0723-2.9232-9.0705-.0579-7.5212,4.3783,1.4165,4.0561,4.1099,12.3828-2.9455,12.2169-5.813-.1367-8.5427-6.7102-10.0281-11.3743-1.7879-5.614-9.6144-3.243-8.6785,2.3926.6205,3.7367-4.0558,7.811-7.4242,5.2987-2.4406-1.8202-2.642-5.2443-1.0983-7.6084,2.277-3.4871-1.4698-7.3907-5.0819-6.6105-2.3529.5082-7.0987,1.8292-8.387-.9714-1.4594-3.1725,3.0106-5.9465,5.2119-6.826,2.5777-1.0298,6.1381-.7827,8.4791-2.215,2.198-1.3448,3.0696-4.3384,3.3572-6.7454,1.0639-8.9031-5.5978-18.8118-10.1402-26.0385-5.1722-8.2287-11.0488-16.4232-18.1701-23.0896-4.9708-4.6533-11.8904-9.9292-19.1348-7.7785-5.5395,1.6446-3.1808,10.3331,2.3926,8.6785,3.113-.9242,6.6654,2.2164,8.8369,4.0727,4.4982,3.8454,8.3659,8.4992,11.8811,13.2381,3.474,4.6833,6.6723,9.587,9.5615,14.6521,2.379,4.1708,7.7391,12.0917,5.2591,16.8538.8964-.6893,1.7929-1.3787,2.6893-2.068-8.9708,1.6314-19.567,5.845-19.3959,16.7126.1726,10.9627,11.7318,11.9787,19.952,10.2032-1.694-2.2035-3.3879-4.407-5.0819-6.6105-4.7896,7.3351-1.3429,18.6531,7.2904,21.3569,10.4928,3.2862,19.3272-6.9895,17.6819-16.8973l-8.6785,2.3926c3.0305,9.5157,9.8581,19.4558,21.1986,17.7756,12.1123-1.7946,12.3755-14.1159,9.1321-23.4033l-7.5212,4.3783c5.1269,4.8782,12.0284,9.9666,19.3952,6.7973,6.0479-2.6019,8.8348-9.9075,7.2441-16.1138-4.0017-15.6128-25.2879-19.119-38.4622-15.8236,1.8452,1.0477,3.6904,2.0953,5.5355,3.143-5.59-30.5688-16.7404-60.5441-36.5972-84.7949-18.3215-22.3758-44.4583-39.0458-73.3668-43.0132-5.664-.7773-8.1141,7.8933-2.3926,8.6785h0Z"/>
    </g>
  </g>
  <g id="left_arm">
    <g>
      <path d="M231.4911,388.5041c-29.0645,3.7378-55.3349,21.1923-73.3418,44.3109-18.0068,23.1186-28.3053,51.5108-33.4793,80.3543-7.6756-2.1435-16.136-1.3362-23.2676,2.2204-4.1953,2.0922-8.11,5.3629-9.5098,9.8371s.5823,10.1638,5.0268,11.655c5.0751,1.7028,10.1145-2.3512,13.942-6.0937-1.6924,4.6978-3.2906,10.2732-.4493,14.3794,2.9433,4.2536,9.5884,4.4965,13.9121,1.6571,4.3236-2.8394,6.7052-7.8461,8.1894-12.8013-1.5889,6.1936,4.8048,12.9268,11.0722,11.6601,6.2674-1.2666,9.5446-9.9543,5.6752-15.0447,4.3193.9882,9.5476,1.7216,12.5647-1.5235,3.0892-3.3227,1.6351-9.0842-1.799-12.0491-3.4341-2.9649-8.1356-3.8689-12.6021-4.6647-2.3792-3.5517-.9601-8.3174.6603-12.2733,5.395-13.1706,27.9498-47.3842,39.96-43.1539" style="fill: #fff;"/>
      <path d="M230.2948,384.1649c-28.9081,3.9674-55.0455,20.6376-73.3668,43.0132-19.8567,24.2507-31.0073,54.2263-36.5972,84.7949l5.5355-3.143c-13.1781-3.2964-34.4602.2094-38.4622,15.8236-1.5302,5.9703.9941,13.063,6.6689,15.8604,7.4792,3.687,14.705-1.534,19.9704-6.544l-7.5212-4.3783c-3.2446,9.2906-2.9726,21.6098,9.1321,23.4033,11.346,1.6811,18.168-8.2595,21.1986-17.7756l-8.6785-2.3926c-1.6452,9.9073,7.1859,20.1837,17.6819,16.8973,8.6327-2.703,12.0798-14.0221,7.2904-21.3569l-5.0819,6.6105c8.2223,1.7759,19.7793.7581,19.952-10.2032.1712-10.8658-10.4296-15.082-19.3959-16.7126l2.6893,2.068c-2.4305-4.6671,2.674-12.2844,4.9976-16.3959,2.9551-5.229,6.2447-10.2862,9.8229-15.1101,3.4228-4.6143,7.1764-9.0915,11.4963-12.8978,2.2159-1.9524,5.9738-5.3772,9.2216-4.413,5.564,1.6518,7.941-7.0313,2.3926-8.6785-7.2427-2.1502-14.1636,3.1249-19.1348,7.7785-7.1215,6.6666-12.9976,14.8605-18.1701,23.0896-4.5387,7.2208-11.202,17.1437-10.1402,26.0385.2819,2.3611,1.1854,5.4187,3.3572,6.7454,2.378,1.4527,5.8489,1.1925,8.4791,2.215,2.2603.8787,6.0519,3.1987,5.3843,6.2727-.7595,3.4972-6.1892,2.0366-8.5594,1.5247-3.6002-.7776-7.3554,3.1287-5.0819,6.6105,1.5437,2.3641,1.3423,5.7882-1.0983,7.6084-3.3685,2.5122-8.0448-1.5621-7.4242-5.2987.9342-5.6257-6.8874-8.0167-8.6785-2.3926-1.4913,4.6826-4.2064,11.2382-10.0281,11.3743-7.0825.1656-4.3547-8.182-2.9455-12.2169,1.5479-4.4323-4.4477-7.3027-7.5212-4.3783-2.3159,2.2035-7.4967,7.5343-10.7019,3.9725-2.6906-2.99-.0488-7.3528,2.3269-9.4553,6.4307-5.6913,16.1621-6.6177,24.1693-4.6147,2.201.5506,5.0891-.7014,5.5355-3.143,5.2883-28.9189,15.4451-57.8275,34.2827-80.8235,17.5035-21.3675,41.7825-36.909,69.3954-40.6986,5.7125-.784,3.2806-9.4571-2.3926-8.6785h0Z"/>
    </g>
  </g>
  <g id="body">
    <g>
      <path d="M295.6732,548.271c-10.8288.0115-49.3892.3441-58.0643-2.7304-31.9654-11.3289-53.3336-52.1157-48.9981-90.4881,4.3355-38.3724,32.6449-70.7962,65.5638-77.5362,3.924-37.1101,5.114-74.607,3.5529-111.9504h80.318c-1.5611,37.3434-.3711,74.8403,3.5529,111.9504,32.919,6.74,61.2283,39.1638,65.5638,77.5362,4.3355,38.3724-17.0328,79.1592-48.9981,90.4881-8.6751,3.0746-49.3207,2.7304-62.4908,2.7304" style="fill: #fff;"/>
      <path d="M295.6732,543.771c-13.914.0205-27.8491.1132-41.7469-.6643-5.4389-.3043-11.19-.4142-16.3453-2.3555-8.3877-3.1586-15.82-8.7944-21.9156-15.2811-27.1657-28.9088-30.0397-74.6409-9.1966-107.7632,11.0866-17.618,28.344-31.4234,48.9021-35.8512,2.0771-.4474,3.1042-2.4283,3.3037-4.3393,3.8833-37.1866,5.0662-74.5924,3.5529-111.9504l-4.5,4.5h80.318l-4.5-4.5c-1.5133,37.358-.3304,74.7638,3.5529,111.9504.1984,1.8994,1.2491,3.8967,3.3037,4.3393,38.6322,8.3206,64.1104,48.293,62.7574,86.5271-.6843,19.3366-7.7257,39.182-20.304,54.0081-5.8412,6.885-12.8073,12.7559-20.9502,16.7307-5.4966,2.6831-10.8263,3.3407-16.8627,3.7546-16.4187,1.1257-32.9225.9012-49.3694.8949-5.7912-.0022-5.8006,8.9978,0,9,16.2711.0062,32.5927.2156,48.8375-.8599,6.8623-.4543,13.2327-1.1252,19.5649-3.921,8.8804-3.9208,16.8192-9.9878,23.3269-17.1633,29.1381-32.1277,32.513-81.9826,9.2861-118.277-12.2888-19.2024-31.3386-34.5148-53.894-39.3728,1.1012,1.4464,2.2025,2.8928,3.3037,4.3393-3.8833-37.1866-5.0662-74.5924-3.5529-111.9504.0985-2.4315-2.1416-4.5-4.5-4.5h-80.318c-2.3599,0-4.5987,2.0624-4.5,4.5,1.5133,37.358.3304,74.7638-3.5529,111.9504l3.3037-4.3393c-41.0859,8.8491-69.2543,50.7124-69.4217,91.5004-.0852,20.7715,6.4936,42.0427,18.8459,58.8029,10.073,13.6676,24.5722,25.7884,41.9125,27.8481,16.9646,2.015,34.3041,1.4676,51.3582,1.4426,5.7907-.0085,5.801-9.0085,0-9h0Z"/>
    </g>
  </g>
  <g id="head">
    <g>
      <g>
        <path d="M160.7766,196.0393c2.7612-16.0723.1146-32.5347-2.7966-48.5805-5.4726-30.163-11.8889-60.1548-19.2365-89.9167,47.6349,32.1826,106.1089,58.4031,143.6209,101.9653" style="fill: #fff;"/>
        <path d="M165.1159,197.2356c3.6812-23.1705-1.8162-46.5472-6.231-69.2419-4.6707-24.0104-9.9553-47.8968-15.8021-71.6479l-6.6105,5.0819c48.1969,32.4415,103.9444,56.6315,142.7101,101.2616,3.805,4.3806,10.1479-2.0076,6.364-6.364-39.2767-45.2185-95.7051-69.8036-144.5316-102.6689-3.4008-2.2891-7.4967,1.482-6.6105,5.0819,5.535,22.4843,10.5677,45.0895,15.0497,67.8074,4.3595,22.0969,10.5755,45.6871,6.9833,68.2972-.9002,5.6661,7.7708,8.1059,8.6785,2.3926h0Z"/>
      </g>
      <g>
        <path d="M452.4734,213.1259c-2.7612-16.0723,3.4875-44.3625,6.3987-60.4083,5.4726-30.163,11.8889-60.1548,19.2365-89.9167-47.6349,32.1826-105.6211,55.2554-143.133,98.8175" style="fill: #fff;"/>
        <path d="M456.8126,211.9296c-1.5783-10.0834-.0131-20.8513,1.5198-30.843,1.6426-10.7065,3.7917-21.3347,5.7605-31.9845,5.2768-28.5431,11.4165-56.9201,18.3549-85.105.8828-3.5859-3.2094-7.3693-6.6105-5.0819-48.2801,32.4705-105.1153,54.7316-144.0437,99.5212-3.7838,4.3535,2.556,10.7453,6.364,6.364,38.4027-44.1848,94.5844-66.0754,142.2223-98.1139-2.2035-1.694-4.407-3.3879-6.6105-5.0819-7.2506,29.4534-13.6087,59.1154-19.0612,88.9542-3.7659,20.6092-9.8669,42.7264-6.574,63.7634.8931,5.7054,9.5669,3.2828,8.6785-2.3926h0Z"/>
      </g>
      <path d="M178.5632,250.4659c1.9304,0,1.9336-3,0-3-1.9304,0-1.9336,3,0,3h0Z"/>
      <g>
        <path d="M150.0464,257.2249c-8.9025-5.3974-13.3098-16.0595-10.962-26.2022,14.4089-62.2476,117.1571-71.012,161.8132-70.4625,53.6729.6604,111.0095,11.9924,148.5341,50.3737,9.2604,9.4718,17.4921,22.346,14.2987,35.2018-1.8869,7.5961-7.5837,13.7935-14.1894,17.9919-37.9157,24.0985-84.3701-13.1029-123.471,9.0207-12.7523,7.2153-22.5773,23.5047-36.0272,17.6925-4.2713-1.8458-10.761-8.1989-14.2875-11.2346-31.39-27.0212-89.4223-.3814-125.709-22.3812Z" style="fill: #fff;"/>
        <path d="M152.3176,253.3393c-20.7788-13.4999-2.3273-41.4267,10.8643-53.0443,14.9049-13.1264,34.3353-20.5508,53.2849-25.5803,39.4797-10.4784,82.2304-12.1282,122.666-7.1959,28.0116,3.4168,56.1642,10.9653,80.4785,25.628,19.6293,11.8374,59.9565,44.6875,28.8857,66.2848-22.0397,15.3198-50.1535,6.462-74.4076,3.2275-12.3833-1.6514-25.1247-2.2673-37.2807,1.172-6.059,1.7143-11.985,4.3991-17.0962,8.0881-5.1177,3.6937-9.5784,8.2307-14.7417,11.8514-5.0749,3.5588-10.1865,5.1819-15.6573,1.454-4.9459-3.3702-8.9485-7.9421-13.7684-11.4841-9.2689-6.8115-20.5366-9.7379-31.8101-11.0064-24.8205-2.7927-50.3978,2.8397-74.9223-2.9041-5.8395-1.3677-11.323-3.4445-16.4952-6.4907-5.0017-2.9457-9.5353,4.8307-4.5425,7.7712,23.7219,13.971,52.7125,9.6622,78.9488,9.7688,12.74.0517,26.3764.7181,37.9252,6.6798,10.5873,5.4654,18.4837,19.2681,31.4578,19.0062,13.198-.2664,21.6946-13.4971,32.2343-19.5315,12.4295-7.1163,26.9214-7.4986,40.806-5.9836,26.8232,2.9268,55.5204,12.7067,80.7615-1.8881,12.7344-7.3633,21.4121-20.2975,18.2973-35.3914-3.0976-15.0104-15.4982-27.0746-26.9454-36.3547-23.4347-18.9981-52.1469-29.997-81.5472-35.7006-45.3479-8.7975-94.4976-7.8913-139.5089,2.7815-20.8547,4.9449-41.8932,12.5291-58.9689,25.8031-7.8855,6.1299-14.8286,13.5602-19.7603,22.2909-5.5178,9.7682-9.8461,22.0992-5.9686,33.173,2.2732,6.492,6.5261,11.6158,12.2685,15.3466,4.8712,3.1648,9.3871-4.6237,4.5425-7.7712Z"/>
      </g>
      <path d="M216.4,219.3842c-6.8099,2.7812-13.3831,8.204-15.4027,15.6096-1.8399,6.7464,5.0666,10.9796,10.5079,12.9618,16.9398,6.1707,37.5689-.3106,54.265-4.3335,21.2118-5.1109,41.7968-7.2,63.4168-3.116,18.6274,3.5187,37.7699,13.6267,57.0937,11.2849,8.0691-.9779,15.2173-5.9938,15.9116-14.6392.6366-7.9268-5.0884-14.731-12.7344-16.2371-3.7716-.7429-5.3861,5.0389-1.595,5.7857,4.4893.8843,8.3076,4.1359,8.3988,9.0115.1166,6.2328-5.2127,9.5303-10.7873,10.1818-9.6867,1.1322-19.7148-1.7423-28.9213-4.415-18.5427-5.3831-36.8472-9.8932-56.3227-9.3469-19.0481.5343-36.9681,6.6552-55.5483,10.0976-9.1635,1.6977-19.5205,3.1872-28.7096.8288-4.0273-1.0336-10.9148-3.2532-8.3716-8.4372,2.1321-4.3459,5.9494-7.6359,10.3939-9.4511,3.5269-1.4404,1.9836-7.2472-1.595-5.7857h0Z"/>
      <path d="M234.4972,215.0934c16.3458-1.4034,31.7859-7.0375,45.0313-16.7559,3.0811-2.2607.0913-7.4697-3.0283-5.1808-12.3606,9.0691-26.7069,14.6234-42.003,15.9367-3.8183.3278-3.853,6.3308,0,6h0Z"/>
      <g>
        <path d="M248.8783,210.9038c-.128,1.1492.2457,2.2986.7481,3.3401.6684,1.3856,1.6124,2.6914,2.9391,3.4702,1.5694.9213,3.5574,1.0005,5.2742.3968s3.168-1.8415,4.2189-3.3273c1.8937-2.6776,2.5124-6.2174,1.639-9.3786"/>
        <path d="M247.3783,210.9038c-.1796,2.2898.9892,4.6325,2.4101,6.3634,1.4108,1.7186,3.4928,2.7056,5.7149,2.7307,4.5263.0512,8.1031-3.6335,9.4493-7.6968.7771-2.3457.8207-4.9116.1914-7.2948-.4924-1.865-3.387-1.074-2.8928.7975,1.0113,3.8302-.3969,8.4688-3.9847,10.4745-1.6276.9099-3.7797,1.0479-5.3305-.1085-1.5152-1.1299-2.7061-3.3726-2.5576-5.266.0634-.8086-.7348-1.5-1.5-1.5-.8644,0-1.4364.689-1.5,1.5h0Z"/>
      </g>
      <path d="M317.3305,215.0934c16.3458-1.4034,31.7859-7.0375,45.0313-16.7559,3.0811-2.2607.0913-7.4697-3.0283-5.1808-12.3606,9.0691-26.7069,14.6234-42.003,15.9367-3.8183.3278-3.853,6.3308,0,6h0Z"/>
      <g>
        <path d="M331.7116,210.9038c-.128,1.1492.2457,2.2986.7481,3.3401.6684,1.3856,1.6124,2.6914,2.9391,3.4702,1.5694.9213,3.5574,1.0005,5.2742.3968s3.168-1.8415,4.2189-3.3273c1.8937-2.6776,2.5124-6.2174,1.639-9.3786"/>
        <path d="M330.2116,210.9038c-.1796,2.2898.9892,4.6325,2.4101,6.3634,1.4108,1.7186,3.4928,2.7056,5.7149,2.7307,4.5263.0512,8.1031-3.6335,9.4493-7.6968.7771-2.3457.8207-4.9116.1914-7.2948-.4924-1.865-3.387-1.074-2.8928.7975,1.0113,3.8302-.3969,8.4688-3.9847,10.4745-1.6276.9099-3.7797,1.0479-5.3305-.1085-1.5152-1.1299-2.7061-3.3726-2.5576-5.266.0634-.8086-.7348-1.5-1.5-1.5-.8644,0-1.4364.689-1.5,1.5h0Z"/>
      </g>
      <path d="M376.6056,232.9818c9.6153-12.3131,20.4708-23.5003,32.489-33.4817,2.9732-2.4693-1.2915-6.6936-4.2426-4.2426-12.0182,9.9814-22.8738,21.1686-32.489,33.4817-2.3494,3.0086,1.8675,7.2842,4.2426,4.2426h0Z"/>
      <path d="M382.0631,235.9636c12.6983-1.4777,25.3756-3.119,38.0327-4.9155,3.8074-.5404,2.1877-6.3226-1.595-5.7857-12.1261,1.7211-24.2722,3.2854-36.4377,4.7012-3.79.4411-3.8346,6.4462,0,6h0Z"/>
      <path d="M380.4781,242.2439c9.7774,4.214,19.3556,8.837,28.7374,13.8704,3.402,1.8252,6.4358-3.3527,3.0283-5.1808-9.3819-5.0334-18.9601-9.6564-28.7374-13.8704-3.5087-1.5122-6.5682,3.6552-3.0283,5.1808h0Z"/>
      <path d="M235.273,228.7392c-9.6153-12.3131-20.4708-23.5003-32.489-33.4817-2.9499-2.45-7.2172,1.7722-4.2426,4.2426,12.0182,9.9814,22.8738,21.1686,32.489,33.4817,2.3741,3.0402,6.593-1.2328,4.2426-4.2426h0Z"/>
      <path d="M225.5729,229.9636c-12.1655-1.4157-24.3116-2.98-36.4377-4.7012-3.7766-.536-5.4085,5.2444-1.595,5.7857,12.6571,1.7965,25.3344,3.4377,38.0327,4.9155,3.8282.4455,3.7963-5.5582,0-6h0Z"/>
      <path d="M224.1295,237.0631c-9.7774,4.214-19.3556,8.837-28.7374,13.8704-3.4038,1.8262-.3771,7.0078,3.0283,5.1808,9.3819-5.0334,18.9601-9.6564,28.7374-13.8704,3.5361-1.524.4837-6.6945-3.0283-5.1808h0Z"/>
      <ellipse cx="297.8864" cy="222.2771" rx="10.3791" ry="3.9896" style="stroke: #000; stroke-miterlimit: 10;"/>
    </g>
  </g>
</svg>