<?xml version="1.0" encoding="UTF-8"?>
<svg id="head" xmlns="http://www.w3.org/2000/svg" width="1000" height="500" version="1.1" viewBox="0 0 1000 500">
  <!-- Generator: Adobe Illustrator 29.4.0, SVG Export Plug-In . SVG Version: 2.1.0 Build 152)  -->
  <path d="M506.785,261.3951c0,32.2899-26.1799,58.47-58.47,58.47-22.0601,0-41.26-12.2101-51.22-30.25-14.48,24.5499-41.2002,41.01-71.76,41.01-27.01,0-51.02-12.8601-66.23-32.79-16.6301,24.1599-44.48,39.99-76.03,39.99-50.95,0-92.26-41.3101-92.26-92.26s41.3101-92.27,92.26-92.27c15.3501,0,29.8198,3.75,42.55,10.38.2-32.12,26.3-58.09,58.47-58.09,14.23,0,27.26,5.08,37.3899,13.53,13.05-28.9501,42.1599-49.1101,75.98-49.1101,45.99,0,83.28,37.29,83.28,83.29,0,19.4299-6.6499,37.3-17.8,51.47,25.2102,6.5,43.8401,29.3801,43.8401,56.6301Z" style="fill: #fff;"/>
  <path d="M882.6949,336.1051c1.3201,5.6199,2.01,11.47,2.01,17.48,0,42.2-34.21,76.4099-76.4099,76.4099-33.6599,0-62.25-21.77-72.4299-52-9.4202,4.16-19.8401,6.4701-30.8,6.4701-42.21,0-76.4202-34.2101-76.4202-76.41s34.2102-76.4099,76.4202-76.4099c5.54,0,10.95.5898,16.1599,1.72,7.03-30.7101,34.51-53.6101,67.3501-53.6101,33.8301,0,61.98,24.3201,67.9199,56.4401,29.1899.51,52.6899,24.3199,52.6899,53.63,0,19.72-10.6399,36.96-26.49,46.28Z" style="fill: #fff;"/>
</svg>