<?xml version="1.0" encoding="UTF-8"?>
<svg id="Layer_1" xmlns="http://www.w3.org/2000/svg" width="35.2778cm" height="10.5833cm" version="1.1" viewBox="0 0 1000.0007 299.999">
  <!-- Generator: Adobe Illustrator 29.4.0, SVG Export Plug-In . SVG Version: 2.1.0 Build 152)  -->
  <ellipse cx="717.8434" cy="173.5366" rx="206.8333" ry="84.1293" style="fill: #667c0a;"/>
  <ellipse cx="354.2904" cy="178.2295" rx="287" ry="116.737" style="fill: #667c0a;"/>
  <path d="M1000.0007,121.9833v178.0156H0V121.9834h1000.0007Z" style="fill: #88990b;"/>
  <path d="M579.0854,125.462" style="fill: #88990b;"/>
  <path d="M0,121.9833h214.4808" style="fill: #88990b;"/>
  <g>
    <path d="M464.7289,172.7283c-2.1599,2.1174-7.742-.0688-12.4707-4.8826-.7256-.7368-1.3851-1.498-1.9793-2.2665-3.2628,5.4276-7.7686,8.6321-10.2893,7.2265-2.5539-1.4242-2.1607-7.0359.8162-12.719-1.1063-.1011-2.2569-.2795-3.4378-.5447-6.5806-1.493-11.3743-5.093-10.7081-8.0434.6012-2.6458,5.353-3.8773,11.0612-3.0456-3.0561-5.5246-3.5708-11.0131-1.0945-12.4908,2.5995-1.5576,7.5166,1.8838,10.9742,7.676.429.72.8201,1.4451,1.1637,2.1613,3.2821-5.854,8.0732-9.3977,10.7071-7.9288,2.594,1.4466,2.1419,7.2265-.9865,13.0087.6245-.0539,1.2719-.0862,1.9253-.0977,6.7449-.1026,12.2503,2.2682,12.298,5.3021.0443,2.8834-4.8919,5.3234-11.2018,5.6336,3.7075,4.4191,5.1571,9.1089,3.2222,11.011h.0002,0Z" style="fill: #e1b9ea;"/>
    <circle cx="449.534" cy="155.2285" r="4.5769" style="fill: #e89a10;"/>
  </g>
  <path d="M807.0017,180.0396c.0346,4.2831-7.6815,7.823-17.2368,7.91-1.4643.0151-2.8885-.061-4.256-.2109,2.3241,8.6616,1.1603,16.4044-2.7504,17.5915-3.9624,1.2028-9.2953-4.715-12.1609-13.3364-1.1907,1.0281-2.5037,2.0255-3.9349,2.9684-7.9914,5.2392-16.3733,6.5858-18.7254,3.0061-2.1055-3.2139,1.311-9.2677,7.7705-14.2679-8.6352-2.3166-14.7352-7.1879-13.8067-11.1646.9682-4.1808,9.3099-5.8089,18.6125-3.6384,1.1556.2707,2.2792.5849,3.347.9388-2.7397-9.1003-1.6411-17.4674,2.4454-18.7079,4.0246-1.2216,9.4711,4.9215,12.2888,13.7948.559-.6895,1.1626-1.3811,1.7932-2.0583,6.5265-6.9753,14.3554-10.2556,17.4945-7.3216,2.9823,2.7896.6162,10.2195-5.271,16.9555,8.1489.5659,14.3541,3.6991,14.3904,7.5411l-.0002-.0002h0Z" style="fill: #e1b9ea;"/>
  <circle cx="774.227" cy="178.3218" r="6.4814" style="fill: #e89a10;"/>
  <path d="M286.9787,200.9049c.0346,4.2831-7.6815,7.823-17.2368,7.91-1.4643.0151-2.8885-.061-4.256-.2109,2.3241,8.6616,1.1603,16.4044-2.7504,17.5915-3.9624,1.2028-9.2953-4.715-12.1609-13.3364-1.1907,1.0281-2.5037,2.0255-3.9349,2.9684-7.9914,5.2392-16.3733,6.5858-18.7254,3.0061-2.1055-3.2139,1.311-9.2677,7.7705-14.2679-8.6352-2.3166-14.7352-7.1879-13.8067-11.1646.9682-4.1808,9.3099-5.8089,18.6125-3.6384,1.1556.2707,2.2792.5849,3.347.9388-2.7397-9.1003-1.6411-17.4674,2.4454-18.7079,4.0246-1.2216,9.4711,4.9215,12.2888,13.7948.559-.6895,1.1626-1.3811,1.7932-2.0583,6.5265-6.9753,14.3554-10.2556,17.4945-7.3216,2.9823,2.7896.6162,10.2195-5.271,16.9555,8.1489.5659,14.3541,3.6991,14.3904,7.5411l-.0002-.0002h0Z" style="fill: #e1b9ea;"/>
  <circle cx="254.204" cy="199.1873" r="6.4814" style="fill: #e89a10;"/>
  <path d="M709.8637,259.137c-2.1599,2.1174-7.742-.0688-12.4707-4.8826-.7256-.7368-1.3851-1.498-1.9793-2.2665-3.2628,5.4276-7.7686,8.6321-10.2893,7.2265-2.5539-1.4242-2.1607-7.0359.8162-12.719-1.1063-.1011-2.2569-.2795-3.4378-.5447-6.5806-1.493-11.3743-5.093-10.7081-8.0434.6012-2.6458,5.353-3.8773,11.0612-3.0456-3.0561-5.5246-3.5708-11.0131-1.0945-12.4908,2.5995-1.5576,7.5166,1.8838,10.9742,7.676.429.72.8201,1.4451,1.1637,2.1613,3.2821-5.854,8.0732-9.3977,10.7071-7.9288,2.594,1.4466,2.1419,7.2265-.9865,13.0087.6245-.0539,1.2719-.0862,1.9253-.0977,6.7449-.1026,12.2503,2.2682,12.298,5.3021.0443,2.8834-4.8919,5.3234-11.2018,5.6336,3.7075,4.4191,5.1571,9.1089,3.2222,11.011h.0001Z" style="fill: #e1b9ea;"/>
  <circle cx="694.6687" cy="241.6372" r="4.5769" style="fill: #e89a10;"/>
</svg>