<?xml version="1.0" encoding="UTF-8"?>
<svg id="Layer_1" xmlns="http://www.w3.org/2000/svg" width="35.2778cm" height="10.5833cm" version="1.1" viewBox="0 0 1000.0007 299.999">
  <!-- Generator: Adobe Illustrator 29.4.0, SVG Export Plug-In . SVG Version: 2.1.0 Build 152)  -->
  <ellipse cx="265.5655" cy="168.8482" rx="157.1012" ry="115.0364" style="fill: #667c0a;"/>
  <path d="M0,123.7734h1000.0007v176.2255H0V123.7734" style="fill: #88990b;"/>
  <path d="M773.8706,252.8781c-2.1599,2.1174-7.742-.0688-12.4707-4.8826-.7256-.7368-1.3851-1.498-1.9793-2.2665-3.2628,5.4276-7.7686,8.6321-10.2893,7.2265-2.5539-1.4242-2.1607-7.0359.8162-12.719-1.1063-.1011-2.2569-.2795-3.4378-.5447-6.5806-1.493-11.3743-5.093-10.7081-8.0434.6012-2.6458,5.353-3.8773,11.0612-3.0456-3.0561-5.5246-3.5708-11.0131-1.0945-12.4908,2.5995-1.5576,7.5166,1.8838,10.9742,7.676.429.72.8201,1.4451,1.1637,2.1613,3.2821-5.854,8.0732-9.3977,10.7071-7.9288,2.594,1.4466,2.1419,7.2265-.9865,13.0087.6245-.0539,1.2719-.0862,1.9253-.0977,6.7449-.1026,12.2503,2.2682,12.298,5.3021.0443,2.8834-4.8919,5.3234-11.2018,5.6336,3.7075,4.4191,5.1571,9.1089,3.2222,11.011h.0001Z" style="fill: #e1b9ea;"/>
  <circle cx="758.6756" cy="235.3782" r="4.5769" style="fill: #e89a10;"/>
  <path d="M527.0994,236.6553c-1.1109,2.8133-7.0994,3.0888-13.3782.617-.9627-.3776-1.875-.8044-2.7306-1.2644-.7707,6.2858-3.5817,11.047-6.4562,10.7892-2.9125-.2612-4.8378-5.5469-4.4323-11.9497-1.0516.358-2.1752.6635-3.3618.902-6.6185,1.3152-12.4625-.0215-13.055-2.9876-.5279-2.6614,3.311-5.7206,8.8633-7.2847-5.0404-3.802-7.7449-8.6056-6.0846-10.9634,1.7403-2.4809,7.6325-1.3393,13.1485,2.5437.6849.483,1.3374.9861,1.9428,1.5004.6147-6.683,3.5483-11.8702,6.552-11.6009,2.9582.2653,4.8982,5.7286,4.3947,12.2836.5485-.3035,1.1267-.5965,1.7187-.873,6.1189-2.8395,12.1126-2.9152,13.3913-.1636,1.2143,2.6156-2.3011,6.8537-7.9382,9.7058,5.1853,2.5271,8.4186,6.2206,7.4256,8.7455h0Z" style="fill: #e1b9ea;"/>
  <circle cx="506.0964" cy="226.8569" r="4.5769" style="fill: #e89a10;"/>
  <path d="M708.547,186.5198c-1.12,3.8-8.9,4.86-17.3799,2.37-1.3-.38-2.54-.83-3.71-1.33-.27,8.29-3.38,14.83-7.16,14.83-3.83,0-6.96-6.67-7.18-15.07-1.33.59-2.76,1.12-4.28,1.57-8.48,2.49-16.26,1.43-17.38-2.37-1-3.41,3.65-7.85,10.71-10.54-7.02-4.3701-11.11-10.32-9.22-13.59,1.98-3.44,9.8-2.64,17.45,1.78.95.55,1.86,1.1299,2.71,1.73.02-8.79,3.2401-15.9,7.19-15.9,3.89,0,7.06,6.9,7.17,15.51.68-.46,1.4-.91,2.14-1.34,7.65-4.42,15.46-5.22,17.45-1.78,1.89,3.27-2.2,9.21-9.22,13.59,7.06,2.69,11.71,7.1299,10.71,10.54h-.0002Z" style="fill: #e1b9ea;"/>
  <circle cx="680.002" cy="176.1948" r="5.9946" style="fill: #e89a10;"/>
  <path d="M369.1019,184.4381c-1.7674,4.4762-11.2957,4.9145-21.2856.9817-1.5317-.6008-2.9832-1.2799-4.3445-2.0118-1.2262,10.0011-5.6987,17.5765-10.2723,17.1663-4.634-.4156-7.6973-8.8254-7.0521-19.0127-1.6732.5696-3.4609,1.0556-5.3488,1.4352-10.5304,2.0926-19.8286-.0341-20.7714-4.7534-.8399-4.2344,5.268-9.1019,14.102-11.5905-8.0195-6.0492-12.3226-13.692-9.681-17.4434,2.7689-3.9473,12.1437-2.1309,20.9201,4.0472,1.0898.7685,2.1278,1.569,3.0911,2.3872.978-10.6331,5.6455-18.8863,10.4247-18.4577,4.7066.4221,7.7934,9.1146,6.9923,19.544.8727-.4828,1.7926-.9491,2.7346-1.3891,9.7356-4.5179,19.2719-4.6383,21.3064-.2602,1.932,4.1616-3.6612,10.9047-12.6301,15.4425,8.2502,4.0208,13.3946,9.8973,11.8146,13.9147h0Z" style="fill: #e1b9ea;"/>
  <circle cx="335.6849" cy="168.8482" r="7.2822" style="fill: #e89a10;"/>
</svg>