<?xml version="1.0" encoding="UTF-8"?>
<svg id="head" xmlns="http://www.w3.org/2000/svg" width="27" height="23.2838" version="1.1" viewBox="0 0 27 23.2838">
  <!-- Generator: Adobe Illustrator 29.4.0, SVG Export Plug-In . SVG Version: 2.1.0 Build 152)  -->
  <g>
    <path d="M12.6528,4.5071c-.8508-1.9825-3.3522-2.9571-5.4307-2.3794s-3.643,2.4565-4.1961,4.5417-.2,4.3312.6103,6.3306c1.311,3.235,3.8323,5.963,6.9543,7.5242.6126.3064,1.2659.5735,1.9507.5892.9823.0226,1.8959-.4699,2.7378-.9766,2.0252-1.2191,3.9739-2.6273,5.4685-4.4586s2.5101-4.1304,2.4628-6.4937-1.2795-4.7567-3.3694-5.8611-4.9857-.6455-6.3827,1.2614" style="fill: #d16fba;"/>
    <path d="M13.6243,3.9393c-.9135-1.9298-2.9701-3.0518-5.0667-3.1005-2.2684-.0526-4.2773,1.3043-5.5222,3.1225-2.9442,4.2997-.8768,10.1489,2.195,13.7631,1.5005,1.7654,3.5052,3.3462,5.687,4.17,2.5753.9724,4.879-.6305,6.9152-2.077,3.9835-2.83,7.6086-7.5051,6.21-12.6895-.6521-2.4171-2.4451-4.6091-4.916-5.2885-2.2948-.631-4.9683.0452-6.4638,1.9499-.8844,1.1264.6971,2.7294,1.591,1.591,2.2653-2.8851,6.3176-1.2864,7.4416,1.7788,1.3837,3.7735-1.0759,7.521-3.8854,9.8634-.7057.5884-1.4634,1.1127-2.2365,1.6081-.7992.5122-1.7213,1.2123-2.6865,1.3422-1.6302.2194-3.6682-1.4893-4.7844-2.5098-2.6421-2.4156-4.7856-6.2898-4.1093-9.9699.3371-1.8344,1.5397-3.6585,3.3879-4.2373,1.6873-.5284,3.543.2191,4.3004,1.819.6191,1.308,2.5596.1674,1.9428-1.1356h0Z" style="fill: #d16fba;"/>
  </g>
  <path d="M7.4431,8.8266c1.9304,0,1.9336-3,0-3-1.9304,0-1.9336,3,0,3h0Z" style="fill: #600a50;"/>
  <path d="M17.9986,8.9378c1.9304,0,1.9336-3,0-3-1.9304,0-1.9336,3,0,3h0Z" style="fill: #600a50;"/>
  <path d="M6.5838,10.8001c-2.1623,1.0667-1.935,4.2406.2976,5.0627.9649.3553,1.9585.0643,2.8131-.4314.6238-.3619,1.2896-1.0162,2.0584-.8575.4872.1006.9243.4043,1.3542.6385.5193.2828,1.0593.5478,1.6238.7285,1.0551.3376,2.2306.3295,3.2259-.1914.9205-.4817,1.5886-1.4125,1.6034-2.4703.0135-.9709-.4866-1.9887-1.4002-2.3966-.5544-.2476-1.2092-.1607-1.5392.4036-.2808.4801-.154,1.2902.4036,1.5392.2484.1109.3758.3092.2446.6034-.185.4148-.8038.519-1.2055.4982-1.4891-.0773-2.6228-1.3712-4.0933-1.5892-.7674-.1138-1.4682.0552-2.1561.3947-.5332.2631-.994.6636-1.5346.91-.299.1363-.6159.2339-.8667-.0479-.3016-.3389-.0198-.6904.3068-.8515,1.2986-.6406.1598-2.5818-1.1356-1.9428h0Z" style="fill: #600a50;"/>
</svg>